<?xml version="1.0" encoding="UTF-8"?>
<svg id="Layer_1" xmlns="http://www.w3.org/2000/svg" version="1.1" viewBox="0 0 200 200">
  <!-- Generator: Adobe Illustrator 30.1.0, SVG Export Plug-In . SVG Version: 2.1.1 Build 136)  -->
  <defs>
    <style>
      .st0 {
        fill: #d7dcdd;
      }

      .st1 {
        fill: #2bb3e2;
      }

      .st2 {
        fill: #e2e7e8;
      }

      .st3 {
        fill: #f8c23b;
      }

      .st4 {
        fill: #eaae28;
      }

      .st5 {
        fill: #f5f7f7;
      }
    </style>
  </defs>
  <g>
    <g>
      <path class="st5" d="M158.3,108.2l10.4-17.1c5.4-8.8,7.4-19.3,5.7-29.5l-.5-2.7c-.6-3.5-3.9-5.8-7.4-5.2l-13.3,2.2-1.3-8,13.3-2.2c7.9-1.3,15.3,4,16.7,11.9l.5,2.7c2,12.1-.4,24.6-6.8,35.1l-10.4,17.1-6.9-4.2Z"/>
      <path class="st2" d="M165.6,47.6c6.8-1.1,13.2,3.4,14.3,10.2l.5,2.7c2,11.6-.3,23.6-6.5,33.7l-9.4,15.4-3.5-2.1,9.4-15.4c5.6-9.3,7.8-20.2,6-30.9l-.5-2.7c-.8-4.6-5.1-7.7-9.7-6.9l-11.3,1.9-.7-4,11.3-1.9M164.9,43.6l-15.3,2.6,2,12,15.3-2.6c2.4-.4,4.6,1.2,5,3.6l.5,2.7c1.6,9.7-.3,19.7-5.4,28.1l-11.5,18.8,10.4,6.3,11.5-18.8c6.6-10.9,9.1-23.9,7-36.5l-.5-2.7c-1.5-9-10-15-19-13.5h0Z"/>
    </g>
    <rect class="st5" x="92" y="45.8" width="68.1" height="82.6" transform="translate(-12.7 22.1) rotate(-9.5)"/>
    <path class="st2" d="M169.7,125.8l-.9-2-14.4-85.5-71.2,12,14.4,85.5h0l-.2,2.2c-.3,4.6,3.8,8.4,8.4,7.6l58.4-9.8c4.6-.8,7.3-5.6,5.4-9.9ZM87.9,53.6l63.2-10.6,12.1,72.2c.5,2.9-1.5,5.7-4.4,6.2l-52.6,8.8c-2.9.5-5.7-1.5-6.2-4.4l-12.1-72.2Z"/>
    <path class="st3" d="M95.2,62.2h64.1v59.6c0,2.5-2,4.5-4.5,4.5h-55.2c-2.5,0-4.5-2-4.5-4.5v-59.6h0Z" transform="translate(-13.9 22.4) rotate(-9.5)"/>
    <path class="st4" d="M155.1,87.1c-.3-1.7-1.9-2.9-3.7-2.6-1.7.3-2.9,1.9-2.6,3.7.3,1.7,1.9,2.9,3.7,2.6,1.7-.3,2.9-1.9,2.6-3.7Z"/>
    <path class="st4" d="M110,110.6c-.3-1.7-1.9-2.9-3.7-2.6-1.7.3-2.9,1.9-2.6,3.7.3,1.7,1.9,2.9,3.7,2.6,1.7-.3,2.9-1.9,2.6-3.7Z"/>
    <path class="st3" d="M147.3,52.1c-.3-1.9-2.2-3.3-4.1-2.9-1.9.3-3.3,2.2-2.9,4.1.3,1.9,2.2,3.3,4.1,2.9s3.3-2.2,2.9-4.1Z"/>
    <path class="st0" d="M154.2,38.4c-1.7-10.2-11.3-17-21.5-15.3-10.2,1.7-17,11.3-15.3,21.5l36.8-6.2Z"/>
    <path class="st0" d="M120.1,44.1c-1.7-10.2-11.3-17-21.5-15.3-10.2,1.7-17,11.3-15.3,21.5l36.8-6.2Z"/>
    <path class="st2" d="M114.9,20.7c-10.2,1.7-17,11.3-15.3,21.5l1,5.9h0c.7,4.4,4.9,7.4,9.3,6.6h0c2.6-.5,5.2,1.3,5.6,4l.3,1.5h0c0,.1,0,.3,0,.4.7,4.4,4.9,7.3,9.3,6.6,4.4-.7,7.3-4.9,6.6-9.3,0-.1,0-.3,0-.4h0s-1.1-6.5-1.1-6.5v-.3c-.8-4.5,2.2-8.8,6.7-9.5l-.9-5.2c-1.7-10.2-11.3-17-21.5-15.3Z"/>
    <g>
      <path class="st4" d="M120.4,118.1h0c-2,.3-3.8-1-4.2-3l-6.9-40.8c-.3-2,1-3.8,3-4.2h0c2-.3,3.8,1,4.2,3l6.9,40.8c.3,2-1,3.8-3,4.2Z"/>
      <path class="st4" d="M141.5,114.6h0c-2,.3-3.8-1-4.2-3l-6.9-40.8c-.3-2,1-3.8,3-4.2h0c2-.3,3.8,1,4.2,3l6.9,40.8c.3,2-1,3.8-3,4.2Z"/>
    </g>
  </g>
  <g>
    <path class="st1" d="M65.4,23.7l-3.1,3.8c-.9,1.1-.4,2.9,1.1,3.2l12.4,2.9c1,.2,1.9-.8,1.5-1.8l-5.3-11.6c-.6-1.3-2.4-1.6-3.3-.4l-3.1,3.8Z"/>
    <g>
      <path class="st1" d="M54.3,49.8v4.9c0,1.5,1.5,2.4,2.8,1.8l11.5-5.5c1-.5,1-1.8,0-2.3l-11.4-5.6c-1.3-.7-2.9.3-2.9,1.8v4.9Z"/>
      <path class="st1" d="M88.8,7.7l4.8-1c1.4-.3,2.7,1,2.3,2.4l-3.1,12.3c-.3,1-1.6,1.3-2.2.5l-7.8-10.1c-.9-1.2-.3-2.9,1.2-3.2l4.8-1Z"/>
    </g>
  </g>
  <g>
    <g>
      <path class="st5" d="M37.9,150.6l-8.7-18.1c-4.5-9.3-5.4-20-2.7-30l.7-2.6c.9-3.4,4.4-5.4,7.8-4.5l13,3.5,2.1-7.8-13-3.5c-7.7-2.1-15.7,2.5-17.8,10.1l-.7,2.6c-3.2,11.9-2.1,24.5,3.2,35.6l8.7,18.1,7.3-3.5Z"/>
      <path class="st2" d="M36.7,89.7l11,3-1.1,3.9-11-3c-4.5-1.2-9.1,1.4-10.3,5.9l-.7,2.6c-2.9,10.5-1.8,21.6,2.8,31.4l7.8,16.2-3.6,1.7-7.8-16.2c-5.1-10.6-6.2-22.8-3.1-34.2l.7-2.6c1.8-6.6,8.7-10.5,15.3-8.7M37.7,85.8c-8.8-2.4-17.9,2.8-20.3,11.6l-.7,2.6c-3.4,12.3-2.2,25.5,3.3,37l9.5,19.9,10.9-5.2-9.5-19.9c-4.3-8.9-5.2-19-2.6-28.5l.7-2.6c.6-2.3,3-3.7,5.4-3.1l14.9,4.1,3.2-11.7-14.9-4.1h0Z"/>
    </g>
    <rect class="st5" x="30.8" y="98.8" width="82.6" height="68.1" transform="translate(-75 167.4) rotate(-74.7)"/>
    <path class="st2" d="M29.2,177.5l57.2,15.6c4.5,1.2,8.9-2.1,9.1-6.7v-2.2h0l22.8-83.6-69.6-19-22.8,83.6-1.1,1.9c-2.3,4.1-.1,9.2,4.4,10.4ZM94.1,174c-.8,2.9-3.7,4.6-6.6,3.8l-51.4-14c-2.9-.8-4.6-3.7-3.8-6.6l19.3-70.6,61.8,16.9-19.3,70.6Z"/>
    <path class="st3" d="M47.7,100.5l61.8,16.9-15.7,57.5c-.6,2.4-3.1,3.8-5.5,3.1l-53.2-14.5c-2.4-.6-3.8-3.1-3.1-5.5l15.7-57.5Z"/>
    <path class="st4" d="M68.9,127.6c.5-1.7,2.2-2.7,3.9-2.2,1.7.5,2.7,2.2,2.2,3.9-.5,1.7-2.2,2.7-3.9,2.2-1.7-.5-2.7-2.2-2.2-3.9Z"/>
    <path class="st4" d="M85.7,157.8c.5-1.7,2.2-2.7,3.9-2.2,1.7.5,2.7,2.2,2.2,3.9-.5,1.7-2.2,2.7-3.9,2.2-1.7-.5-2.7-2.2-2.2-3.9Z"/>
    <path class="st3" d="M95.9,113.4c.5-1.9,2.5-3,4.4-2.5,1.9.5,3,2.5,2.5,4.4-.5,1.9-2.5,3-4.4,2.5-1.9-.5-3-2.5-2.5-4.4Z"/>
    <path class="st0" d="M49,81.6c2.7-9.9,13-15.8,22.9-13.1,9.9,2.7,15.8,13,13.1,22.9l-36-9.8Z"/>
    <path class="st0" d="M82.3,90.7c2.7-9.9,13-15.8,22.9-13.1,9.9,2.7,15.8,13,13.1,22.9l-36-9.8Z"/>
    <path class="st2" d="M89.8,67.9c9.9,2.7,15.8,13,13.1,22.9l-1.6,5.8h0c-1.2,4.3-5.6,6.8-9.9,5.6h0c-2.6-.7-5.3.8-6,3.4l-.4,1.5h0c0,.1,0,.3,0,.4-1.2,4.3-5.6,6.8-9.9,5.6-4.3-1.2-6.8-5.6-5.6-9.9,0-.1,0-.3.1-.4h0s1.7-6.4,1.7-6.4v-.2c1.3-4.4-1.3-8.9-5.7-10.1l1.4-5.1c2.7-9.9,13-15.8,22.9-13.1Z"/>
    <g>
      <path class="st4" d="M74.6,164.3h0c1.9.5,3.9-.6,4.4-2.5l10.9-39.9c.5-1.9-.6-3.9-2.5-4.4h0c-1.9-.5-3.9.6-4.4,2.5l-10.9,39.9c-.5,1.9.6,3.9,2.5,4.4Z"/>
      <path class="st4" d="M53.9,158.7h0c1.9.5,3.9-.6,4.4-2.5l10.9-39.9c.5-1.9-.6-3.9-2.5-4.4h0c-1.9-.5-3.9.6-4.4,2.5l-10.9,39.9c-.5,1.9.6,3.9,2.5,4.4Z"/>
    </g>
  </g>
</svg>