<?xml version="1.0" encoding="UTF-8"?>
<svg id="Layer_1" xmlns="http://www.w3.org/2000/svg" version="1.1" viewBox="0 0 300 244.5">
  <!-- Generator: Adobe Illustrator 29.6.1, SVG Export Plug-In . SVG Version: 2.1.1 Build 9)  -->
  <defs>
    <style>
      .st0, .st1, .st2, .st3 {
        fill-rule: evenodd;
      }

      .st0, .st4 {
        fill: #fff;
      }

      .st1 {
        fill: #ff5e4f;
      }

      .st2 {
        fill: #d1462a;
      }

      .st3 {
        fill: #d7d2c8;
      }

      .st5 {
        fill: #ef4a2e;
        stroke: #ef4a2e;
        stroke-miterlimit: 10;
        stroke-width: .9px;
      }
    </style>
  </defs>
  <g>
    <path class="st4" d="M44.6,175.1c0,1.4-.9,2.3-2.3,2.3h-3.7c-1.4,0-2.3-.9-2.3-2.3v-7c0-2.2-1-3.7-3.7-3.7s-3.7,1.5-3.7,3.7v27.8c0,2.2,1,3.7,3.7,3.7s3.7-1.5,3.7-3.7v-7c0-1.4.9-2.2,2.3-2.2h3.7c1.4,0,2.3.8,2.3,2.2v7c0,6.8-3.8,10.2-12.1,10.2s-12-3.3-12-10.2v-27.8c0-6.8,3.7-10.2,12-10.2s12.1,3.3,12.1,10.2v7Z"/>
    <path class="st4" d="M66.2,203.8l-1-7.4h-8.3l-.9,7.4c-.2,1.5-1.2,2-2.3,2h-3.5c-1.6,0-2.4-1.2-2.2-2.8l6.5-42.6c.2-1.6,1-2.2,2.4-2.2h8.5c1.3,0,2.1.6,2.3,2.2l6.5,42.6c.3,1.6-.5,2.8-2.2,2.8h-3.5c-1.1,0-2.1-.5-2.2-2ZM57.7,190h6.7l-1.3-10.1-1.7-15.9h-.6l-1.7,15.9-1.4,10.1Z"/>
    <path class="st4" d="M85.8,188.5v15c0,1.4-.9,2.3-2.3,2.3h-3.7c-1.4,0-2.3-.9-2.3-2.3v-43c0-1.4.9-2.2,2.3-2.2h8.8c8.5,0,12.3,3.4,12.3,10.4v9.3c0,7.1-3.8,10.5-12.3,10.5h-2.8ZM88.6,182c3,0,4-1.6,4-4.1v-9.3c0-2.4-1-4-4-4h-2.8v17.3h2.8Z"/>
    <path class="st4" d="M123.1,158.3c1.4,0,2.3.8,2.3,2.2v1.9c0,1.4-.9,2.3-2.3,2.3h-9.9v14.1h7.4c1.4,0,2.3.8,2.3,2.2v1.9c0,1.4-.9,2.3-2.3,2.3h-7.4v14.1h9.9c1.4,0,2.3.8,2.3,2.2v1.9c0,1.4-.9,2.3-2.3,2.3h-15.9c-1.4,0-2.3-.9-2.3-2.3v-43c0-1.4.9-2.2,2.3-2.2h15.9Z"/>
    <path class="st4" d="M167.1,175.1c0,1.4-.9,2.3-2.3,2.3h-3.7c-1.4,0-2.3-.9-2.3-2.3v-7c0-2.2-1-3.7-3.7-3.7s-3.7,1.5-3.7,3.7v27.8c0,2.2,1,3.7,3.7,3.7s3.7-1.5,3.7-3.7v-7c0-1.4.9-2.2,2.3-2.2h3.7c1.4,0,2.3.8,2.3,2.2v7c0,6.8-3.8,10.2-12.1,10.2s-12-3.3-12-10.2v-27.8c0-6.8,3.7-10.2,12-10.2s12.1,3.3,12.1,10.2v7Z"/>
    <path class="st4" d="M196.4,168.1v27.8c0,6.8-3.8,10.2-12.1,10.2s-12-3.3-12-10.2v-27.8c0-6.8,3.7-10.2,12-10.2s12.1,3.3,12.1,10.2ZM180.7,168.1v27.8c0,2.2,1,3.7,3.7,3.7s3.7-1.5,3.7-3.7v-27.8c0-2.2-1-3.7-3.7-3.7s-3.7,1.5-3.7,3.7Z"/>
    <path class="st4" d="M220.4,185.4l6.5,17.2c.5,1.2.1,3.2-2,3.2h-4c-1.2,0-1.9-.5-2.2-1.5l-6.4-17.6h-2.2v16.8c0,1.4-.9,2.3-2.3,2.3h-3.7c-1.4,0-2.3-.9-2.3-2.3v-43c0-1.4.9-2.2,2.3-2.2h9.3c8.5,0,12.3,3.4,12.3,10.4v7.5c0,4.7-1.5,7.7-5.2,9.2ZM213.3,180.3c2.9,0,4-1.6,4-4.1v-7.5c0-2.4-1.1-4-4-4h-3.3v15.6h3.3Z"/>
    <path class="st4" d="M247.1,203.8l-1-7.4h-8.3l-.9,7.4c-.2,1.5-1.2,2-2.3,2h-3.5c-1.6,0-2.4-1.2-2.2-2.8l6.5-42.6c.2-1.6,1-2.2,2.4-2.2h8.5c1.3,0,2.1.6,2.3,2.2l6.5,42.6c.3,1.6-.5,2.8-2.2,2.8h-3.5c-1.1,0-2.1-.5-2.2-2ZM238.6,190h6.7l-1.3-10.1-1.7-15.9h-.6l-1.7,15.9-1.4,10.1Z"/>
    <path class="st4" d="M266.8,199.4h9.9c1.4,0,2.3.8,2.3,2.2v1.9c0,1.4-.9,2.3-2.3,2.3h-15.9c-1.4,0-2.3-.9-2.3-2.3v-43c0-1.4.9-2.2,2.3-2.2h3.7c1.4,0,2.3.8,2.3,2.2v38.9Z"/>
  </g>
  <g>
    <path class="st5" d="M20.5,230.2v-12.1c0-1,.5-1.5,1.4-1.5h14.1c2.8,0,4.3,1.5,4.3,4.5s-1.4,4.6-4.3,4.6h-1.9l5.4,3.2c.8.5,1,1.2.5,2.1-.5.9-1.1,1-1.9.5l-9-5.8h-5.7v4.5c0,1-.5,1.5-1.4,1.5s-1.4-.5-1.4-1.5ZM36.1,219.6h-12.7v3h12.7c1,0,1.4-.5,1.4-1.5,0-1-.5-1.5-1.4-1.5Z"/>
    <path class="st5" d="M57.1,230.2v-12.2c0-1,.5-1.5,1.4-1.5h17c.9,0,1.4.5,1.4,1.5s-.5,1.5-1.4,1.5h-15.6v3h12.8c.9,0,1.4.5,1.4,1.5s-.5,1.5-1.4,1.5h-12.8v3h15.6c.9,0,1.4.5,1.4,1.5s-.5,1.5-1.4,1.5h-17c-.9,0-1.4-.5-1.4-1.5Z"/>
    <path class="st5" d="M113.2,219.1l-8.1,11.9c-.5.5-1,.7-1.4.7-.4,0-.9-.2-1.4-.7l-8.2-11.9c-.4-.7-.3-1.4.3-2,.6-.6,1.3-.6,1.9,0l7.4,11.2,7.3-11.1c.6-.8,1.3-.9,2-.2.7.6.8,1.3.3,2.1Z"/>
    <path class="st5" d="M131.7,216.5c.9,0,1.4.5,1.4,1.5v12.1c0,1-.5,1.5-1.4,1.5s-1.4-.5-1.4-1.5v-12.2c0-1,.5-1.5,1.4-1.5Z"/>
    <path class="st5" d="M150,230.2v-12.2c0-1,.5-1.5,1.4-1.5h17c.9,0,1.4.5,1.4,1.5s-.5,1.5-1.4,1.5h-15.6v3h12.8c.9,0,1.4.5,1.4,1.5s-.5,1.5-1.4,1.5h-12.8v3h15.6c.9,0,1.4.5,1.4,1.5s-.5,1.5-1.4,1.5h-17c-.9,0-1.4-.5-1.4-1.5Z"/>
    <path class="st5" d="M204.1,231.7c-.4.2-1,.1-1.6-.2l-6.1-5.4-6.2,5.4c-.6.3-1.1.4-1.5.2-.4-.2-.7-.7-.8-1.4l-1.4-11.8c-.2-1,.2-1.6,1.1-1.8s1.5.2,1.6,1.1l1.3,9.8,4.3-4.2c.5-.5,1-.7,1.4-.7s.9.2,1.4.7l4.4,4.2,1.2-9.9c.1-.9.7-1.3,1.6-1.1,1,.2,1.4.8,1.2,1.8l-1.4,11.8c0,.7-.3,1.2-.7,1.4Z"/>
    <path class="st5" d="M223.1,230.2v-12.2c0-1,.5-1.5,1.4-1.5h17c.9,0,1.4.5,1.4,1.5s-.5,1.5-1.4,1.5h-15.6v3h12.8c.9,0,1.4.5,1.4,1.5s-.5,1.5-1.4,1.5h-12.8v3h15.6c.9,0,1.4.5,1.4,1.5s-.5,1.5-1.4,1.5h-17c-.9,0-1.4-.5-1.4-1.5Z"/>
    <path class="st5" d="M279.5,222.7v3c0,4.1-1.9,6.1-5.6,6.1h-12.7c-.9,0-1.4-.5-1.4-1.6v-12.1c0-1,.5-1.5,1.4-1.5h12.7c3.8,0,5.6,2,5.6,6.1ZM262.5,228.7h11.3c1.9,0,2.8-1,2.8-3.1v-3c0-2-.9-3-2.8-3.1h-11.3v9.1Z"/>
  </g>
  <g>
    <circle class="st4" cx="150" cy="72.3" r="59.6"/>
    <g>
      <path class="st0" d="M109.2,77.9s0,0,0,0c0,0,0,0,0,0,0,0,0,0,0,0,0,0,0,0,0,0h0Z"/>
      <path class="st3" d="M121.2,70.3c-4.6-2.3-8.6-4.1-12.5-7-5.3-3.9-5-9,8.3-6.8,5.3.9,10.6,1.4,15.6,1.3,11.7-.3,9-12.9,10.8-22.4,2.5-13.4,10-7.8,10.6-.8,1.3,14.5,4.6,22.3,10.7,23.3,7,1.2,16.4-.2,23.3-.6,9.7-.5,9,5.5,2.3,8.4-6.7,3-14.4,6.3-18.3,7.5-7.1,2.2-6.3,7-3,13.1,2.9,5.4,6.3,12.7,8,16.5,2.5,5.5-1.4,10.6-8.5,3.5-19.4-19.4-21.6-18.6-36.1-3.9-12.8,13-16.6,7.4-11.7-1.7,6.7-12.6,14.6-23.3.3-30.5h0Z"/>
      <path class="st2" d="M120.3,69.4c-4.6-2.3-8.6-4.1-12.5-7-5.3-3.9-5-9,8.3-6.8,5.3.9,10.6,1.4,15.6,1.3,11.7-.3,9-12.9,10.8-22.4,2.5-13.4,10-7.8,10.6-.8,1.3,14.5,4.6,22.3,10.7,23.3,7,1.2,16.4-.2,23.3-.6,9.7-.5,9,5.5,2.3,8.4-6.7,3-14.4,6.3-18.3,7.5-7.1,2.2-6.3,7-3,13.1,2.9,5.4,6.3,12.7,8,16.5,2.5,5.5-1.4,10.6-8.5,3.5-19.4-19.4-21.6-18.6-36.1-3.9-12.8,13-16.6,7.4-11.7-1.7,6.7-12.6,14.6-23.3.3-30.5h0Z"/>
      <path class="st1" d="M118.9,66.9c-4.6-1.9-9.8-4.4-12.1-6.5-1.4-1.2-1.3-3.5.2-4.3,1.4-.7,3.8-.7,6.5-.2,5.3.9,15.3,4.6,20.2,4.5,9.4-.2,9.3-11.2,9.6-20.4.1-3.4-.1-12.6,4.5-12.7,2.8,0,3.8,3.6,4.1,7.8,1.3,14.5,2,24.7,8.1,25.7,5.7,1,20.1-2.6,27.1-3.6,3.2-.5,5.9,0,6.3,2,.5,2.1-1.3,3.9-4.4,4.7-7.7,2-20.2,4.2-24.1,5.4-7.1,2.2-6,6.8-2.7,13,3.7,6.9,9,12.4,12.9,19.7.8,1.4,1.9,4.6,0,5.6-1.9,1.1-4.6-1.3-5.6-2.3-19.4-19.4-21.1-27.8-34-11.7-3.6,4.5-7,8.9-11.7,13.1-1.2,1-2.5,1.5-3.4,1.5-1.8,0-2.5-2.4.4-7.9,2.9-5.5,8.6-14,10.5-18.7,2.7-6.9-.4-9.5-12.6-14.7h0Z"/>
      <path class="st0" d="M142.1,70.4c-.5-.3-.5-.8-.1-1.1.3-.2.6-.2,1.4-.1,2.8.2,3.6-.8,4.1-3.2.2-.9.5-1.1.9-1.1.4,0,.6.4.7,1,.5,3.1,2.4,3.5,4.8,3.6.5,0,.9,0,1,.3.1.4-.3.8-.9,1.1-2.8,1.2-3.1,1.5-2,5.3.2.9-.1,1.4-1.3.5-3.2-2.5-3.9-1.5-5.7-.3-.4.3-.9.6-1.2.6-.4,0-.7-.4-.2-1.3,1.4-2.3.6-4.3-1.5-5.5h0Z"/>
      <path class="st0" d="M159.1,65.3c.8-.2,1.7.3,1.8,1.2.2.8-.3,1.7-1.2,1.8-.8.2-1.7-.3-1.8-1.2-.2-.8.3-1.7,1.2-1.8h0Z"/>
      <path class="st0" d="M165,64.2c.7-.2,1.4.3,1.6,1,.2.7-.3,1.4-1,1.6-.7.2-1.4-.3-1.6-1-.2-.7.3-1.4,1-1.6h0Z"/>
      <path class="st0" d="M170.5,63.3c.6-.1,1.1.2,1.3.8.1.6-.2,1.1-.8,1.3-.6.1-1.1-.2-1.3-.8-.1-.6.2-1.1.8-1.3h0Z"/>
      <path class="st0" d="M175.5,62.4c.4,0,.9.2,1,.6,0,.4-.2.9-.6,1-.4,0-.9-.2-1-.6,0-.4.2-.9.6-1h0Z"/>
      <path class="st0" d="M180,61.7c.3,0,.6.1.7.5,0,.3-.1.6-.5.7-.3,0-.6-.1-.7-.5,0-.3.1-.6.5-.7h0Z"/>
      <path class="st0" d="M184.2,60.9c.3,0,.5.1.6.4,0,.3-.1.5-.4.6-.3,0-.5-.1-.6-.4,0-.3.1-.5.4-.6h0Z"/>
      <path class="st0" d="M188.1,60.2c.2,0,.4,0,.4.3,0,.2,0,.4-.3.4-.2,0-.4,0-.4-.3,0-.2,0-.4.3-.4h0Z"/>
      <path class="st0" d="M191.8,59.5c.1,0,.3,0,.3.2,0,.1,0,.3-.2.3-.1,0-.3,0-.3-.2,0-.1,0-.3.2-.3h0Z"/>
      <path class="st0" d="M147,62.1c0-.8.7-1.6,1.5-1.6.8,0,1.6.7,1.6,1.5,0,.8-.7,1.6-1.5,1.6-.8,0-1.6-.7-1.6-1.5h0Z"/>
      <path class="st0" d="M147.1,56.1c0-.7.6-1.3,1.3-1.3.7,0,1.3.6,1.3,1.3,0,.7-.6,1.3-1.3,1.3-.7,0-1.3-.6-1.3-1.3h0Z"/>
      <path class="st0" d="M147.2,50.6c0-.6.5-1.1,1-1.1.6,0,1.1.5,1.1,1,0,.6-.5,1.1-1,1.1-.6,0-1.1-.5-1.1-1h0Z"/>
      <path class="st0" d="M147.3,45.5c0-.5.4-.8.8-.9.5,0,.8.4.9.8,0,.5-.4.8-.8.9-.5,0-.8-.4-.9-.8h0Z"/>
      <path class="st0" d="M147.5,40.9c0-.3.3-.6.6-.6.3,0,.6.3.6.6,0,.3-.3.6-.6.6-.3,0-.6-.3-.6-.6h0Z"/>
      <path class="st0" d="M147.5,36.7c0-.3.2-.5.5-.5.3,0,.5.2.5.5,0,.3-.2.5-.5.5-.3,0-.5-.2-.5-.5h0Z"/>
      <path class="st0" d="M147.5,32.7c0-.2.2-.4.4-.4.2,0,.4.2.4.4,0,.2-.2.4-.4.4-.2,0-.4-.2-.4-.4h0Z"/>
      <path class="st0" d="M147.5,28.9c0-.1.1-.2.2-.3.1,0,.2.1.3.2,0,.1-.1.2-.2.3-.1,0-.2-.1-.3-.2h0Z"/>
      <path class="st0" d="M138.6,79.1c-.5.7-.3,1.6.3,2.1.7.5,1.6.3,2.1-.3.5-.7.3-1.6-.3-2.1-.7-.5-1.6-.3-2.1.3h0Z"/>
      <path class="st0" d="M135.3,84.1c-.4.6-.3,1.4.3,1.8.6.4,1.4.3,1.8-.3.4-.6.3-1.4-.3-1.8-.6-.4-1.4-.3-1.8.3h0Z"/>
      <path class="st0" d="M132.2,88.7c-.3.5-.2,1.1.2,1.5.5.3,1.1.2,1.5-.2.3-.5.2-1.1-.2-1.5-.5-.3-1.1-.2-1.5.2h0Z"/>
      <path class="st0" d="M129.4,93c-.3.4-.2.9.2,1.2.4.3.9.2,1.2-.2.3-.4.2-.9-.2-1.2-.4-.3-.9-.2-1.2.2h0Z"/>
      <path class="st0" d="M126.9,96.8c-.2.3-.1.6.1.8.3.2.6.1.8-.1.2-.3.1-.6-.1-.8-.3-.2-.6-.1-.8.1h0Z"/>
      <path class="st0" d="M124.5,100.3c-.2.2-.1.5.1.7.2.2.5.1.7-.1.2-.2.1-.5-.1-.7-.2-.2-.5-.1-.7.1h0Z"/>
      <path class="st0" d="M122.3,103.6c-.1.2,0,.4,0,.5.2.1.4,0,.5,0,.1-.2,0-.4,0-.5-.2-.1-.4,0-.5,0h0Z"/>
      <path class="st0" d="M120.1,106.7c0,.1,0,.3,0,.3.1,0,.3,0,.3,0,0-.1,0-.3,0-.3-.1,0-.3,0-.3,0h0Z"/>
      <path class="st0" d="M156.2,79c.5.7.4,1.6-.3,2.2-.7.5-1.6.4-2.2-.3-.5-.7-.4-1.6.3-2.2.7-.5,1.6-.4,2.2.3h0Z"/>
      <path class="st0" d="M159.6,83.9c.4.6.3,1.4-.3,1.8-.6.4-1.4.3-1.8-.3-.4-.6-.3-1.4.3-1.8.6-.4,1.4-.3,1.8.3h0Z"/>
      <path class="st0" d="M162.8,88.5c.4.5.3,1.1-.2,1.5-.5.4-1.1.3-1.5-.2-.4-.5-.3-1.1.2-1.5.5-.4,1.1-.3,1.5.2h0Z"/>
      <path class="st0" d="M165.6,92.7c.3.4.2.9-.2,1.2-.4.3-.9.2-1.2-.2-.3-.4-.2-.9.2-1.2.4-.3.9-.2,1.2.2h0Z"/>
      <path class="st0" d="M168.2,96.5c.2.3.1.6-.1.8-.3.2-.6.1-.8-.1-.2-.3-.1-.6.1-.8.3-.2.6-.1.8.1h0Z"/>
      <path class="st0" d="M170.6,100c.2.2.1.5,0,.7-.2.2-.5.1-.7,0-.2-.2-.1-.5,0-.7.2-.2.5-.1.7,0h0Z"/>
      <path class="st0" d="M173,103.2c.1.2,0,.4,0,.5-.2.1-.4,0-.5,0-.1-.2,0-.4,0-.5.2-.1.4,0,.5,0h0Z"/>
      <path class="st0" d="M175.1,106.3c0,.1,0,.3,0,.3-.1,0-.3,0-.3,0,0-.1,0-.3,0-.3.1,0,.3,0,.3,0h0Z"/>
      <path class="st0" d="M138.6,67.8c-.8-.3-1.7.1-2,.9-.3.8.1,1.7.9,2,.8.3,1.7-.1,2-.9.3-.8-.1-1.7-.9-2h0Z"/>
      <path class="st0" d="M132.8,65.9c-.7-.3-1.4,0-1.7.8-.3.7,0,1.4.8,1.7.7.3,1.4,0,1.7-.8.3-.7,0-1.4-.8-1.7h0Z"/>
      <path class="st0" d="M127.6,64.2c-.6-.2-1.2,0-1.4.6-.2.6,0,1.2.6,1.4.6.2,1.2,0,1.4-.6.2-.6,0-1.2-.6-1.4h0Z"/>
      <path class="st0" d="M122.7,62.7c-.4-.2-.9,0-1.1.5-.2.4,0,.9.5,1.1.4.2.9,0,1.1-.5.2-.4,0-.9-.5-1.1h0Z"/>
      <path class="st0" d="M118.3,61.3c-.3-.1-.7,0-.8.4-.1.3,0,.7.4.8.3.1.7,0,.8-.4.1-.3,0-.7-.4-.8h0Z"/>
      <path class="st0" d="M114.3,59.9c-.2,0-.5,0-.6.3,0,.2,0,.5.3.6.2,0,.5,0,.6-.3,0-.2,0-.5-.3-.6h0Z"/>
      <path class="st0" d="M110.5,58.6c-.2,0-.4,0-.5.2,0,.2,0,.4.2.5.2,0,.4,0,.5-.2,0-.2,0-.4-.2-.5h0Z"/>
      <path class="st0" d="M107,57.4c-.1,0-.3,0-.3.1,0,.1,0,.3.1.3.1,0,.3,0,.3-.1,0-.1,0-.3-.1-.3h0Z"/>
    </g>
  </g>
</svg>