<svg xmlns="http://www.w3.org/2000/svg" viewBox="0 0 1080 1080" preserveAspectRatio="xMidYMid meet" version="1.2" xml:space="preserve"><title>CapeCoralReviewedLogo</title><rect id="b" x="2.72" y=".62" width="1082.68" height="1082.17" fill="#fff"></rect><path d="M133.15,627.18c0-.29.22-.53.51-.54.29,0,.53.22.54.51,0,.29-.22.53-.51.54-.29,0-.53-.22-.54-.51h0Z" fill="#f70" fill-rule="evenodd"></path><path d="M246.92,540.18c-47.48-23.94-88.38-42.06-128.27-71.55-54.51-40.3-51.71-92.28,85.45-70.19,54.27,8.74,108.58,14.75,159.67,13.46,120.27-3.04,92.7-132.18,111.04-229.34,25.89-137.2,102.92-79.46,109.07-8.29,12.82,148.34,47.65,228.18,110.05,238.75,71.4,12.09,168.3-2.51,239.05-6.24,99.58-5.24,91.86,56.14,23.96,86.46-69.02,30.83-147.21,64.53-187.24,76.8-72.39,22.17-64.41,71.71-31.26,134.48,29.25,55.36,64.83,130.18,82.23,168.74,25.41,56.31-14.47,108.82-86.88,36.29-198.42-198.76-221.09-190.37-369.76-39.82-131.59,133.26-169.99,75.47-120.38-17.41,68.84-128.86,149.22-238.57,3.25-312.15h0Z" fill="#d1462a" fill-rule="evenodd"></path><path d="M232.43,514.92c-46.79-19.9-100.2-44.98-123.65-66.2-13.87-12.54-13.36-35.36,2.48-43.62,13.98-7.29,39.09-6.94,66.69-2.5,54.26,8.74,156.33,47.13,207.42,45.85,96.78-2.44,95.29-115.1,98.62-208.98,1.24-34.93-1.35-129.65,46.54-129.8,28.84-.09,38.48,37.3,42.13,79.55,12.82,148.34,20.66,253.1,83.06,263.67,58.01,9.82,205.98-26.15,278.11-36.55,32.77-4.73,60.42-1,64.95,20.22,4.68,21.91-13.55,40.14-44.75,48.38-78.99,20.86-207.42,42.94-247.45,55.2-72.39,22.17-61.09,70.05-27.93,132.82,37.46,70.92,92.33,127.37,131.95,201.64,7.89,14.8,19.92,46.64.32,57.55-19.55,10.88-46.68-12.92-57.6-23.85-198.41-198.75-215.89-285.17-348.58-120.37-36.9,45.83-71.69,91.24-120.37,134.07-12.13,10.67-25.68,15.45-35.1,15.41-18.85-.08-25.42-24.73,4.38-80.52,30.06-56.28,88.62-143.34,107.76-191.48,27.98-70.36-3.69-97.21-128.98-150.49h0Z" fill="#ff5e4f" fill-rule="evenodd"></path><path d="M470.15,550.37c-5.03-2.86-5.63-8.17-1.08-10.83,2.73-1.59,6.64-1.68,14.42-1.24,29.09,1.64,36.74-8.58,41.77-32.36,2.01-9.5,5.49-11.34,9.43-10.94,4.47.46,6.01,4.35,6.95,10.72,4.61,31.36,24.71,36.02,49.58,36.58,5.59.13,9.27.09,10.46,3.5,1.53,4.38-2.58,8.39-9,11.25-28.66,12.75-31.83,15.45-20.66,54.68,2.52,8.84-1.32,14.41-13.28,5.11-32.59-25.34-40.37-14.93-58-3.52-3.99,2.59-8.73,6.17-12.79,6.05-4.06-.11-7.45-3.91-2.09-12.94,14.29-24.07,6-43.75-15.7-56.08h0Z" fill="#fff" fill-rule="evenodd"></path><path d="M644.74,497.82c8.51-1.85,16.91,3.54,18.77,12.05,1.85,8.51-3.54,16.91-12.05,18.77-8.51,1.85-16.91-3.54-18.77-12.05-1.85-8.51,3.54-16.91,12.05-18.77h0Z" fill="#fff" fill-rule="evenodd"></path><path d="M705.4,487.07c7.21-1.57,14.33,3,15.9,10.21,1.57,7.21-3,14.33-10.21,15.9-7.21,1.57-14.33-3-15.9-10.21-1.57-7.21,3-14.33,10.21-15.9h0Z" fill="#fff" fill-rule="evenodd"></path><path d="M761.35,477.35c5.91-1.29,11.74,2.46,13.03,8.37,1.29,5.91-2.46,11.74-8.37,13.03-5.91,1.29-11.74-2.46-13.03-8.37-1.29-5.91,2.46-11.74,8.37-13.03h0Z" fill="#fff" fill-rule="evenodd"></path><path d="M812.59,468.65c4.61-1,9.16,1.92,10.16,6.52,1,4.61-1.92,9.16-6.53,10.16-4.61,1-9.16-1.92-10.16-6.53-1-4.61,1.92-9.16,6.53-10.16h0Z" fill="#fff" fill-rule="evenodd"></path><path d="M859.12,460.98c3.31-.72,6.57,1.38,7.29,4.68.72,3.31-1.38,6.57-4.68,7.29-3.31.72-6.57-1.38-7.29-4.68-.72-3.31,1.38-6.57,4.68-7.29h0Z" fill="#fff" fill-rule="evenodd"></path><path d="M901.85,452.91c2.65-.58,5.28,1.1,5.86,3.76.58,2.65-1.11,5.28-3.76,5.86-2.65.58-5.28-1.11-5.86-3.76-.58-2.65,1.11-5.28,3.76-5.85h0Z" fill="#fff" fill-rule="evenodd"></path><path d="M942.23,445.35c2-.44,3.98.83,4.42,2.84.44,2.01-.84,3.98-2.84,4.42-2,.44-3.98-.83-4.42-2.84-.44-2,.83-3.98,2.84-4.42h0Z" fill="#fff" fill-rule="evenodd"></path><path d="M980.25,438.3c1.35-.3,2.69.57,2.99,1.92.3,1.35-.56,2.69-1.92,2.98-1.35.3-2.69-.56-2.98-1.92-.3-1.35.56-2.69,1.92-2.98h0Z" fill="#fff" fill-rule="evenodd"></path><path d="M520.93,465.75c-.2-8.71,6.69-15.93,15.4-16.14,8.71-.2,15.93,6.69,16.14,15.4.2,8.71-6.69,15.93-15.4,16.14-8.7.21-15.93-6.69-16.14-15.4h0Z" fill="#fff" fill-rule="evenodd"></path><path d="M521.9,404.15c-.17-7.38,5.67-13.5,13.05-13.67,7.38-.17,13.5,5.67,13.67,13.05.17,7.38-5.67,13.5-13.05,13.67-7.38.17-13.5-5.67-13.67-13.05h0Z" fill="#fff" fill-rule="evenodd"></path><path d="M522.98,347.37c-.14-6.05,4.64-11.06,10.69-11.2,6.05-.14,11.06,4.65,11.21,10.69.14,6.04-4.65,11.06-10.69,11.21-6.05.14-11.06-4.65-11.2-10.69h0Z" fill="#fff" fill-rule="evenodd"></path><path d="M524.18,295.41c-.11-4.71,3.62-8.63,8.34-8.74,4.71-.11,8.63,3.62,8.74,8.34.11,4.71-3.62,8.63-8.34,8.74-4.71.11-8.63-3.62-8.74-8.34h0Z" fill="#fff" fill-rule="evenodd"></path><path d="M525.49,248.27c-.08-3.38,2.6-6.19,5.98-6.27,3.38-.08,6.19,2.6,6.27,5.98.08,3.38-2.6,6.19-5.98,6.27-3.38.08-6.19-2.6-6.27-5.98h0Z" fill="#fff" fill-rule="evenodd"></path><path d="M525.68,204.78c-.06-2.72,2.09-4.97,4.8-5.03,2.72-.06,4.97,2.09,5.04,4.8.06,2.72-2.09,4.97-4.81,5.04-2.71.06-4.97-2.09-5.03-4.81h0Z" fill="#fff" fill-rule="evenodd"></path><path d="M525.92,163.7c-.05-2.05,1.58-3.75,3.63-3.8,2.05-.05,3.75,1.58,3.8,3.63.05,2.05-1.57,3.75-3.63,3.8-2.05.05-3.75-1.58-3.8-3.63h0Z" fill="#fff" fill-rule="evenodd"></path><path d="M526.22,125.04c-.03-1.39,1.07-2.53,2.45-2.57,1.39-.03,2.53,1.06,2.57,2.45.03,1.38-1.06,2.53-2.45,2.57-1.38.03-2.53-1.06-2.57-2.45h0Z" fill="#fff" fill-rule="evenodd"></path><path d="M435.07,639.67c-5.13,7.04-3.57,16.91,3.47,22.03,7.04,5.13,16.91,3.57,22.03-3.47,5.12-7.04,3.57-16.91-3.48-22.03-7.04-5.13-16.91-3.57-22.03,3.47h0Z" fill="#fff" fill-rule="evenodd"></path><path d="M400.8,690.86c-4.34,5.97-3.02,14.33,2.94,18.67,5.97,4.34,14.33,3.02,18.67-2.94,4.34-5.97,3.02-14.33-2.94-18.67-5.97-4.34-14.33-3.02-18.67,2.94h0Z" fill="#fff" fill-rule="evenodd"></path><path d="M369.37,738.17c-3.56,4.89-2.48,11.74,2.41,15.3,4.89,3.56,11.74,2.48,15.3-2.41,3.56-4.89,2.48-11.74-2.41-15.3-4.89-3.56-11.74-2.48-15.3,2.41h0Z" fill="#fff" fill-rule="evenodd"></path><path d="M340.77,781.57c-2.77,3.81-1.93,9.15,1.88,11.93,3.81,2.77,9.15,1.93,11.93-1.88,2.77-3.81,1.93-9.15-1.88-11.93-3.81-2.77-9.15-1.93-11.93,1.88h0Z" fill="#fff" fill-rule="evenodd"></path><path d="M315.02,821.06c-1.99,2.74-1.38,6.57,1.35,8.56,2.74,1.99,6.57,1.39,8.56-1.35,1.99-2.74,1.39-6.57-1.35-8.56-2.74-1.99-6.57-1.39-8.56,1.35h0Z" fill="#fff" fill-rule="evenodd"></path><path d="M290.42,856.93c-1.6,2.2-1.11,5.28,1.08,6.87,2.2,1.6,5.28,1.11,6.87-1.08,1.6-2.2,1.11-5.28-1.08-6.87-2.2-1.6-5.28-1.12-6.87,1.08h0Z" fill="#fff" fill-rule="evenodd"></path><path d="M267.23,890.84c-1.21,1.66-.84,3.98.82,5.19,1.66,1.21,3.98.84,5.19-.82,1.21-1.66.84-3.98-.82-5.19-1.66-1.21-3.98-.84-5.19.82h0Z" fill="#fff" fill-rule="evenodd"></path><path d="M245.47,922.8c-.82,1.12-.57,2.69.55,3.5,1.12.82,2.69.57,3.5-.55.81-1.12.57-2.69-.55-3.5-1.12-.81-2.69-.57-3.5.55h0Z" fill="#fff" fill-rule="evenodd"></path><path d="M615.02,638.5c5.24,6.96,3.84,16.85-3.12,22.09-6.96,5.24-16.85,3.84-22.09-3.12-5.24-6.96-3.84-16.85,3.12-22.09,6.96-5.24,16.85-3.84,22.09,3.12h0Z" fill="#fff" fill-rule="evenodd"></path><path d="M650.12,689.14c4.44,5.9,3.26,14.28-2.64,18.71-5.9,4.44-14.28,3.26-18.71-2.64-4.44-5.9-3.25-14.28,2.64-18.71,5.9-4.44,14.28-3.26,18.71,2.64h0Z" fill="#fff" fill-rule="evenodd"></path><path d="M682.31,735.92c3.64,4.83,2.67,11.7-2.16,15.34-4.83,3.64-11.7,2.67-15.34-2.16-3.64-4.83-2.67-11.7,2.16-15.34,4.83-3.64,11.7-2.67,15.33,2.16h0Z" fill="#fff" fill-rule="evenodd"></path><path d="M711.61,778.85c2.84,3.77,2.08,9.12-1.69,11.96-3.77,2.84-9.12,2.08-11.96-1.69-2.84-3.77-2.08-9.12,1.69-11.96,3.77-2.84,9.12-2.08,11.96,1.69h0Z" fill="#fff" fill-rule="evenodd"></path><path d="M738,817.93c2.04,2.7,1.49,6.55-1.21,8.58-2.7,2.03-6.55,1.49-8.58-1.21-2.03-2.7-1.49-6.55,1.21-8.58,2.7-2.03,6.55-1.49,8.58,1.21h0Z" fill="#fff" fill-rule="evenodd"></path><path d="M763.18,853.39c1.63,2.17,1.2,5.26-.97,6.89-2.17,1.63-5.26,1.2-6.89-.97-1.63-2.17-1.2-5.26.97-6.89,2.17-1.63,5.26-1.2,6.89.97h0Z" fill="#fff" fill-rule="evenodd"></path><path d="M786.91,886.92c1.23,1.64.9,3.97-.73,5.2-1.64,1.23-3.97.91-5.2-.73-1.23-1.64-.91-3.97.73-5.2,1.64-1.23,3.97-.9,5.2.73h0Z" fill="#fff" fill-rule="evenodd"></path><path d="M809.19,918.53c.83,1.11.61,2.68-.5,3.51-1.11.83-2.68.61-3.51-.5-.83-1.11-.61-2.68.5-3.51,1.11-.83,2.68-.61,3.51.5h0Z" fill="#fff" fill-rule="evenodd"></path><path d="M434.21,523.49c-8.17-3.03-17.24,1.14-20.27,9.3-3.03,8.17,1.14,17.24,9.3,20.27,8.17,3.03,17.24-1.14,20.27-9.3,3.03-8.17-1.14-17.24-9.3-20.27h0Z" fill="#fff" fill-rule="evenodd"></path><path d="M375.65,504.34c-6.92-2.57-14.61.96-17.18,7.88-2.57,6.92.96,14.61,7.88,17.18,6.92,2.57,14.61-.96,17.18-7.88,2.57-6.92-.96-14.61-7.88-17.18h0Z" fill="#fff" fill-rule="evenodd"></path><path d="M321.61,486.86c-5.67-2.1-11.97.79-14.08,6.46-2.1,5.67.79,11.97,6.46,14.08,5.67,2.1,11.97-.79,14.08-6.46,2.1-5.67-.79-11.97-6.46-14.08h0Z" fill="#fff" fill-rule="evenodd"></path><path d="M272.1,471.07c-4.42-1.64-9.34.62-10.98,5.04-1.64,4.42.62,9.34,5.04,10.98,4.42,1.64,9.34-.62,10.98-5.04,1.64-4.42-.62-9.34-5.04-10.98h0Z" fill="#fff" fill-rule="evenodd"></path><path d="M227.1,456.95c-3.17-1.18-6.7.44-7.88,3.61-1.18,3.17.44,6.7,3.61,7.88,3.17,1.18,6.7-.44,7.87-3.61,1.18-3.17-.44-6.7-3.61-7.87h0Z" fill="#fff" fill-rule="evenodd"></path><path d="M185.92,442.97c-2.55-.94-5.38.35-6.33,2.9-.94,2.55.35,5.38,2.9,6.33,2.55.94,5.38-.35,6.33-2.9.94-2.55-.36-5.38-2.9-6.33h0Z" fill="#fff" fill-rule="evenodd"></path><path d="M147.01,429.82c-1.92-.71-4.06.27-4.77,2.19-.71,1.92.27,4.06,2.19,4.77,1.92.71,4.06-.27,4.77-2.19.71-1.92-.27-4.06-2.19-4.77h0Z" fill="#fff" fill-rule="evenodd"></path><path d="M110.35,417.5c-1.3-.48-2.74.18-3.22,1.48-.48,1.3.18,2.74,1.48,3.22,1.3.48,2.74-.18,3.22-1.48.48-1.3-.18-2.74-1.48-3.22h0Z" fill="#fff" fill-rule="evenodd"></path></svg>