<?xml version="1.0" encoding="UTF-8"?>
<svg id="Layer_1" xmlns="http://www.w3.org/2000/svg" version="1.1" viewBox="0 0 1080 1080">
  <!-- Generator: Adobe Illustrator 30.1.0, SVG Export Plug-In . SVG Version: 2.1.1 Build 136)  -->
  <defs>
    <style>
      .st0 {
        fill: #e94f37;
        fill-rule: evenodd;
      }
    </style>
  </defs>
  <circle cx="546.7" cy="541.8" r="529.3"/>
  <path class="st0" d="M938.3,376.9c-70.8,3.7-167.7,18.3-239,6.2-62.4-10.6-97.2-90.4-110.1-238.8-6.2-71.2-83.2-128.9-109.1,8.3-18.3,97.2,9.2,226.3-111,229.3-51.1,1.3-105.4-4.7-159.7-13.5-137.2-22.1-140,29.9-85.4,70.2,39.9,29.5,80.8,47.6,128.3,71.5h0c146,73.6,65.6,183.3-3.2,312.1-49.6,92.9-11.2,150.7,120.4,17.4,148.7-150.5,171.3-158.9,369.8,39.8,72.4,72.5,112.3,20,86.9-36.3-17.4-38.6-53-113.4-82.2-168.7-33.2-62.8-41.1-112.3,31.3-134.5,40-12.3,118.2-46,187.2-76.8,67.9-30.3,75.6-91.7-24-86.5ZM117.1,390.9c-.5,1.3-1.9,2-3.2,1.5-1.3-.5-2-1.9-1.5-3.2.5-1.3,1.9-2,3.2-1.5,1.3.5,2,1.9,1.5,3.2ZM154.5,404.8c-.7,1.9-2.9,2.9-4.8,2.2-1.9-.7-2.9-2.8-2.2-4.8.7-1.9,2.8-2.9,4.8-2.2,1.9.7,2.9,2.8,2.2,4.8ZM194.1,419.5c-.9,2.5-3.8,3.8-6.3,2.9-2.5-1-3.8-3.8-2.9-6.3.9-2.5,3.8-3.8,6.3-2.9,2.5.9,3.8,3.8,2.9,6.3ZM236,435c-1.2,3.2-4.7,4.8-7.9,3.6-3.2-1.2-4.8-4.7-3.6-7.9,1.2-3.2,4.7-4.8,7.9-3.6h0c3.2,1.2,4.8,4.7,3.6,7.9ZM282.4,452.2c-1.6,4.4-6.6,6.7-11,5-4.4-1.6-6.7-6.6-5-11,1.6-4.4,6.6-6.7,11-5,4.4,1.6,6.7,6.6,5,11ZM254.8,895.9c-.8,1.1-2.4,1.4-3.5.5-1.1-.8-1.4-2.4-.5-3.5.8-1.1,2.4-1.4,3.5-.5,1.1.8,1.4,2.4.5,3.5ZM278.5,865.4c-1.2,1.7-3.5,2-5.2.8s-2-3.5-.8-5.2c1.2-1.7,3.5-2,5.2-.8,1.7,1.2,2,3.5.8,5.2ZM303.7,832.9c-1.6,2.2-4.7,2.7-6.9,1.1-2.2-1.6-2.7-4.7-1.1-6.9,1.6-2.2,4.7-2.7,6.9-1.1,2.2,1.6,2.7,4.7,1.1,6.9ZM330.2,798.4c-2,2.7-5.8,3.3-8.6,1.3-2.7-2-3.3-5.8-1.3-8.6s5.8-3.3,8.6-1.3,3.3,5.8,1.4,8.6ZM534,92.6c1.4,0,2.5,1.1,2.6,2.5,0,1.4-1.1,2.5-2.5,2.6-1.4,0-2.5-1.1-2.6-2.5,0-1.4,1.1-2.5,2.5-2.6ZM534.8,130.1c2.1,0,3.8,1.6,3.8,3.6s-1.6,3.8-3.6,3.8c-2,0-3.8-1.6-3.8-3.6,0-2,1.6-3.8,3.6-3.8ZM531,174.9c0-2.7,2.1-5,4.8-5,2.7,0,5,2.1,5,4.8,0,2.7-2.1,5-4.8,5-2.7,0-5-2.1-5-4.8h0ZM536.8,212.2c3.4,0,6.2,2.6,6.3,6s-2.6,6.2-6,6.3c-3.4,0-6.2-2.6-6.3-6s2.6-6.2,6-6.3ZM537.8,256.8c4.7-.1,8.6,3.6,8.7,8.3.1,4.7-3.6,8.6-8.3,8.7-4.7.1-8.6-3.6-8.7-8.3-.1-4.7,3.6-8.6,8.3-8.7ZM539,306.3c6-.1,11.1,4.7,11.2,10.7.1,6-4.7,11.1-10.7,11.2-6.1.1-11.1-4.7-11.2-10.7h0c-.1-6.1,4.6-11.1,10.7-11.2ZM540.2,360.6c7.4-.2,13.5,5.7,13.7,13,.2,7.4-5.7,13.5-13.1,13.7-7.4.2-13.5-5.7-13.7-13-.2-7.4,5.7-13.5,13.1-13.7ZM541.6,419.8c8.7-.2,15.9,6.7,16.1,15.4.2,8.7-6.7,15.9-15.4,16.1-8.7.2-15.9-6.7-16.1-15.4-.2-8.7,6.7-15.9,15.4-16.1ZM333.4,471.1c-2.1,5.7-8.4,8.6-14.1,6.5-5.7-2.1-8.6-8.4-6.5-14.1,2.1-5.7,8.4-8.6,14.1-6.5,5.7,2.1,8.6,8.4,6.5,14.1ZM359.9,761.8c-2.8,3.8-8.1,4.7-11.9,1.9-3.8-2.8-4.7-8.1-1.9-11.9,2.8-3.8,8.1-4.7,11.9-1.9,3.8,2.8,4.6,8.1,1.9,11.9ZM363.8,482.4c2.6-6.9,10.3-10.4,17.2-7.9h0c6.9,2.6,10.4,10.3,7.9,17.2s-10.3,10.5-17.2,7.9c-6.9-2.6-10.4-10.3-7.9-17.2ZM392.4,721.2c-3.6,4.9-10.4,6-15.3,2.4s-6-10.4-2.4-15.3c3.6-4.9,10.4-6,15.3-2.4,4.9,3.6,6,10.4,2.4,15.3ZM427.7,676.8c-4.3,6-12.7,7.3-18.7,2.9-6-4.3-7.3-12.7-2.9-18.7,4.3-6,12.7-7.3,18.7-2.9,6,4.3,7.3,12.7,2.9,18.7ZM428.5,523.2c-8.2-3-12.3-12.1-9.3-20.3,3-8.2,12.1-12.3,20.3-9.3,8.2,3,12.3,12.1,9.3,20.3-3,8.2-12.1,12.3-20.3,9.3ZM465.9,628.4c-5.1,7-15,8.6-22,3.5-7-5.1-8.6-15-3.5-22h0c5.1-7,15-8.6,22-3.5,7.1,5.1,8.6,15,3.5,22ZM561.4,576.3c-32.6-25.3-40.4-14.9-58-3.5-4,2.6-8.7,6.2-12.8,6-4.1-.1-7.4-3.9-2.1-12.9,14.3-24.1,6-43.8-15.7-56.1h0c-5-2.8-5.6-8.1-1.1-10.8,2.7-1.6,6.6-1.7,14.4-1.2,29.1,1.6,36.7-8.6,41.8-32.4,2-9.5,5.5-11.3,9.4-10.9,4.5.5,6,4.4,7,10.7,4.6,31.4,24.7,36,49.6,36.6,5.6.1,9.3,0,10.5,3.5,1.5,4.4-2.6,8.4-9,11.2-28.7,12.8-31.8,15.5-20.7,54.7,2.5,8.8-1.3,14.4-13.3,5.1ZM617.2,630.8c-7,5.2-16.8,3.8-22.1-3.1-5.2-7-3.8-16.8,3.1-22.1,7-5.2,16.8-3.8,22.1,3.1,5.2,7,3.8,16.8-3.1,22.1ZM652.8,678c-5.9,4.4-14.3,3.3-18.7-2.6-4.4-5.9-3.2-14.3,2.6-18.7,5.9-4.4,14.3-3.3,18.7,2.6,4.4,5.9,3.3,14.3-2.6,18.7ZM656.7,498.8c-8.5,1.8-16.9-3.5-18.8-12-1.9-8.5,3.5-16.9,12-18.8h0c8.5-1.9,16.9,3.5,18.8,12,1.8,8.5-3.5,16.9-12,18.8ZM685.4,721.4c-4.8,3.6-11.7,2.7-15.3-2.2-3.6-4.8-2.7-11.7,2.2-15.3s11.7-2.7,15.3,2.2h0c3.6,4.8,2.7,11.7-2.2,15.3ZM811,888.2c1.1-.8,2.7-.6,3.5.5.8,1.1.6,2.7-.5,3.5-1.1.8-2.7.6-3.5-.5-.8-1.1-.6-2.7.5-3.5ZM787,856.4c1.6-1.2,4-.9,5.2.7,1.2,1.6.9,4-.7,5.2-1.6,1.2-4,.9-5.2-.7-1.2-1.6-.9-4,.7-5.2ZM761.6,822.6c2.2-1.6,5.3-1.2,6.9,1,1.6,2.2,1.2,5.3-1,6.9-2.2,1.6-5.3,1.2-6.9-1-1.6-2.2-1.2-5.3,1-6.9ZM734.7,786.9c2.7-2,6.5-1.5,8.6,1.2,2,2.7,1.5,6.5-1.2,8.6-2.7,2-6.5,1.5-8.6-1.2s-1.5-6.5,1.2-8.6ZM715.2,761c-3.8,2.8-9.1,2.1-12-1.7s-2.1-9.1,1.7-12,9.1-2.1,12,1.7,2.1,9.1-1.7,12ZM716.4,483.3c-7.2,1.6-14.3-3-15.9-10.2-1.6-7.2,3-14.3,10.2-15.9s14.3,3,15.9,10.2c1.6,7.2-3,14.3-10.2,15.9ZM771.3,468.9c-5.9,1.3-11.7-2.5-13-8.4-1.3-5.9,2.5-11.7,8.4-13,5.9-1.3,11.7,2.5,13,8.4,1.3,5.9-2.5,11.7-8.4,13ZM821.5,455.5c-4.6,1-9.2-1.9-10.2-6.5s1.9-9.2,6.5-10.2h0c4.6-1,9.2,1.9,10.2,6.5,1,4.6-1.9,9.2-6.5,10.2ZM867,443.1c-3.3.7-6.6-1.4-7.3-4.7-.7-3.3,1.4-6.6,4.7-7.3,3.3-.7,6.6,1.4,7.3,4.7.7,3.3-1.4,6.6-4.7,7.3ZM909.2,432.7c-2.7.6-5.3-1.1-5.9-3.8-.6-2.7,1.1-5.3,3.8-5.9h0c2.7-.6,5.3,1.1,5.9,3.8.6,2.6-1.1,5.3-3.8,5.9ZM949.1,422.8c-2,.4-4-.8-4.4-2.8-.4-2,.8-4,2.8-4.4,2-.4,4,.8,4.4,2.8s-.8,4-2.8,4.4ZM986.6,413.4c-1.3.3-2.7-.6-3-1.9-.3-1.4.6-2.7,1.9-3h0c1.3-.3,2.7.6,3,1.9.3,1.3-.6,2.7-1.9,3Z"/>
</svg>