<svg width="363" height="513" viewBox="0 0 363 513" fill="none" xmlns="http://www.w3.org/2000/svg">
<path d="M132.058 168.862C145.64 168.862 158.36 172.632 169.209 179.166C168.633 174.676 168.317 170.099 168.317 165.437C168.317 106.089 216.403 57.9949 275.741 57.9949C305.094 57.9949 331.655 69.7666 351.05 88.8488C364.058 76.0986 381.842 68.2412 401.496 68.2412C403.683 68.2412 405.842 68.3563 407.971 68.5578C409.813 30.3646 441.324 0 479.942 0C518.561 0 552 32.2642 552 72.0692C552 111.874 519.741 144.138 479.942 144.138C477.755 144.138 475.597 144.023 473.468 143.822C471.626 181.986 440.115 212.351 401.496 212.351C392.029 212.351 383.022 210.509 374.763 207.199C358.475 245.795 320.259 272.878 275.741 272.878C248.144 272.878 222.993 262.459 203.971 245.363C201.669 283.096 170.36 312.971 132.058 312.971C93.7554 312.971 60 280.707 60 240.902C60 201.097 92.259 168.833 132.058 168.833V168.862Z" fill="url(#paint0_linear_103_106)"/>
<path d="M72.0576 368.862C85.6403 368.862 98.3597 372.632 109.209 379.166C108.633 374.676 108.317 370.099 108.317 365.437C108.317 306.089 156.403 257.995 215.741 257.995C245.094 257.995 271.655 269.767 291.05 288.849C304.058 276.099 321.842 268.241 341.496 268.241C343.683 268.241 345.842 268.356 347.971 268.558C349.813 230.365 381.324 200 419.942 200C458.561 200 492 232.264 492 272.069C492 311.874 459.741 344.138 419.942 344.138C417.755 344.138 415.597 344.023 413.468 343.822C411.626 381.986 380.115 412.351 341.496 412.351C332.029 412.351 323.022 410.509 314.763 407.199C298.475 445.795 260.259 472.878 215.741 472.878C188.144 472.878 162.993 462.459 143.971 445.363C141.669 483.096 110.36 512.971 72.0576 512.971C33.7554 512.971 1.96543e-05 480.707 1.96543e-05 440.902C1.96543e-05 401.097 32.259 368.833 72.0576 368.833V368.862Z" fill="url(#paint1_linear_103_106)"/>
<defs>
<linearGradient id="paint0_linear_103_106" x1="250.935" y1="13.1244" x2="338.125" y2="240" gradientUnits="userSpaceOnUse">
<stop stop-color="white"/>
<stop offset="0.46" stop-color="#FFE3A1"/>
<stop offset="0.7" stop-color="#F7941D"/>
<stop offset="1" stop-color="#EC008C" stop-opacity="0"/>
</linearGradient>
<linearGradient id="paint1_linear_103_106" x1="190.935" y1="213.124" x2="278.125" y2="440" gradientUnits="userSpaceOnUse">
<stop stop-color="white"/>
<stop offset="0.46" stop-color="#FFE3A1"/>
<stop offset="0.7" stop-color="#F7941D"/>
<stop offset="1" stop-color="#EC008C" stop-opacity="0"/>
</linearGradient>
</defs>
</svg>
