<svg width="420" height="513" viewBox="0 0 420 513" fill="none" xmlns="http://www.w3.org/2000/svg">
<path d="M287.942 168.862C274.36 168.862 261.64 172.632 250.791 179.166C251.367 174.676 251.683 170.099 251.683 165.437C251.683 106.089 203.597 57.9949 144.259 57.9949C114.906 57.9949 88.3453 69.7666 68.9496 88.8488C55.9424 76.0986 38.1583 68.2412 18.5036 68.2412C16.3165 68.2412 14.1583 68.3563 12.0288 68.5578C10.187 30.3646 -21.3237 0 -59.9424 0C-98.5612 0 -132 32.2642 -132 72.0692C-132 111.874 -99.741 144.138 -59.9424 144.138C-57.7554 144.138 -55.5971 144.023 -53.4676 143.822C-51.6259 181.986 -20.1151 212.351 18.5036 212.351C27.9712 212.351 36.9784 210.509 45.2374 207.199C61.5252 245.795 99.741 272.878 144.259 272.878C171.856 272.878 197.007 262.459 216.029 245.363C218.331 283.096 249.64 312.971 287.942 312.971C326.245 312.971 360 280.707 360 240.902C360 201.097 327.741 168.833 287.942 168.833V168.862Z" fill="url(#paint0_linear_103_105)"/>
<path d="M347.942 368.862C334.36 368.862 321.64 372.632 310.791 379.166C311.367 374.676 311.683 370.099 311.683 365.437C311.683 306.089 263.597 257.995 204.259 257.995C174.906 257.995 148.345 269.767 128.95 288.849C115.942 276.099 98.1583 268.241 78.5036 268.241C76.3165 268.241 74.1583 268.356 72.0288 268.558C70.187 230.365 38.6763 200 0.0575532 200C-38.5612 200 -72 232.264 -72 272.069C-72 311.874 -39.741 344.138 0.0575532 344.138C2.2446 344.138 4.40288 344.023 6.53237 343.822C8.3741 381.986 39.8849 412.351 78.5036 412.351C87.9712 412.351 96.9784 410.509 105.237 407.199C121.525 445.795 159.741 472.878 204.259 472.878C231.856 472.878 257.007 462.459 276.029 445.363C278.331 483.096 309.64 512.971 347.942 512.971C386.245 512.971 420 480.707 420 440.902C420 401.097 387.741 368.833 347.942 368.833V368.862Z" fill="url(#paint1_linear_103_105)"/>
<defs>
<linearGradient id="paint0_linear_103_105" x1="169.065" y1="13.1244" x2="81.8748" y2="240" gradientUnits="userSpaceOnUse">
<stop stop-color="white"/>
<stop offset="0.46" stop-color="#FFE3A1"/>
<stop offset="0.7" stop-color="#F7941D"/>
<stop offset="1" stop-color="#EC008C" stop-opacity="0"/>
</linearGradient>
<linearGradient id="paint1_linear_103_105" x1="229.065" y1="213.124" x2="141.875" y2="440" gradientUnits="userSpaceOnUse">
<stop stop-color="white"/>
<stop offset="0.46" stop-color="#FFE3A1"/>
<stop offset="0.7" stop-color="#F7941D"/>
<stop offset="1" stop-color="#EC008C" stop-opacity="0"/>
</linearGradient>
</defs>
</svg>
