<svg width="444" height="249" viewBox="0 0 444 249" fill="none" xmlns="http://www.w3.org/2000/svg">
<path d="M132.058 167.033C145.64 167.033 158.36 165.203 169.209 162.032C168.633 164.211 168.317 166.433 168.317 168.696C168.317 197.504 216.403 220.849 275.741 220.849C305.094 220.849 331.655 215.135 351.05 205.872C364.058 212.061 381.842 215.875 401.496 215.875C403.683 215.875 405.842 215.819 407.971 215.722C409.813 234.261 441.324 249 479.942 249C518.561 249 552 233.339 552 214.017C552 194.695 519.741 179.034 479.942 179.034C477.755 179.034 475.597 179.09 473.468 179.188C471.626 160.663 440.115 145.923 401.496 145.923C392.029 145.923 383.022 146.818 374.763 148.424C358.475 129.689 320.259 116.543 275.741 116.543C248.144 116.543 222.993 121.6 203.971 129.899C201.669 111.583 170.36 97.0815 132.058 97.0815C93.7554 97.0815 60 112.743 60 132.064C60 151.386 92.259 167.047 132.058 167.047V167.033Z" fill="url(#paint0_linear_109_112)" fill-opacity="0.2"/>
<path d="M72.0576 69.9519C85.6403 69.9519 98.3597 68.1217 109.209 64.9503C108.633 67.1298 108.317 69.3511 108.317 71.6144C108.317 100.422 156.403 123.767 215.741 123.767C245.094 123.767 271.655 118.053 291.05 108.791C304.058 114.98 321.842 118.794 341.496 118.794C343.683 118.794 345.842 118.738 347.971 118.64C349.813 137.179 381.324 151.919 419.942 151.919C458.561 151.919 492 136.257 492 116.936C492 97.6141 459.741 81.9528 419.942 81.9528C417.755 81.9528 415.597 82.0087 413.468 82.1065C411.626 63.5812 380.115 48.842 341.496 48.842C332.029 48.842 323.022 49.7361 314.763 51.3428C298.475 32.6079 260.259 19.4614 215.741 19.4614C188.144 19.4614 162.993 24.5188 143.971 32.8175C141.669 14.5017 110.36 4.4095e-05 72.0576 4.4095e-05C33.7554 4.4095e-05 1.96543e-05 15.6613 1.96543e-05 34.9829C1.96543e-05 54.3046 32.259 69.9658 72.0576 69.9658V69.9519Z" fill="url(#paint1_linear_109_112)" fill-opacity="0.2"/>
<defs>
<linearGradient id="paint0_linear_109_112" x1="250.935" y1="242.629" x2="273.72" y2="120.488" gradientUnits="userSpaceOnUse">
<stop stop-color="white"/>
<stop offset="0.46" stop-color="#FFE3A1"/>
<stop offset="0.7" stop-color="#F7941D"/>
<stop offset="1" stop-color="#EC008C" stop-opacity="0"/>
</linearGradient>
<linearGradient id="paint1_linear_109_112" x1="190.935" y1="145.548" x2="213.72" y2="23.4062" gradientUnits="userSpaceOnUse">
<stop stop-color="white"/>
<stop offset="0.46" stop-color="#FFE3A1"/>
<stop offset="0.7" stop-color="#F7941D"/>
<stop offset="1" stop-color="#EC008C" stop-opacity="0"/>
</linearGradient>
</defs>
</svg>
