<svg width="480" height="249" viewBox="0 0 480 249" fill="none" xmlns="http://www.w3.org/2000/svg">
<path d="M347.942 167.033C334.36 167.033 321.64 165.203 310.791 162.032C311.367 164.211 311.683 166.433 311.683 168.696C311.683 197.504 263.597 220.849 204.259 220.849C174.906 220.849 148.345 215.135 128.95 205.872C115.942 212.061 98.1583 215.875 78.5036 215.875C76.3165 215.875 74.1583 215.819 72.0288 215.722C70.187 234.261 38.6763 249 0.0575532 249C-38.5612 249 -72 233.339 -72 214.017C-72 194.695 -39.741 179.034 0.0575532 179.034C2.2446 179.034 4.40288 179.09 6.53237 179.188C8.3741 160.663 39.8849 145.923 78.5036 145.923C87.9712 145.923 96.9784 146.818 105.237 148.424C121.525 129.689 159.741 116.543 204.259 116.543C231.856 116.543 257.007 121.6 276.029 129.899C278.331 111.583 309.64 97.0815 347.942 97.0815C386.245 97.0815 420 112.743 420 132.064C420 151.386 387.741 167.047 347.942 167.047V167.033Z" fill="url(#paint0_linear_109_109)" fill-opacity="0.2"/>
<path d="M407.942 69.9519C394.36 69.9519 381.64 68.1217 370.791 64.9503C371.367 67.1298 371.683 69.3511 371.683 71.6144C371.683 100.422 323.597 123.767 264.259 123.767C234.906 123.767 208.345 118.053 188.95 108.791C175.942 114.98 158.158 118.794 138.504 118.794C136.317 118.794 134.158 118.738 132.029 118.64C130.187 137.179 98.6763 151.919 60.0576 151.919C21.4388 151.919 -12 136.257 -12 116.936C-12 97.6141 20.259 81.9528 60.0576 81.9528C62.2446 81.9528 64.4029 82.0087 66.5324 82.1065C68.3741 63.5812 99.8849 48.842 138.504 48.842C147.971 48.842 156.978 49.7361 165.237 51.3428C181.525 32.6079 219.741 19.4614 264.259 19.4614C291.856 19.4614 317.007 24.5188 336.029 32.8175C338.331 14.5017 369.64 4.4095e-05 407.942 4.4095e-05C446.245 4.4095e-05 480 15.6613 480 34.9829C480 54.3046 447.741 69.9658 407.942 69.9658V69.9519Z" fill="url(#paint1_linear_109_109)" fill-opacity="0.2"/>
<defs>
<linearGradient id="paint0_linear_109_109" x1="229.065" y1="242.629" x2="206.28" y2="120.488" gradientUnits="userSpaceOnUse">
<stop stop-color="white"/>
<stop offset="0.46" stop-color="#FFE3A1"/>
<stop offset="0.7" stop-color="#F7941D"/>
<stop offset="1" stop-color="#EC008C" stop-opacity="0"/>
</linearGradient>
<linearGradient id="paint1_linear_109_109" x1="289.065" y1="145.548" x2="266.28" y2="23.4062" gradientUnits="userSpaceOnUse">
<stop stop-color="white"/>
<stop offset="0.46" stop-color="#FFE3A1"/>
<stop offset="0.7" stop-color="#F7941D"/>
<stop offset="1" stop-color="#EC008C" stop-opacity="0"/>
</linearGradient>
</defs>
</svg>
