<?xml version="1.0" encoding="UTF-8"?>
<svg id="Layer_1" xmlns="http://www.w3.org/2000/svg" version="1.1" viewBox="0 0 200 200">
  <!-- Generator: Adobe Illustrator 30.1.0, SVG Export Plug-In . SVG Version: 2.1.1 Build 136)  -->
  <defs>
    <style>
      .st0 {
        fill: #efac52;
      }

      .st1 {
        fill: #5fa324;
      }

      .st2 {
        fill: #a14d39;
      }

      .st3 {
        fill: #fadcb2;
      }

      .st4 {
        fill: #feb502;
      }

      .st5 {
        fill: #e54c4c;
      }
    </style>
  </defs>
  <path class="st0" d="M173.3,147.4c0-6-32.8-10.9-73.3-10.9s-73.3,4.9-73.3,10.9h0v8.2s0,0,0,.1c0,0,0,0,0,.1h0v8.2c0,6,32.8,10.9,73.3,10.9s73.3-4.9,73.3-10.9v-8.2s0,0,0-.1c0,0,0,0,0-.1v-8.2Z"/>
  <path class="st1" d="M167.8,138.1c0-5.6-30.3-10.1-67.8-10.1s-67.8,4.5-67.8,10.1h0v7.6c0,5.6,30.3,10.1,67.8,10.1s67.8-4.5,67.8-10.1v-7.6h0Z"/>
  <path class="st2" d="M173.3,119.3c0-6-32.8-10.9-73.3-10.9s-73.3,4.9-73.3,10.9h0v8.2s0,0,0,.1c0,0,0,0,0,.1h0v8.2c0,6,32.8,10.9,73.3,10.9s73.3-4.9,73.3-10.9v-8.2s0,0,0-.1c0,0,0,0,0-.1v-8.2Z"/>
  <path class="st4" d="M129.5,145.7c-18.1,11.2-41,11.2-59.1,0l-44.3-27.4c-2.7-1.3-2.2-5.3.7-5.8l73.1-13.9,73.1,13.9c2.9.6,3.4,4.5.7,5.8l-44.3,27.4Z"/>
  <path class="st5" d="M167.8,108.7c0-5.6-30.3-10.1-67.8-10.1s-67.8,4.5-67.8,10.1h0v7.6c0,5.6,30.3,10.1,67.8,10.1s67.8-4.5,67.8-10.1v-7.6h0Z"/>
  <path class="st0" d="M177.6,82.7c0-31.9-34.7-57.7-77.6-57.7S22.4,50.8,22.4,82.7s34.7,36.1,77.6,36.1,77.6-4.2,77.6-36.1Z"/>
  <path class="st3" d="M80.9,51.1c0-2-1.7-3.7-3.7-3.7s-3.7,1.7-3.7,3.7,1.7,3.7,3.7,3.7,3.7-1.7,3.7-3.7Z"/>
  <path class="st3" d="M88.3,32.4c0-2-1.7-3.7-3.7-3.7s-3.7,1.7-3.7,3.7,1.7,3.7,3.7,3.7,3.7-1.7,3.7-3.7Z"/>
  <path class="st3" d="M103.7,66.3c0-2-1.7-3.7-3.7-3.7s-3.7,1.7-3.7,3.7,1.7,3.7,3.7,3.7,3.7-1.7,3.7-3.7Z"/>
  <path class="st3" d="M52.1,47.4c0-2-1.7-3.7-3.7-3.7s-3.7,1.7-3.7,3.7,1.7,3.7,3.7,3.7,3.7-1.7,3.7-3.7Z"/>
  <path class="st3" d="M167.8,73.7c0-2-1.7-3.7-3.7-3.7s-3.7,1.7-3.7,3.7,1.7,3.7,3.7,3.7,3.7-1.7,3.7-3.7Z"/>
  <path class="st3" d="M52.1,70c0-2-1.7-3.7-3.7-3.7s-3.7,1.7-3.7,3.7,1.7,3.7,3.7,3.7,3.7-1.7,3.7-3.7Z"/>
  <path class="st3" d="M107.4,41.8c0-2-1.7-3.7-3.7-3.7s-3.7,1.7-3.7,3.7,1.7,3.7,3.7,3.7,3.7-1.7,3.7-3.7Z"/>
  <path class="st3" d="M153.7,49.2c0-2-1.7-3.7-3.7-3.7s-3.7,1.7-3.7,3.7,1.7,3.7,3.7,3.7,3.7-1.7,3.7-3.7Z"/>
  <path class="st3" d="M132.8,56.6c0-2-1.7-3.7-3.7-3.7s-3.7,1.7-3.7,3.7,1.7,3.7,3.7,3.7,3.7-1.7,3.7-3.7Z"/>
</svg>