<?xml version="1.0" encoding="UTF-8"?>
<svg id="Layer_1" xmlns="http://www.w3.org/2000/svg" version="1.1" viewBox="0 0 200 200">
  <!-- Generator: Adobe Illustrator 30.1.0, SVG Export Plug-In . SVG Version: 2.1.1 Build 136)  -->
  <defs>
    <style>
      .st0 {
        fill: #fce4c3;
      }

      .st1 {
        fill: #e5a44e;
      }

      .st2 {
        fill: #fff0de;
      }

      .st3 {
        fill: #f1b65c;
      }
    </style>
  </defs>
  <g>
    <path class="st1" d="M114.2,192h-28.4c-3.3,0-6.1-2.4-6.6-5.7l-7.9-50.5h57.4l-7.9,50.5c-.5,3.3-3.3,5.7-6.6,5.7Z"/>
    <path class="st0" d="M57.1,75.9c-3.3-3.1-5.3-7.5-5.1-12.4.4-8.5,7.7-15.2,16.3-15.2h1.8c-2-2.3-3.1-5.3-2.9-8.6.3-6.7,6-11.9,12.7-11.9h14.3c2.5,0,3.8-3.1,2-4.9h0c-3.3-3.3-3.7-8.6-.6-12.1,3.4-3.8,9.2-4,12.7-.4l20.3,20.3c.3.3.5.6.7.9,2.2,2.2,3.5,5.3,3.5,8.6s-1.1,5.9-3,8h1.8c8.6,0,15.9,6.6,16.3,15.2.2,4.9-1.8,9.3-5.1,12.4,10,1.1,17.8,9.7,17.5,20.1-.3,10.8-9.4,19.3-20.2,19.3H59.8c-10.8,0-20-8.5-20.2-19.3-.2-10.4,7.5-19,17.5-20.1Z"/>
    <path class="st3" d="M136.1,135.8c3.4-6,5.4-13,5.4-20.5H58.6c0,7.4,2,14.4,5.4,20.5,2.3,4,6.7,6.5,11.3,6.5h49.4c4.7,0,9-2.4,11.3-6.5Z"/>
    <path class="st3" d="M124.9,160.2l.6-3.9h-6.5l2.9-20.5h-3.9l-2.9,20.5h-13.2v-20.5h-3.9v20.5h-13.2l-2.9-20.5h-3.9l2.9,20.5h-6.5l.6,3.9h6.4l2,14.1h-6.2l.6,3.9h6.2l2,13.8h3.9l-2-13.8h10.1v13.8h3.9v-13.8h10.1l-2,13.8h3.9l2-13.8h6.2l.6-3.9h-6.2l2-14.1h6.4ZM87.4,174.3l-2-14.1h12.7v14.1h-10.7ZM112.6,174.3h-10.7v-14.1h12.7l-2,14.1Z"/>
  </g>
  <path class="st2" d="M140.7,93.7H59.3c-3,0-5.5-2.5-5.5-5.5s2.5-5.5,5.5-5.5h81.5c3,0,5.5,2.5,5.5,5.5s-2.5,5.5-5.5,5.5Z"/>
  <path class="st2" d="M131.1,65.1h-62.2c-3,0-5.5-2.5-5.5-5.5s2.5-5.5,5.5-5.5h62.2c3,0,5.5,2.5,5.5,5.5s-2.5,5.5-5.5,5.5Z"/>
</svg>