<?xml version="1.0" encoding="UTF-8"?>
<svg id="Layer_1" xmlns="http://www.w3.org/2000/svg" xmlns:xlink="http://www.w3.org/1999/xlink" version="1.1" viewBox="0 0 500 300">
  <!-- Generator: Adobe Illustrator 30.1.0, SVG Export Plug-In . SVG Version: 2.1.1 Build 136)  -->
  <defs>
    <style>
      .st0 {
        fill: #7fdfef;
      }

      .st1 {
        fill: url(#linear-gradient1);
      }

      .st2 {
        fill: #ffcf00;
      }

      .st3 {
        fill: #e8efef;
      }

      .st4 {
        fill: #ffe473;
      }

      .st5 {
        fill: url(#linear-gradient);
      }

      .st6 {
        fill: #a4f4fc;
      }

      .st7 {
        fill: #2f3846;
      }

      .st8 {
        fill: #05a8e8;
      }

      .st9 {
        fill: #dae5e5;
      }

      .st10 {
        fill: #3580c4;
      }

      .st11 {
        fill: #04c1ea;
      }

      .st12 {
        fill: #2bdaf7;
      }
    </style>
    <linearGradient id="linear-gradient" x1="256.2" y1="341.2" x2="241.9" y2="-225.7" gradientUnits="userSpaceOnUse">
      <stop offset="0" stop-color="#2484c6"/>
      <stop offset="1" stop-color="#00edc6" stop-opacity="0"/>
    </linearGradient>
    <linearGradient id="linear-gradient1" x1="-259.1" y1="189.4" x2="-267.1" y2="-126.6" xlink:href="#linear-gradient"/>
  </defs>
  <rect class="st5" x="-10" y="-7.3" width="523.6" height="343.8"/>
  <g>
    <path class="st6" d="M46.8,217.6c-.8-2.2.4-4.7,2.6-5.4s4.7.4,5.4,2.6-.4,4.7-2.6,5.4-4.7-.4-5.4-2.6Z"/>
    <path class="st6" d="M40.8,229.2c-.6-1.6.3-3.4,1.9-3.9s3.4.3,3.9,1.9-.3,3.4-1.9,3.9-3.4-.3-3.9-1.9Z"/>
    <path class="st6" d="M35.2,213.1c-.6-1.6.3-3.4,1.9-3.9s3.4.3,3.9,1.9-.3,3.4-1.9,3.9-3.4-.3-3.9-1.9Z"/>
    <path class="st11" d="M44.1,238.9l4.1-1.4s16.9-5.9,11.2-22.3c-3-8.8-9.3-11.3-14.5-11.8-2.7-.1-5.5,0-8.3.7-1.1.3-2.2.6-3.6-.1-2.4-1.4-2.7-4.3-.8-6.3,5.8-6.1,13.2-10.9,22-13.4,24.4-7,49.6,5.7,58.5,29.5.2.4.3.9.4,1.3h0s4.4,12.7,4.4,12.7c2.3,6.7-1.2,13.9-7.9,16.2l-57.2,19.8-8.6-24.8Z"/>
    <g>
      <path class="st8" d="M59.5,215.1c-.8-2.4-1.9-4.4-3.2-5.9,4.6,1,9.5,4,12.1,11.4,5.7,16.5-11.2,22.3-11.2,22.3l-10.4,3.6-2.6-7.7,4.1-1.4s16.9-5.9,11.2-22.3Z"/>
      <path class="st12" d="M63.2,189.7c-8.8,2.5-16.2,7.2-22,13.4-.1.1-.2.2-.3.3-1.4.1-2.8.3-4.3.7-1,.2-2.1.6-3.3,0-2.6-1.3-3-4.4-1-6.5,5.8-6.1,13.2-10.8,22-13.4,15.5-4.4,31.3-.9,43,8.3-10.3-4.9-22.3-6.2-34.1-2.8Z"/>
    </g>
  </g>
  <g>
    <g>
      <g>
        <rect class="st7" x="428" y="223" width="14.3" height="21.7" transform="translate(9.4 -16.7) rotate(2.2)"/>
        <path class="st7" d="M423.4,177.1h20.8c6.5,0,11.8,5.3,11.8,11.8v22.2c0,6.5-5.3,11.8-11.8,11.8h-20.8c-6.5,0-11.8-5.3-11.8-11.8v-22.2c0-6.5,5.3-11.8,11.8-11.8Z" transform="translate(8.1 -16.6) rotate(2.2)"/>
        <path class="st3" d="M97.5,190.8l-55.5-64.3c-6.9-8,1.1-19.4,12.1-17l380.7,91.5c2.8.7,4.7,3,4.6,5.6l-.4,11.4c-.6,14.8-14.4,26.3-30.8,25.6l-215.1-8.3c-37.5-1.5-72.5-17.7-95.6-44.5Z"/>
        <path class="st10" d="M43.6,128.4l13.1,15.1c35.1,8.4,128.5,29.7,379.4,85,1.7-3.2,2.7-6.8,2.9-10.6v-.8c-130.9-28.9-368.9-81.7-395.3-88.8Z"/>
      </g>
      <path class="st11" d="M511.9,220.9c-32.2-1.2-33.2,22.6-65.4,21.3-32.2-1.2-31.3-25.1-63.6-26.3s-33.1,22.6-65.4,21.3c-32.2-1.2-31.3-25.1-63.5-26.3-32.2-1.2-33.1,22.6-65.4,21.3-32.2-1.2-31.3-25.1-63.5-26.3s-33.1,22.6-65.4,21.3c-32.2-1.2-31.3-25.1-63.5-26.3l-4.7,121.6c-.7,17.5,14.6,32.4,34.1,33.1l445.1,17.2c19.5.8,35.9-12.9,36.5-30.4l4.7-121.6Z"/>
    </g>
    <path class="st9" d="M93.8,119.1l82.8,3.2c5.4.2,10.6-1.8,14.2-5.5l26.4-27.4c3.6-3.7,8.8-5.7,14.3-5.5l111.9,4.3c4,.2,7.2,3.2,7,6.9h0c-.2,4.3-4.2,7.6-8.9,7.4l-7.3-.3c-6.8-.3-12.6,4.5-12.8,10.7l-1.3,34.8c-.2,4.4,3.1,8.4,7.9,9.5l52.4,12.1c7.1,1.6,12,7.5,11.7,14.1l-.3,7.4L93.8,119.1Z"/>
    <path class="st0" d="M211,95.9l56.5,10.5c13.1,2.4,22.5,13.1,22,25.1v2.3c-.2,2.1-2.4,3.7-4.7,3.2l-93.9-20.2,20.1-20.9Z"/>
  </g>
  <rect class="st1" x="-523.3" y="-2" width="523.6" height="185.8"/>
  <g>
    <path class="st4" d="M472.7,83.1l-5.3-1.5c-2.4-.7-4.8,1.3-4.5,3.8l.5,5.5c.3,3.2-3.5,5.2-6,3l-4.2-3.6c-1.9-1.7-4.9-.9-5.7,1.5l-1.9,5.2c-1.1,3-5.4,3.1-6.7.2l-2.2-5.1c-1-2.3-4-2.9-5.8-1.2l-4,3.8c-2.3,2.2-6.2.5-6.1-2.8l.2-5.5c.1-2.5-2.3-4.4-4.7-3.6l-5.2,1.7c-3.1,1-5.8-2.3-4.3-5.1l2.6-4.9c1.2-2.2-.2-4.9-2.7-5.3l-5.5-.7c-3.2-.4-4.3-4.6-1.6-6.5l4.5-3.2c2-1.5,2-4.5-.1-5.9l-4.6-3c-2.7-1.8-1.9-6,1.3-6.6l5.4-1c2.5-.4,3.7-3.2,2.4-5.4l-2.8-4.7c-1.7-2.8.9-6.2,4-5.3l5.3,1.5c2.4.7,4.8-1.3,4.5-3.8l-.5-5.5c-.3-3.2,3.5-5.2,6-3l4.2,3.6c1.9,1.7,4.9.9,5.7-1.5l1.9-5.2c1.1-3,5.4-3.1,6.7-.2l2.2,5.1c1,2.3,4,2.9,5.8,1.2l4-3.8c2.3-2.2,6.2-.5,6.1,2.8l-.2,5.5c-.1,2.5,2.3,4.4,4.7,3.6l5.2-1.7c3.1-1,5.8,2.3,4.3,5.1l-2.6,4.9c-1.2,2.2.2,4.9,2.7,5.3l5.5.7c3.2.4,4.3,4.6,1.6,6.5l-4.5,3.2c-2,1.5-2,4.5.1,5.9l4.6,3c2.7,1.8,1.9,6-1.3,6.6l-5.4,1c-2.5.4-3.7,3.2-2.4,5.4l2.8,4.7c1.7,2.8-.9,6.2-4,5.3Z"/>
    <circle class="st2" cx="441.2" cy="55" r="29.3"/>
    <path class="st4" d="M421.9,57.5c-1.9,0-3.4-1.5-3.4-3.4,0-12.3,10-22.2,22.2-22.2s3.4,1.5,3.4,3.4-1.5,3.4-3.4,3.4c-8.5,0-15.4,6.9-15.4,15.4s-1.5,3.4-3.4,3.4Z"/>
  </g>
  <g>
    <path class="st6" d="M184,210.9c.8-2.2-.4-4.7-2.6-5.4s-4.7.4-5.4,2.6.4,4.7,2.6,5.4,4.7-.4,5.4-2.6Z"/>
    <path class="st6" d="M190.1,222.5c.6-1.6-.3-3.4-1.9-3.9s-3.4.3-3.9,1.9.3,3.4,1.9,3.9,3.4-.3,3.9-1.9Z"/>
    <path class="st6" d="M195.7,206.4c.6-1.6-.3-3.4-1.9-3.9s-3.4.3-3.9,1.9.3,3.4,1.9,3.9,3.4-.3,3.9-1.9Z"/>
    <path class="st11" d="M186.8,232.2l-4.1-1.4s-16.9-5.9-11.2-22.3c3-8.8,9.3-11.3,14.5-11.8,2.7-.1,5.5,0,8.3.7,1.1.3,2.2.6,3.6-.1,2.4-1.4,2.7-4.3.8-6.3-5.8-6.1-13.2-10.9-22-13.4-24.4-7-49.6,5.7-58.5,29.5-.2.4-.3.9-.4,1.3h0s-4.4,12.7-4.4,12.7c-2.3,6.7,1.2,13.9,7.9,16.2l57.2,19.8,8.6-24.8Z"/>
    <g>
      <path class="st8" d="M171.4,208.5c.8-2.4,1.9-4.4,3.2-5.9-4.6,1-9.5,4-12.1,11.4-5.7,16.5,11.2,22.3,11.2,22.3l10.4,3.6,2.6-7.7-4.1-1.4s-16.9-5.9-11.2-22.3Z"/>
      <path class="st12" d="M167.7,183c8.8,2.5,16.2,7.2,22,13.4.1.1.2.2.3.3,1.4.1,2.8.3,4.3.7,1,.2,2.1.6,3.3,0,2.6-1.3,3-4.4,1-6.5-5.8-6.1-13.2-10.8-22-13.4-15.5-4.4-31.3-.9-43,8.3,10.3-4.9,22.3-6.2,34.1-2.8Z"/>
    </g>
  </g>
</svg>