<?xml version="1.0" encoding="UTF-8"?>
<svg id="Layer_1" xmlns="http://www.w3.org/2000/svg" version="1.1" viewBox="0 0 500 300">
  <!-- Generator: Adobe Illustrator 30.1.0, SVG Export Plug-In . SVG Version: 2.1.1 Build 136)  -->
  <defs>
    <style>
      .st0 {
        fill: #cccece;
      }

      .st1 {
        fill: #e1e5e5;
      }

      .st2 {
        fill: #629640;
      }

      .st3 {
        fill: #af130d;
      }

      .st4 {
        fill: #f4f4f4;
      }

      .st5 {
        fill: #ffbf3e;
      }

      .st6 {
        fill: #2f3846;
      }

      .st7 {
        fill: #ccd5d6;
      }

      .st8 {
        fill: #da2f47;
      }

      .st9 {
        fill: #e2e7e8;
      }

      .st10 {
        fill: #fff;
      }

      .st11 {
        opacity: .6;
      }

      .st12 {
        fill: #ffd67b;
      }

      .st13 {
        fill: #77b255;
      }

      .st14 {
        fill: #3f4a56;
      }

      .st15 {
        fill: #f5f7f7;
      }

      .st16 {
        fill: #e54c4c;
      }
    </style>
  </defs>
  <rect class="st14" x="-10" y="-6" width="512" height="286.7"/>
  <path class="st8" d="M502.8,172.7c-63.8-22.7-155-36.9-256.2-36.9S48.5,150.9-15.5,174.8c0,6.9-.2,13.8-.3,20.7-.7,36.8-1.9,73.5-2.8,110.3,2.7-.5,5.5-.8,8.3-.8,44.3,0,88.6-.2,132.9-.5,78.2-.5,156.4-1.1,234.5-1.3,36.5,0,72.8.9,109.3,2,13.8.4,27.6.7,41.4.7-1.5-44.4-3-88.8-4.9-133.2Z"/>
  <ellipse class="st3" cx="187.1" cy="172.1" rx="41.5" ry="13.1"/>
  <ellipse class="st3" cx="92.8" cy="264.6" rx="41.5" ry="13.1"/>
  <ellipse class="st3" cx="358" cy="223.8" rx="100.9" ry="50.7"/>
  <g>
    <g>
      <path class="st7" d="M191.3,142.1v-26.1h-14.3v26.1c0,5.3-3.8,9.9-9,10.9-12.8,2.3-21.7,7.1-21.7,12.7s17,14.1,37.9,14.1,37.9-6.3,37.9-14.1-8.9-10.5-21.7-12.7c-5.2-.9-9-5.5-9-10.9Z"/>
      <g>
        <path class="st15" d="M223.1,75.2h0l-7.5-26.2c-.8-2.7-3.2-4.5-6-4.5h-51c-2.8,0-5.2,1.8-6,4.5l-7.5,26.2h0c-1.4,4.9-2,10.2-1.5,15.6,2,19.6,18.1,35.2,37.8,36.4,23.6,1.5,43.2-17.2,43.2-40.5s-.6-7.8-1.7-11.5Z"/>
        <path class="st7" d="M184.2,129.1c-.9,0-1.8,0-2.7,0-20.4-1.3-37.4-17.6-39.5-38-.5-4.7-.2-9.5.9-14h0l.6-2.2,7.5-26.2c1-3.4,4.1-5.8,7.7-5.8h51c3.5,0,6.7,2.4,7.6,5.8l8.1,28.4h0c.8,3.2,1.1,6.5,1.1,9.7,0,11.6-4.9,22.9-13.4,30.9-7.9,7.5-18.1,11.5-29,11.5ZM147.5,73.5h0l-.7,2.2c-1.4,4.9-1.9,9.9-1.4,14.9,1.9,18.7,17.4,33.7,36.2,34.8,10.9.7,21.2-3,29.1-10.5,7.9-7.4,12.3-17.5,12.3-28.3s-.5-7.4-1.6-11l-.7-2.2h0l-6.9-23.9c-.5-1.9-2.3-3.2-4.3-3.2h-51c-2,0-3.7,1.3-4.3,3.2l-6.9,23.9Z"/>
      </g>
      <path class="st3" d="M216.3,76.9h-64.3v.3c-1.3,4.2-1.7,8.6-1.3,12.9,1.6,16.2,15.1,29.1,31.3,30.1.7,0,1.5,0,2.2,0,9,0,17.4-3.5,23.8-9.8,6.3-6.3,9.8-14.8,9.8-23.8s-.5-6.4-1.4-9.5v-.3Z"/>
      <g class="st11">
        <path class="st10" d="M183,117.3c0,0-.1,0-.2,0-14.8-.9-27.1-12.8-28.6-27.5-.4-4,0-8,1.1-11.8l1.9-6.4.8-3.1,3.2-11.2c.5-1.9,2.5-2.9,4.3-2.4,1.9.5,2.9,2.5,2.4,4.3l-1.9,6.8h0l-1.2,4.5-2.8,9.6c-.9,3-1.2,6-.8,9.1,1.1,11.4,10.6,20.5,22,21.2,1.9.1,3.4,1.8,3.3,3.7-.1,1.9-1.7,3.3-3.5,3.3Z"/>
      </g>
    </g>
    <path class="st10" d="M158.2,165.1c0-2.5-2-4.6-4.6-4.6s-4.6,2-4.6,4.6,2,4.6,4.6,4.6,4.6-2,4.6-4.6Z"/>
  </g>
  <g>
    <path class="st9" d="M376.8,121.4l58.4,6.2c5.2.5,10.2-3,10.8-8.1.6-5.4-3.5-10.2-8.9-10.4l-59.3-2c-1.1-6.2-6.5-11-13.2-11.1l-26.4-.3c-1,0-1.9.8-1.9,1.8h0c0,1.1.7,2,1.8,2.1l19.2,1.3c1.4.1,2.5,1.4,2.4,2.8h0c-.1,1.4-1.4,2.5-2.8,2.4l-19.2-1.3c-1.1,0-2,.7-2.1,1.8v.2c0,1.1.7,2,1.8,2.1l19.2,1.3c1.4.1,2.5,1.4,2.4,2.8-.1,1.4-1.4,2.5-2.8,2.4l-19.2-1.3c-1.1,0-2,.7-2.1,1.8v.2c0,1.1.7,2,1.8,2.1l19.2,1.3c1.4.1,2.5,1.4,2.4,2.8-.1,1.4-1.4,2.5-2.8,2.4l-19.2-1.3c-1.1,0-2,.7-2.1,1.8h0c0,1,.7,1.9,1.7,2l26.2,3.4c6.6.9,12.6-3.2,14.6-9.2Z"/>
    <ellipse class="st15" cx="344.7" cy="208" rx="106.3" ry="54.1"/>
    <path class="st7" d="M344.7,265.9c-61.8,0-110.1-25.4-110.1-57.9s48.4-57.9,110.1-57.9,110.1,25.4,110.1,57.9-48.4,57.9-110.1,57.9ZM344.7,157.8c-27.8,0-53.9,5.5-73.5,15.4-18.7,9.5-29.1,21.9-29.1,34.9s10.3,25.3,29.1,34.9c19.6,9.9,45.7,15.4,73.5,15.4s53.9-5.5,73.5-15.4c18.7-9.5,29.1-21.9,29.1-34.9s-10.3-25.3-29.1-34.9c-19.6-9.9-45.7-15.4-73.5-15.4Z"/>
    <ellipse class="st7" cx="344.7" cy="200.4" rx="91.1" ry="44.1"/>
    <path class="st12" d="M432.9,194.3c0,24.8-39.5,44.9-88.2,44.9s-88.2-20.1-88.2-44.9,39.5-55.4,88.2-55.4,88.2,30.7,88.2,55.4Z"/>
    <path class="st5" d="M344.7,233c-46.5,0-83-19.3-83-44s1.7-3.8,3.8-3.8,3.8,1.7,3.8,3.8c0,19.8,34.5,36.5,75.4,36.5s75.4-16.7,75.4-36.5,1.7-3.8,3.8-3.8,3.8,1.7,3.8,3.8c0,24.7-36.4,44-83,44Z"/>
    <path class="st5" d="M344.7,216.1c-36.3,0-64.8-15.3-64.8-34.8s1.7-3.8,3.8-3.8,3.8,1.7,3.8,3.8c0,14.8,26.2,27.3,57.3,27.3s57.3-12.5,57.3-27.3,1.7-3.8,3.8-3.8,3.8,1.7,3.8,3.8c0,19.5-28.5,34.8-64.8,34.8Z"/>
    <path class="st5" d="M339.5,167.5c-2,0-3.7-1.6-3.7-3.7s-.5-2.1-1.6-3.3c-1.4-1.6-3.3-3.9-3.3-8.1s1.9-6.4,3.3-8.1c1.1-1.2,1.6-1.8,1.6-3.3s-.5-2.1-1.6-3.3c-1.4-1.6-3.3-3.9-3.3-8.1s1.9-6.4,3.3-8.1c1.1-1.2,1.6-1.8,1.6-3.3s-.5-2-1.6-3.3c-1.4-1.6-3.3-3.9-3.3-8.1s1.9-6.4,3.3-8.1c1.1-1.2,1.6-1.8,1.6-3.3s1.6-3.7,3.7-3.7,3.7,1.6,3.7,3.7c0,4.2-1.9,6.4-3.3,8.1-1.1,1.2-1.6,1.8-1.6,3.3s.5,2,1.6,3.3c1.4,1.6,3.3,3.9,3.3,8.1s-1.9,6.4-3.3,8.1c-1.1,1.2-1.6,1.8-1.6,3.3s.5,2.1,1.6,3.3c1.4,1.6,3.3,3.9,3.3,8.1s-1.9,6.4-3.3,8.1c-1.1,1.2-1.6,1.8-1.6,3.3s.5,2.1,1.6,3.3c1.4,1.6,3.3,3.9,3.3,8.1s-1.6,3.7-3.7,3.7Z"/>
    <path class="st5" d="M351,167.5c-2,0-3.7-1.6-3.7-3.7s-.5-2.1-1.6-3.3c-1.4-1.6-3.3-3.9-3.3-8.1s1.9-6.4,3.3-8.1c1.1-1.2,1.6-1.8,1.6-3.3s-.5-2.1-1.6-3.3c-1.4-1.6-3.3-3.9-3.3-8.1s1.9-6.4,3.3-8.1c1.1-1.2,1.6-1.8,1.6-3.3s-.5-2-1.6-3.3c-1.4-1.6-3.3-3.9-3.3-8.1s1.9-6.4,3.3-8.1c1.1-1.2,1.6-1.8,1.6-3.3s1.6-3.7,3.7-3.7,3.7,1.6,3.7,3.7c0,4.2-1.9,6.4-3.3,8.1-1.1,1.2-1.6,1.8-1.6,3.3s.5,2,1.6,3.3c1.4,1.6,3.3,3.9,3.3,8.1s-1.9,6.4-3.3,8.1c-1.1,1.2-1.6,1.8-1.6,3.3s.5,2.1,1.6,3.3c1.4,1.6,3.3,3.9,3.3,8.1s-1.9,6.4-3.3,8.1c-1.1,1.2-1.6,1.8-1.6,3.3s.5,2.1,1.6,3.3c1.4,1.6,3.3,3.9,3.3,8.1s-1.6,3.7-3.7,3.7Z"/>
    <path class="st8" d="M376.1,160.1h0s-8.6-9-8.6-9h0c-2.7-3.2-8.5-5.4-15.1-5.4s-8.2.9-11.2,2.5c-2.8-.8-5.9-1.2-9.2-1.2-11.9,0-21.6,5.5-21.6,12.4s7,10.7,16.4,12c2.9.4,5.2,2.9,5.2,5.8v35.2c0,2.4,1.8,4.5,4.2,4.7,2.6.1,4.7-1.9,4.7-4.4v-35.5c0-1.2,1.3-2.1,2.4-1.5.8.4,1.7.8,2.7,1.1,1.2.4,2.1,1.6,2.1,2.9v11.3c0,2.1,1.4,4.1,3.5,4.5,2.8.5,5.3-1.6,5.3-4.3v-12.5c.2,0,.4,0,.6,0,11.9,0,21.6-5.5,21.6-12.4s-1-4.3-2.8-6.1Z"/>
  </g>
  <g>
    <path class="st1" d="M84.7,213.9l-62.1-.8s7,56.2,62.1,56.2,62.1-56.2,62.1-56.2l-62.1.8Z"/>
    <path class="st0" d="M143,215.4c0-.2.2-.4.2-.6,0-.2.2-.5.2-.7,0-.2,0-.4.1-.5,0-.3.1-.5.1-.8,0-.1,0-.2,0-.4,0-.4,0-.8,0-1.1,0-13.9-26.5-25.1-59.2-25.1s-59.2,11.3-59.2,25.1,0,.8,0,1.1c0,.1,0,.2,0,.4,0,.3,0,.5.1.8,0,.2,0,.4.1.6,0,.2.1.5.2.7,0,.2.2.4.2.6,0,0,0,.2.1.3,5,11.7,29.1,20.6,58.2,20.6s53.2-8.9,58.2-20.6c0-.1,0-.2.1-.3Z"/>
    <path class="st2" d="M114.6,207.4c.5-6.6-4.3-12.3-10.9-12.9-6.6-.5-12.3,4.3-12.9,10.9-.5,6.6,4.3,12.3,10.9,12.9,6.6.5,12.3-4.3,12.9-10.9Z"/>
    <rect class="st10" x="46.1" y="202" width="13.2" height="13.2" rx="3.8" ry="3.8" transform="translate(-132.1 98.4) rotate(-45)"/>
    <path class="st16" d="M100.8,207.3c0-8-6.5-14.5-14.5-14.5s-14.5,6.5-14.5,14.5,6.5,14.5,14.5,14.5,14.5-6.5,14.5-14.5Z"/>
    <path class="st13" d="M83.1,209.5c0-8-6.5-14.5-14.5-14.5s-14.5,6.5-14.5,14.5,6.5,14.5,14.5,14.5,14.5-6.5,14.5-14.5Z"/>
    <path class="st2" d="M38.2,202c-7.3,0-13.3,5.4-14.3,12.3l4.7,4.8,13.9,10.2-.9,1.2c6.4-1.5,11.1-7.2,11.1-14.1s-6.5-14.5-14.5-14.5Z"/>
    <path class="st16" d="M70.3,234.8c.7-1.7,1.1-3.5,1.1-5.5,0-8-6.5-14.5-14.5-14.5s-14.2,6.2-14.5,13.9l27.9,6Z"/>
    <path class="st13" d="M74.4,236.1s12.7.1,21.2.1c.6-.8,1.2-1.6,1.6-2.5.7.3,1.4.6,2.1.9,0,.5.2,1.1.3,1.6,2,0,3.4,0,3.5,0,.6-.2,26.7-8.9,28.5-9.5-1.7-4.8-5.6-8.5-10.4-10.1-1.1-8.2-8.1-14.5-16.6-14.5s-12,3.6-14.8,8.9c-2.2-1.1-4.8-1.8-7.4-1.8-9.3,0-16.7,7.5-16.7,16.7s1.9,8.8,4.9,11.8l3.9-1.6Z"/>
    <path class="st10" d="M57.1,233.3c.4-6,5.4-10.7,11.5-10.7s11.5,5.2,11.5,11.5-.1,1.8-.3,2.6l3.5.2c.2-.9.3-1.8.3-2.8,0-8.2-6.7-15-15-15s-14,5.8-14.9,13.3l3.4.8Z"/>
    <path class="st6" d="M59,218c0,3-2.4,5.4-5.4,5.4s-5.4-2.4-5.4-5.4,2.4-5.4,5.4-5.4,5.4,2.4,5.4,5.4Z"/>
    <rect class="st10" x="107.4" y="199.8" width="13.2" height="13.2" rx="3.8" ry="3.8"/>
    <path class="st16" d="M134,227.6c.8-1.8,1.2-3.7,1.2-5.8,0-8-6.5-14.5-14.5-14.5s-14.5,6.5-14.5,14.5,2.9,10.1,7.3,12.6l20.5-6.8Z"/>
    <path class="st10" d="M99.1,229.1l-4-4c-1.5-1.5-3.9-1.5-5.4,0l-4,4c-1.5,1.5-1.5,3.9,0,5.4l1,1,8.9.4.5,1.5,2.9-2.9c1.5-1.5,1.5-3.9,0-5.4Z"/>
    <path class="st10" d="M121,231.6c-1.1-1.8-1.8-3.8-1.8-6.1,0-6.4,5.2-11.5,11.5-11.5s7.9,2.3,9.9,5.7c1.4-1.4,2.4-2.5,2.5-2.5-2.7-4-7.2-6.6-12.4-6.6-8.2,0-15,6.7-15,15s.7,5,1.8,7.1c1-.3,2.2-.7,3.4-1.1Z"/>
    <path class="st6" d="M96.1,209.5c0,3-2.4,5.4-5.4,5.4s-5.4-2.4-5.4-5.4,2.4-5.4,5.4-5.4,5.4,2.4,5.4,5.4Z"/>
    <path class="st6" d="M111.6,221.8c0,3-2.4,5.4-5.4,5.4s-5.4-2.4-5.4-5.4,2.4-5.4,5.4-5.4,5.4,2.4,5.4,5.4Z"/>
    <path class="st4" d="M84.7,239.4c-34.9,0-62.2-12.4-62.2-28.2s27.3-28.2,62.2-28.2,62.2,12.4,62.2,28.2-27.3,28.2-62.2,28.2ZM84.7,189.1c-26.5,0-56.1,9.1-56.1,22.1s22.6,22.1,56.1,22.1,56.1-11.4,56.1-22.1-29.6-22.1-56.1-22.1Z"/>
  </g>
</svg>