<?xml version="1.0" encoding="UTF-8"?>
<svg id="Layer_1" xmlns="http://www.w3.org/2000/svg" xmlns:xlink="http://www.w3.org/1999/xlink" version="1.1" viewBox="0 0 500 300">
  <!-- Generator: Adobe Illustrator 30.1.0, SVG Export Plug-In . SVG Version: 2.1.1 Build 136)  -->
  <defs>
    <style>
      .st0 {
        fill: #dad1d2;
      }

      .st1 {
        fill: #02a32a;
      }

      .st2 {
        fill: #f77e4c;
      }

      .st3 {
        fill: #5fa324;
      }

      .st4 {
        fill: #a14d39;
      }

      .st5 {
        fill: #060806;
      }

      .st6 {
        fill: #333533;
      }

      .st7 {
        fill: #030303;
      }

      .st8 {
        fill: url(#linear-gradient);
      }

      .st9 {
        fill: #e93103;
      }

      .st10 {
        fill: #e73103;
      }

      .st11 {
        fill: #0d0d0d;
      }

      .st12 {
        fill: #c9ccd3;
      }

      .st13 {
        fill: #8b5443;
      }

      .st14 {
        fill: #ffe8ca;
      }

      .st15 {
        fill: #0d0a08;
      }

      .st16 {
        fill: #0a9d27;
      }

      .st17 {
        fill: #696969;
      }

      .st18 {
        fill: #047f1e;
      }

      .st19 {
        fill: #656565;
      }

      .st20 {
        fill: #ddd;
      }

      .st21 {
        fill: #c64010;
      }

      .st22 {
        fill: #464646;
      }

      .st23 {
        fill: #0b0b0b;
      }

      .st24 {
        fill: #77c433;
      }

      .st25 {
        fill: #f7473d;
      }

      .st26 {
        fill: #ccbfbf;
      }

      .st27 {
        fill: #ef571b;
      }

      .st28 {
        fill: #ef5932;
      }

      .st29 {
        fill: #402a31;
      }

      .st30 {
        fill: #eee8e7;
      }

      .st31 {
        fill: #f5f5f5;
      }

      .st32 {
        fill: #af2403;
      }

      .st33 {
        fill: #d34411;
      }

      .st34 {
        fill: #585a56;
      }

      .st35 {
        fill: #737373;
      }

      .st36 {
        fill: #edf9ef;
      }

      .st37 {
        fill: #313131;
      }

      .st38 {
        fill: #68e4fc;
      }

      .st39 {
        fill: #05821f;
      }
    </style>
    <linearGradient id="linear-gradient" x1="260.9" y1="189.4" x2="252.9" y2="-126.6" gradientUnits="userSpaceOnUse">
      <stop offset="0" stop-color="#2484c6"/>
      <stop offset="1" stop-color="#00edc6" stop-opacity="0"/>
    </linearGradient>
  </defs>
  <rect class="st8" x="-3.3" y="-2" width="523.6" height="185.8"/>
  <path class="st1" d="M507.8,81.6l-.9,230.2L-6.9,305.1l-5.3-208.2s173.3-35.5,285.3,55.6c0,0,140.4-52.8,234.7-71Z"/>
  <g>
    <g>
      <ellipse class="st3" cx="169.1" cy="107.7" rx="36.6" ry="39.8"/>
      <path class="st24" d="M164.3,90.2c0-22,16.4-39.8,36.6-39.8,20.2,0,36.6,17.8,36.6,39.8,0,22-16.4,39.8-36.6,39.8s-36.6-17.8-36.6-39.8Z"/>
      <ellipse class="st24" cx="138.5" cy="94.7" rx="36.6" ry="39.8"/>
      <path class="st24" d="M132.5,64.4c0-22,16.4-39.8,36.6-39.8s36.6,17.8,36.6,39.8c0,22-16.4,39.8-36.6,39.8-20.2,0-36.6-17.8-36.6-39.8Z"/>
      <path class="st4" d="M132.5,108.5c4.5-4.9,11.8-4.9,16.3,0l11.1,12.1v-18.5c0-3.6,2.2-6.9,5.5-7.5,4.3-.9,8.1,2.7,8.1,7.2v15.3s14.1-15.3,14.1-15.3c4.5-4.9,11.8-4.9,16.3,0h0l-22.8,24.8c-1.8,1.9-2.7,4.5-2.7,7.2v41.5c0,3.3-2.4,5.9-5.4,5.9h-10.9c-1.1,0-2.1-1-2.1-2.2v-36.3c0-2.7-1-5.3-2.7-7.2l-24.7-26.9h0Z"/>
    </g>
    <g>
      <g>
        <path class="st12" d="M123.3,10.4h25.8c1.8,0,3.3,1.6,3.3,3.6v16.1s0,5.9,0,5.9v20.9c0,1.9-1.4,3.4-3.1,3.4h-26.2c-1.7,0-3.1-1.5-3.1-3.4v-20.9s0-5.9,0-5.9V14.1c0-2,1.5-3.6,3.3-3.6Z"/>
        <path class="st27" d="M138.2,31.1h12.9c.7,0,1.3.6,1.3,1.3v6.1c0,.7-.6,1.3-1.3,1.3h-12.9c-.7,0-1.3-.6-1.3-1.3v-6.1c0-.7.6-1.3,1.3-1.3Z" transform="translate(289.3 70.8) rotate(-180)"/>
        <path class="st21" d="M121.3,31.1h12.9c.7,0,1.3.6,1.3,1.3v6.1c0,.7-.6,1.3-1.3,1.3h-12.9c-.7,0-1.3-.6-1.3-1.3v-6.1c0-.7.6-1.3,1.3-1.3Z" transform="translate(255.4 70.8) rotate(-180)"/>
        <path class="st33" d="M139.3,33.7c0-.4.3-.7.7-.7s.7.3.7.7-.3.7-.7.7-.7-.3-.7-.7Z"/>
        <ellipse class="st33" cx="149.9" cy="37.7" rx=".7" ry=".7"/>
        <g>
          <path class="st27" d="M138.2,10.4h12.9c.7,0,1.3.6,1.3,1.3v6.1c0,.7-.6,1.3-1.3,1.3h-12.9c-.7,0-1.3-.6-1.3-1.3v-6.1c0-.7.6-1.3,1.3-1.3Z" transform="translate(289.3 29.5) rotate(-180)"/>
          <path class="st27" d="M121.3,10.4h12.9c.7,0,1.3.6,1.3,1.3v6.1c0,.7-.6,1.3-1.3,1.3h-12.9c-.7,0-1.3-.6-1.3-1.3v-6.1c0-.7.6-1.3,1.3-1.3Z" transform="translate(255.4 29.5) rotate(-180)"/>
          <path class="st33" d="M132.3,17.1c0-.4.3-.7.7-.7s.7.3.7.7-.3.7-.7.7-.7-.3-.7-.7Z"/>
          <path class="st33" d="M129.3,14.8c0-.4.3-.7.7-.7s.7.3.7.7-.3.7-.7.7-.7-.3-.7-.7Z"/>
          <path class="st33" d="M149.9,16.7c0-.4.3-.7.7-.7s.7.3.7.7-.3.7-.7.7-.7-.3-.7-.7Z"/>
        </g>
        <g>
          <path class="st27" d="M138.2,51.7h12.9c.7,0,1.3.6,1.3,1.3v6.1c0,.7-.6,1.3-1.3,1.3h-12.9c-.7,0-1.3-.6-1.3-1.3v-6.1c0-.7.6-1.3,1.3-1.3Z" transform="translate(289.3 112) rotate(-180)"/>
          <path class="st27" d="M121.3,51.7h12.9c.7,0,1.3.6,1.3,1.3v6.1c0,.7-.6,1.3-1.3,1.3h-12.9c-.7,0-1.3-.6-1.3-1.3v-6.1c0-.7.6-1.3,1.3-1.3Z" transform="translate(255.4 112) rotate(-180)"/>
          <path class="st33" d="M132.3,58.4c0-.4.3-.7.7-.7s.7.3.7.7-.3.7-.7.7-.7-.3-.7-.7Z"/>
          <path class="st33" d="M129.3,56c0-.4.3-.7.7-.7s.7.3.7.7-.3.7-.7.7-.7-.3-.7-.7Z"/>
          <path class="st33" d="M149.9,57.9c0-.4.3-.7.7-.7s.7.3.7.7-.3.7-.7.7-.7-.3-.7-.7Z"/>
        </g>
        <g>
          <path class="st27" d="M129.7,20.8h12.9c.7,0,1.3.6,1.3,1.3v6.1c0,.7-.6,1.3-1.3,1.3h-12.9c-.7,0-1.3-.6-1.3-1.3v-6.1c0-.7.6-1.3,1.3-1.3Z" transform="translate(272.4 50.1) rotate(-180)"/>
          <path class="st21" d="M146.7,20.8h5.7v8.6h-5.7c-.7,0-1.2-.6-1.2-1.3v-6c0-.7.5-1.3,1.2-1.3Z"/>
          <path class="st27" d="M120,20.8h5.7c.7,0,1.2.6,1.2,1.3v6c0,.7-.5,1.3-1.2,1.3h-5.7v-8.6Z"/>
          <path class="st33" d="M122.8,26.5c0-.4.3-.7.7-.7s.7.3.7.7-.3.7-.7.7-.7-.3-.7-.7Z"/>
        </g>
        <g>
          <path class="st27" d="M129.7,41.4h12.9c.7,0,1.3.6,1.3,1.3v6.1c0,.7-.6,1.3-1.3,1.3h-12.9c-.7,0-1.3-.6-1.3-1.3v-6.1c0-.7.6-1.3,1.3-1.3Z" transform="translate(272.4 91.4) rotate(-180)"/>
          <path class="st27" d="M146.7,41.4h5.7v8.6h-5.7c-.7,0-1.2-.6-1.2-1.3v-6c0-.7.5-1.3,1.2-1.3Z"/>
          <path class="st27" d="M120,41.4h5.7c.7,0,1.2.6,1.2,1.3v6c0,.7-.5,1.3-1.2,1.3h-5.7v-8.6Z"/>
          <path class="st33" d="M122.8,47.1c0-.4.3-.7.7-.7s.7.3.7.7-.3.7-.7.7-.7-.3-.7-.7Z"/>
        </g>
      </g>
      <polygon class="st14" points="-1.5 164.7 166.1 164.7 166.1 77.4 82.7 22.4 -1.5 77.4 -1.5 164.7"/>
      <path class="st13" d="M82.3,79.8h0c12.9,0,23.4,11.4,23.4,25.5v59.4h-46.8v-59.4c0-14.1,10.5-25.5,23.4-25.5Z"/>
      <path class="st29" d="M63.8,126.9c0-2.5,1.9-4.6,4.2-4.6s4.2,2.1,4.2,4.6-1.9,4.6-4.2,4.6-4.2-2.1-4.2-4.6Z"/>
      <g>
        <path class="st24" d="M132.9,152.5c5.7,0,11,2,15.3,5.4,2.3,1.8,5.2,2.1,7.9,1.2,2.1-.8,4.4-1.2,6.8-1.2,8.2,0,15.4,5.1,18.9,12.5,2.3,4.9-.9,10.8-6,10.8h-16.8s-17.6,0-17.6,0h-27.7c-4.2,0-7.3-4.5-5.9-8.9,3.4-11.4,13.3-19.7,25-19.7Z"/>
        <path class="st24" d="M31.7,152.5c-5.7,0-11,2-15.3,5.4-2.3,1.8-5.2,2.1-7.9,1.2-2.1-.8-4.4-1.2-6.8-1.2-8.2,0-15.4,5.1-18.9,12.5-2.3,4.9.9,10.8,6,10.8H5.4s17.6,0,17.6,0h27.7c4.2,0,7.3-4.5,5.9-8.9-3.4-11.4-13.3-19.7-25-19.7Z"/>
      </g>
      <path class="st20" d="M46.3,164.7h72.1v12.5c0,2.2-1.8,4-4,4H50.2c-2.2,0-4-1.8-4-4v-12.5h0Z" transform="translate(164.6 345.8) rotate(-180)"/>
      <g>
        <g>
          <path class="st38" d="M129.8,110h-12.6v-9c0-2.6,1.9-4.7,4.3-4.7h8.2v13.7Z"/>
          <path class="st38" d="M137,110v-13.7h8.2c2.4,0,4.3,2.1,4.3,4.7v9h-12.6Z"/>
          <path class="st38" d="M129.8,117.7v13.7h-8.2c-2.4,0-4.3-2.1-4.3-4.7v-9h12.6Z"/>
          <path class="st38" d="M137,117.7h12.6v9c0,2.6-1.9,4.7-4.3,4.7h-8.2v-13.7Z"/>
        </g>
        <g>
          <path class="st38" d="M27.6,110h-12.6v-9c0-2.6,1.9-4.7,4.3-4.7h8.2v13.7Z"/>
          <path class="st38" d="M34.7,110v-13.7h8.2c2.4,0,4.3,2.1,4.3,4.7v9h-12.6Z"/>
          <path class="st38" d="M27.6,117.7v13.7h-8.2c-2.4,0-4.3-2.1-4.3-4.7v-9h12.6Z"/>
          <path class="st38" d="M34.7,117.7h12.6v9c0,2.6-1.9,4.7-4.3,4.7h-8.2v-13.7Z"/>
        </g>
      </g>
      <path class="st25" d="M-5,86.6L80.2,30.5c1.6-1,3.5-1,5.1,0l85.1,56.1c2,1.3,4.6.6,5.8-1.6l3.4-6.2c1.2-2.2.6-5-1.4-6.4L85.2,11.2c-1.6-1-3.5-1-5.1,0l-1.4.9c-.4.3-74.2,48.9-91.6,60.4-2,1.3-2.6,4.2-1.4,6.4l3.4,6.2c1.2,2.2,3.8,2.9,5.8,1.6Z"/>
    </g>
    <path class="st24" d="M5.4,143s0,0,0,0c0-5.8,4.3-10.5,9.7-10.5s9.7,4.7,9.7,10.5,0,0,0,0c.1,0,.2,0,.3,0,6.7,0,12.2,5.9,12.2,13.2,0,7.3-5.4,13.2-12.2,13.2s-7.5-2.1-9.7-5.3c-2.2,3.2-5.7,5.3-9.7,5.3-6.7,0-12.2-5.9-12.2-13.2s5.3-13.1,11.9-13.2Z"/>
  </g>
  <path class="st18" d="M9.1,285.3c24-57.6,266.5-124.7,266.5-124.7C-16.2,208.6-14.9,342.9,9.1,285.3Z"/>
  <g>
    <path class="st23" d="M476.4,47.4l9.8-15.8c-1.1-2.3-3.2-3.6-6-3.9l-68.9-6.6c-4.7-.5-11.1,1.9-12.1,5.3-2.3.1-4.8,0-6.8-.7,2.1-4.4,7.3-10.9,14.1-10.7,26.6.7,52.3,3.1,78.8,5.6,3.3.3,6.1,2.2,7.9,3.9,7.4,6.9-48,87-55.1,102.2l-.4-2.5c-.3-1.8-1-3.8-1.8-5.3l-1.3-2.3,38.4-63.5c.5-.9,1-2.3.8-2.9.9-.5,1.9-1.7,2.6-2.8Z"/>
    <path class="st1" d="M473.1,217.1c9.6,11,11.6,25.6,3.4,38.1-15.4,23.4-53.5,36.7-82.2,43.5-54.3,12.8-116.8,13.8-171.9,4.8-31.9-5.2-69.8-15.8-94-35.1-5-4-9.3-8.9-12.5-14.2-9.7-16.2-2.8-32.6,11.5-44.5,10.6-8.8,23.4-15.6,36.2-20.6,3.8-1.5,8.1-2.8,12.3-4.2l16.7-5.5c.3,0,.7,0,.9,0l3-.7,14.9-2.9c1-.2,2.4-1.1,3.8-2.1-.2-.2,1.9.9,2.5.8l7.9-1.3,4.8-.7c1.8-.3,3.7-.5,5.3-.9h1.7c0,.1,1.2.2,1.2.2v1.3c0,0,0,2.8,0,2.8,0,.7-.1,2,0,2.6l.4,6.3-1.7,1.6-8.3-4.9c-5.2-3.1-8.5-.4-13.4,2l-9.4,4.4-9.5,4.7c-.8.4-1.7,1.8-2.1,2.4-.4.6-1.7,2-1.7,2.8l-.3,8.7c-9.8.4-19.4,10.3-22.2,18.1-3.4,9.3-2.5,27.9,10,29.9,1,1.8,3,1.3,5.1,1.3h8c0,0,1.4,1.7,1.4,1.7,13.2,5.4,26.3,10.4,40.1,14.5l12.3,3.6,10,2.7,7.1,1.8c4,1,7.9,1.7,12,2.3l12.1,1.9,6.9.3,9.2,1.3c1.5.2,5.6.3,6.8-.4l6.3-3.3c2.9,0,5.9-.6,8.6-1.7l7.1-2.9,15.3-6.6c2.3-1,4.4-2.1,6.6-3.2l5.1-2.6c9.9-5.1,18.8-11.1,27.5-17.6,1-.8,9.2-6.9,7.8-7.4.1,0,1.5-.2,1.8-.2h1.3c.3,0,.4-.3.7-.7,11.6-4.3,17.5-19.6,15.5-30.9-1.4-8.2-7-12.2-16.5-12.7.3-1.2.9-2.5,1.6-3.8l4.2-7.9c.5-.9,2.2-2.5,3.2-2.2l3.8,1.1c22.2,6.3,47.3,17.6,61.7,34.1Z"/>
    <path class="st35" d="M475.6,46.2c0,.2.7,1,.8,1.1-.6,1-1.7,2.3-2.6,2.8-2-7.7-.2-12.8-4.5-13.2l-67.8-7c-1.7-.2-3.9,0-5.1,0-1.9-.8-4.7-1-7-.8l-2.4-.8c-.6-.2-1.9,1.4-1.9,2l-.3,4.9.5.9c-.7,1.1-1.5,2.2-2.5,2.7,0,0-1-1.6-1-2v-7.8c.1-2.2,4.5-3.4,6.4-3.4h4.3c2,.8,4.5.9,6.8.8,1.3.4,3.3.8,5.1,1l24,2.5,42.8,4.7c2.3.2,3.9,2.1,4.1,4l.4,7.7Z"/>
    <path class="st17" d="M437.8,124.1l.4,2.5-1.7,3.7-28.5,47.8c-.6,1.1-.7,2.9-.5,3.7-1-.3-2.7,1.3-3.2,2.2l-4.2,7.9c-.7,1.3-1.3,2.7-1.6,3.8-2,.9-5.3,2.1-6.8,3.4l-5.3,4.6c-1.1-.3-2.9-.9-3.9-1l2.8-4.6,1.2-4.2,2.4-2.1c.7-.6,1.4-2,1.6-2.7l3.1-4.8c1.2-1.9,2.1-3.8,2-5.7.3,0,2.1-1.1,2.5-1.8l32.3-53.3c1-1.6-1.3-3.9-2.9-4.1l-59.1-8.1-17.1-1.9c-2.7-.3-6,.9-7.4,3.1l-26.2,40.5h-1.5c0,0-5.6-1.9-5.6-1.9l2-3.4,28.1-42.7,9.6-1.9c1.4.4,3.3.7,5.2.9,23.9,2.2,51,4.8,73.6,11l5.6,1.5,1.3,2.3c.9,1.5,1.5,3.5,1.8,5.3Z"/>
    <path class="st23" d="M414.9,208.5c2,11.3-3.9,26.6-15.5,30.9l-2,.7c-.3,0-1.7.2-1.8.2h0l-2.2-.4c-3.3-.6-6.2-1.2-9-2.2l-1.7-2.9c-4.1-7.2-3.5-16.7.1-24.4.4-.9.9-1.7,1.4-2.5.9-1.5,1.6-2.8,2.2-4.1l5.3-4.6c1.5-1.3,4.7-2.6,6.8-3.4,9.5.5,15,4.5,16.5,12.7ZM402.3,234.7c10.9-7.4,13.3-22.5,8.3-30.2-2.1-3.2-6.2-3.7-9.5-2.1-9.9,4.9-12.4,15.3-11.3,24.7.3,2.3,2.1,5.2,3.7,7,2.1,2.3,6.1,2.4,8.7.6Z"/>
    <path class="st31" d="M410.6,204.4c5,7.7,2.6,22.8-8.3,30.2-2.7,1.8-6.7,1.6-8.7-.6-1.7-1.8-3.5-4.8-3.7-7-1.1-9.3,1.3-19.8,11.3-24.7,3.3-1.6,7.4-1.1,9.5,2.1ZM401.4,222.2c1.2.3,3.6-2.7,3.2-3.7l-1.1-3.1c-.2-.5-2.2-.1-2.7.2-1.5,1.2-2.3,5.8.6,6.5Z"/>
    <path class="st35" d="M404.6,218.5c.4,1-2,4-3.2,3.7-2.9-.8-2.1-5.4-.6-6.5.4-.3,2.5-.7,2.7-.2l1.1,3.1Z"/>
    <path class="st39" d="M397.4,240.1l2-.7c-.3.4-.4.7-.7.7h-1.3Z"/>
    <path class="st39" d="M395.6,240.3c1.4.5-6.8,6.6-7.8,7.4-8.8,6.5-17.6,12.5-27.5,17.6l-5.1,2.6c-2.2,1.1-4.3,2.2-6.6,3.2l-15.3,6.6-7.1,2.9c-2.8,1.1-5.8,1.7-8.6,1.7,3-3.7,5.8-7.5,8-11.9l2.8-5.7c14.1-3.2,27.6-8.2,40.3-15.3,5.9-3.3,10.8-7.7,15.7-11.6,2.8,1,5.7,1.6,9,2.2l2.2.4h0Z"/>
    <path class="st1" d="M395.6,178.6c0,1.9-.8,3.9-2,5.7l-3.1,4.8c-11.4,6.7-24.6,7.9-36.7.5-1.5-.9-3.1-1.8-4.4-2.5l-3.2-2.8.4-13.9c16.6,1.3,33,4.4,49.1,8.1Z"/>
    <path class="st11" d="M396.4,29.9c-.4.8-1,2-1.7,3.1l-43.6,68.3c-.3.4-.7,1.7-.8,1.9l-9.6,1.9,40-62c1-1.5,1.7-3,2.1-4.3.9-.6,1.8-1.6,2.5-2.7l2.2-3.4c.7-1.1,1.5-2.6,2-3.6,2.2-.2,5,0,7,.8Z"/>
    <path class="st11" d="M390.4,189.1c-.2.8-.9,2.1-1.6,2.7l-2.4,2.1c-9,2.4-16.8,4.5-27.2.9-3.5-1.2-9-3.7-10.8-6,.4-.2.7-.3.8-.6v-1.2c1.3.7,2.9,1.5,4.4,2.5,12.1,7.5,25.4,6.2,36.7-.5Z"/>
    <path class="st16" d="M386.5,194l-1.2,4.2-2.8,4.6c-5.4-.8-16.1,0-21.5,1.8l-9.6-3.6c-7.2-2.7-14.4-4.8-21.7-6.1v-.8c-.1,0-.2,0-.2,0-.4,0,8.3-3,7.1-4,2.1-.5,4.4-1.1,6.8-1.9l2.9-1,1.1.8c.3.2.9.6,1.1.9,1.8,2.3,7.3,4.8,10.8,6,10.3,3.6,18.1,1.5,27.2-.9Z"/>
    <path class="st10" d="M382.5,202.8c1,.1,2.9.7,3.9,1-.6,1.2-1.3,2.6-2.2,4.1-.5.8-.9,1.6-1.4,2.5l-1.5-.7c.8-1.5,1.2-3.7.2-4-5.2-.9-10.5.3-15.5,1.1l-8.6,1.4-16.1-5.2c-4.3-1.4-8.4-2.8-12.4-3.6-.2-1.8-.5-3.5.8-4.5,7.3,1.3,14.5,3.4,21.7,6.1l9.6,3.6c5.3-1.7,16.1-2.6,21.5-1.8Z"/>
    <path class="st10" d="M382.7,234.8l1.7,2.9c-4.9,4-9.8,8.3-15.7,11.6-12.7,7.1-26.2,12.1-40.3,15.3,1-7.3,1.7-15-1.6-21.8,1.3-.5,2.8-1,4.4-1.7l6.3-2.6c11.4-4.7,27.6-13.6,36.2-21.5l6.7-6.2c.3-.3.6-.7.9-1.3l1.5.7c-3.6,7.7-4.2,17.2-.1,24.4Z"/>
    <path class="st28" d="M381.5,205.7c1.1.3.6,2.4-.2,4-.3.5-.6,1-.9,1.3l-6.7,6.2c-8.6,7.9-24.8,16.8-36.2,21.5l-6.3,2.6c-1.6.6-3.1,1.2-4.4,1.7-1-2.1-4.3-5-6.7-6.3-7.7-4.2-16.9-1.6-21.9,4.4-2.6,3.1-5.1,6.2-7,9.3l-8-.3c-1.3,0-3.7-.8-4.9-1-.3-.4-1.7-1.7-2.5-2.1l-14-6.6-5.7-4.7c-2.5-2-4.6-4.2-6.9-6.4l-3.3-5.9-.4-5.4c.7,0,2.2,0,3-.2h1.4c0-.1,2.1,3.4,2.1,3.4,6.1,2.7,12.9,3.8,19.5,4.1l5.9.3,1.2-.8c.2-.1.5,0,.8-.1.6,0,1.7-.2,2.2,0l4.6,1.5c2.4.8,7.1,1.6,9.4,1.9,1.9.3,11,4.6,16.4-2.7l4.3-5.8c4.3.8,12.1-5.1,12.7-8.9.6-3.8.3-7.6-.2-11.1,4.1.8,8.1,2.1,12.4,3.6l16.1,5.2,8.6-1.4c5-.8,10.2-2,15.5-1.1Z"/>
    <path class="st7" d="M349.3,187.1v1.2c0,.3-.4.4-.8.6-.2-.3-.8-.7-1.1-.9l-1.1-.8-2.9,1c-2.4.8-4.7,1.4-6.8,1.9-1.4.1-3.2.3-5,.6l-8,1.1-7.1.9c-18.1,2.2-40.5,1-56.8-6.5-5-2.3-10.2-5.3-13.7-8.9l-6.6-6.9c0-.5.1-1.3.3-1.7,13.3,4.1,27.1,6.6,41.6,8.3,14,1.6,27.7,1.1,41.3-1.9,7.5-1.6,14.3-4.5,21-7.8l2-1,.8,4.3-.4,13.9,3.2,2.8Z"/>
    <path class="st19" d="M345.6,166.1l-2,1c-6.7,3.3-13.5,6.2-21,7.8-13.7,3-27.3,3.5-41.3,1.9-14.5-1.6-28.3-4.2-41.6-8.3,1.7-4.2,23.5-12.7,29.8-12l-.2,6.9c0,.7,1.4,2.5,2.2,2.8l8.3,2.8c4.4,1.5,23.3,2.5,27.7-.4,1-.1,2.8-.4,3.9-.6l5.9-1.4,1.1-8.5c4.5.1,26.3,3.9,27.1,8Z"/>
    <path class="st37" d="M336.7,190.1c1.1,1-7.5,4-7.1,4l-18.1,4.1-1.5.4c-2.7.7-5.7,1.4-8.5,1.6-1.6-.3-4.1-.4-6.3-.3l-10.6.3c-1.3,0-3.7.1-4.9,0l-22.1-2.8-5-.7c-.5,0-2,.7-2,1.2v17c-.1.9-.5,2.2-.7,2.5h-1.4c0,.1-1.9-2.5-1.9-2.5-3.6-5.1-5.9-11.6-2.8-16.8l1.7-2.9c-2.5-1.5-6.1-3.7-5.9-6.1.2-3.4.3-6.7.2-10.5l-1.1-.2c0-.7,0-1.9,0-2.6l2.1-1.9c.4-.3-2.3-1-2.2-1v-1.3c0,0,0-1.1,0-1.1h.8c0-.1,6.6,6.7,6.6,6.7,3.5,3.6,8.7,6.7,13.7,8.9,16.3,7.5,38.7,8.7,56.8,6.5l7.1-.9,8-1.1c1.9-.2,3.6-.4,5-.6Z"/>
    <path class="st32" d="M329.6,194.1v.8c-1.2,1.1-1,2.8-.7,4.5.4,3.4.7,7.2.2,11.1-.6,3.9-8.3,9.7-12.7,8.9,1.1-7.7,4-14-4.9-19.3-.5-.3-1.5-1.3-1.7-1.5l1.5-.4,18.1-4.1h.1Z"/>
    <path class="st15" d="M326.8,242.9c3.3,6.8,2.6,14.5,1.6,21.8l-2.8,5.7c-2.1,4.3-5,8.2-8,11.9l-6.3,3.3c-1.2.6-5.3.6-6.8.4l-9.2-1.3-3.1-3.2c-2.2-2.3-3.9-5.9-4.7-8.9v-5.2c-.1-5.9.7-12.2,3.7-17.1,1.9-3.1,4.4-6.2,7-9.3,5-6,14.2-8.6,21.9-4.4,2.4,1.3,5.6,4.2,6.7,6.3ZM323.6,269.2c3.3-7.2,5.6-21.7-2.8-27.4-5.4-3.7-18,3.5-20.7,15.7-1.7,7.7-2.8,17.9,5.2,23.2,6.9,4.7,16.1-6.7,18.3-11.5Z"/>
    <path class="st31" d="M320.8,241.7c8.4,5.7,6.1,20.2,2.8,27.4-2.2,4.8-11.4,16.1-18.3,11.5-8-5.4-6.9-15.5-5.2-23.2,2.8-12.2,15.3-19.4,20.7-15.7ZM315.1,264.7c1.1-1.4,1.8-5.1.9-6.5-.4-.6-1.6-1.5-2.1-1.3-.5.2-1.9.9-2.3,1.3-1.5,1.8-1.2,5.6,0,6.9.4.4,3.1,0,3.5-.4Z"/>
    <path class="st6" d="M317.7,153l.8,5.1-1.1,8.5-5.9,1.4c-1.1.3-2.9.5-3.9.6.1,0-.9-1.3-1.3-1.4l-10.3-.8-6.1-1.8c-4.7-1.4-16.1-6.6-15.3-10.9,1.4.2,3.1.5,4.8.9,11.6,2.7,23.5,2.8,35.2.1.5-.1,1.5-.4,1.6-.7,0-.3.1-.7.2-1.1h1.5Z"/>
    <path class="st5" d="M311.5,200c8.8,5.3,6,11.7,4.9,19.3l-4.3,5.8c-5.4,7.3-14.5,3-16.4,2.7l-2.2-3.9c-4.4-7.5-1.4-16,5.4-21.6l2.6-2.2c2.8-.3,5.8-.9,8.5-1.6.2.2,1.2,1.2,1.7,1.5ZM312.5,211.4c0-2.3-2-5.1-3.9-5.8-2.4-.8-6.3,0-7.9,1.7-3.8,3.7-5.5,8.1-3,12.8.8,1.5,3.6,3.3,5.4,3.5,5.4.5,9.3-5.7,9.4-12.2Z"/>
    <path class="st5" d="M310.6,151.1l5.6,2c0,.3-.1.8-.2,1.1,0,.3-1,.6-1.6.7-11.7,2.7-23.6,2.6-35.2-.1-1.7-.4-3.4-.7-4.8-.9l-1.7-.8c-.4-.2-.4-1.1-.4-1.5,9.3-2.2,28.1-4,38.2-.4Z"/>
    <path class="st35" d="M316,258.2c.9,1.4.2,5.1-.9,6.5-.4.4-3.1.8-3.5.4-1.2-1.4-1.5-5.1,0-6.9.3-.4,1.7-1.1,2.3-1.3.5-.1,1.7.7,2.1,1.3Z"/>
    <path class="st19" d="M308.7,205.6c1.9.6,3.9,3.5,3.9,5.8,0,6.5-4,12.7-9.4,12.2-1.8-.2-4.6-2-5.4-3.5-2.5-4.7-.8-9.1,3-12.8,1.6-1.6,5.5-2.4,7.9-1.7Z"/>
    <path class="st22" d="M306.2,167.3c.4,0,1.4,1.3,1.3,1.4-4.4,2.8-23.3,1.9-27.7.4l-8.3-2.8c-.8-.3-2.3-2.1-2.2-2.8l.2-6.9,1.3-3.5c.2-.5,1.1-1.4,1.6-1.6,0,.4,0,1.3.4,1.5l1.7.8c-.8,4.2,10.6,9.5,15.3,10.9l6.1,1.8,10.3.8Z"/>
    <path class="st19" d="M301.4,200.1l-2.6,2.2c-6.7,5.6-9.7,14.1-5.4,21.6l2.2,3.9c-2.3-.3-6.9-1.2-9.4-1.9l-4.6-1.5c1.5-2,2.5-4.8,2.5-7.5l.3-16.8,10.6-.3c2.2,0,4.7,0,6.3.3Z"/>
    <path class="st39" d="M292.2,281.5l3.1,3.2-6.9-.3-12.1-1.9c-4.1-.6-8-1.3-12-2.3l-7.1-1.8-10-2.7-12.3-3.6c-13.9-4.1-26.9-9.1-40.1-14.5l-1.4-1.7,3.1-2.5c1.4-1.1,2.8-2.3,3.8-3.4,1.3.3,3.1.8,4.7,1.3l23,7.9c15.2,5.2,43.6,11.9,59.4,13.4.8,2.9,2.5,6.5,4.7,8.9Z"/>
    <path class="st9" d="M283.2,249.9l8,.3c-3,5-3.8,11.2-3.7,17.1v5.2c-15.7-1.4-44.1-8.2-59.3-13.4l-23-7.9c-1.6-.5-3.4-1-4.7-1.3-1-.4-2.5-.8-3.7-1,0-.2-1.7-2.3-1.8-3-.9-5-1.7-14.1,3-18.3l7-6.2c1.1-1,2-1.9,2.8-2.7l1.7-.8c.5-.2.6-1.4.5-1.9,1.3.2,4.1-.6,4.9-1.5l2.6-3.1c3.5-.8,7.2-5.2,12-6l1.6,5.9c-2.9,1.4-5.8,2.9-8.7,4.8-4.6,3-11.7,7.1-11.8,11.4,0,1.2,1.9,1.9,5.1,3.4,14.7,6.9,46.5,14.9,62.9,17.7,1.2.2,3.6,1,4.9,1Z"/>
    <path class="st0" d="M284.5,200.1l-.3,16.8c0,2.7-1.1,5.5-2.5,7.5-.5-.2-1.7,0-2.2,0-1-8.3,2.1-17,.2-24.4,1.2.1,3.6,0,4.9,0Z"/>
    <path class="st31" d="M279.6,200.1c1.9,7.4-1.2,16.1-.2,24.4-.3,0-.7,0-.8.1l-1.2.8-5.9-.3-2.2-1.2c-8.5-4.5-12.6-10.7-14.7-19.1l-2-8.1,5,.7,22.1,2.8Z"/>
    <path class="st2" d="M275.8,246.8c.8.4,2.2,1.7,2.5,2.1-16.5-2.8-48.2-10.8-62.9-17.7-3.2-1.5-5.1-2.3-5.1-3.4,0-4.4,7.2-8.5,11.8-11.4,2.9-1.9,5.8-3.5,8.7-4.8,5.4,3.7,5.6,5.8,14.7,6.3l.4,5.4,3.3,5.9c2.3,2.3,4.4,4.4,6.9,6.4l5.7,4.7,14,6.6Z"/>
    <path class="st30" d="M269.2,223.9l2.2,1.2c-6.6-.4-13.4-1.4-19.5-4.1l-2.1-3.5c.2-.4.6-1.6.6-2.5v-17c.1-.6,1.7-1.3,2.1-1.2l2,8.1c2.1,8.4,6.2,14.6,14.7,19.1Z"/>
    <path class="st19" d="M246.5,214.9l1.9,2.7c-.8,0-2.2.2-3,.2-9.1-.5-9.3-2.6-14.7-6.3l-1.6-5.9.7-6.9c.3-3.1,5.1-9.5,9.5-9.6-.1,2.4,3.4,4.6,5.9,6.1l-1.7,2.9c-3.1,5.3-.8,11.8,2.8,16.8Z"/>
    <path class="st6" d="M238.5,172.9c0,0,2.6.6,2.2,1l-2.1,1.9v-2.8Z"/>
    <path class="st6" d="M239.7,178.6c0,3.8,0,7.1-.2,10.5-4.4,0-9.2,6.4-9.5,9.6l-.7,6.9c-4.8.8-8.5,5.2-12,6-.5-.3-1.3-.9-1.9-1.4l-8.8-7.2-6.5-5c-1.7-1.3-3.7-2.4-5.4-2.9.4-.6,1.2-2,2.1-2.4l9.5-4.7,9.4-4.4c4.9-2.3,8.2-5,13.4-2l8.3,4.9,1.7-1.6-.4-6.3,1.1.2Z"/>
    <path class="st34" d="M217.2,211.5l-2.6,3.1c-.8.9-3.6,1.7-4.9,1.5-1.3-4.3-6.6-8-11-8.7l-6.1-.9.3-8.7c0-.8,1.3-2.2,1.7-2.8,1.8.6,3.8,1.7,5.4,2.9l6.5,5,8.8,7.2c.6.5,1.5,1.1,1.9,1.4Z"/>
    <path class="st5" d="M209.7,216.1c.1.4,0,1.7-.5,1.9l-1.7.8c-1.1-3-4.5-6.4-8.7-5.8-8,1.2-13.8,7.1-16,13.8-2.5,7.6-4.1,20.1,5.1,24.3,2.9,1.3,7.1,0,8.7-1.9,1.2.2,2.8.6,3.7,1-1,1.1-2.4,2.2-3.8,3.4l-3.1,2.5h-8c0,0-5.1-1.4-5.1-1.4-12.6-2-13.4-20.6-10-29.9,2.8-7.8,12.5-17.7,22.2-18.1l6.1.9c4.4.7,9.7,4.5,11,8.7Z"/>
    <path class="st26" d="M207.6,218.7c-.7.8-1.7,1.8-2.8,2.7l-7,6.2c-4.7,4.2-3.9,13.3-3,18.3.1.7,1.9,2.8,1.8,3-1.6,1.9-5.8,3.2-8.7,1.9-9.3-4.1-7.6-16.6-5.1-24.3,2.2-6.6,8-12.5,16-13.8,4.3-.7,7.6,2.8,8.7,5.8Z"/>
    <path class="st18" d="M195.5,163.5l.2,1.2c-1.3,2.2-1.5,4.6-.9,7.1l-.5,1.2-3.8-2.6-.9-.9c-.1-.2,0-.5,0-.8.4-1.3,1.1-2.8,1.9-4.1l4-1.1Z"/>
    <path class="st36" d="M189.6,169.6l.9.9c-.3-.2-.7-.7-.9-.9Z"/>
    <path class="st39" d="M185.5,255.8c-2,0-4.1.4-5.1-1.3l5.1,1.3Z"/>
    <path class="st18" d="M185.2,161.6l-.7,1.9c-2-.3-4.7-1.9-5.1-3.4-.6-2.1.1-4.3,2.2-6,.3,1.2.8,2.6.9,3.4.2,1.6.8,2.7,2.8,4.2Z"/>
    <path class="st18" d="M176.4,173.5l7.1,4c-6,1.4-9.1-2-12.4-6.1h3.4c0,.3.5.5.8.7,0,0,.9,1.2,1.2,1.3Z"/>
    <path class="st18" d="M169.4,128.5l.9,8.1c-2.9-4.3-4.7-7.2-11.6-5.9-.6.3.5-.8,1.5-1.5l9.2-.7Z"/>
    <path class="st18" d="M168.3,163.7l-.2,1.7-3.6-1c-5.1-2.5-3.7,0-10.5-1.4-.5,0,.4-1.4.8-1.5l1.9-.3c2.8-.5,7.5-.1,9.6,1.6l1.1.9h.8Z"/>
    <path class="st18" d="M172.3,150.6c-6.4,2-12.1-.5-12.4-3.3,0-.4,1.2-1.2,1.7-1l4.7,1.8c2.3.9,4.1,1.6,6,2.5Z"/>
    <path class="st18" d="M141.7,144.3v9.1c0,1.1-.2,1.9-.5,1.4l-1-1.8c-2.3-4.3-2.4-7.4.8-10.4.3-.3.6,1.2.6,1.6Z"/>
  </g>
  <path class="st18" d="M78.8,274v-4.7h13.6c-.9-3.3-2.5-6.2-4.9-8.6s-5.3-4.1-8.6-4.9c.8-.2,1.6-.3,2.3-.4s1.6-.1,2.4-.1c5.3,0,9.7,1.8,13.4,5.5s5.5,8.1,5.5,13.4h-23.6ZM107.1,274c0-1.7-.2-3.3-.5-4.9-.4-1.6-.9-3.2-1.5-4.7,1.7-2.8,3.9-5,6.8-6.7,2.9-1.7,6-2.5,9.5-2.5s1.6,0,2.4.1,1.5.2,2.3.4c-3.3.9-6.2,2.5-8.6,4.9s-4.1,5.3-5,8.6h13.6v4.7h-18.9ZM102.4,259.9c0-2.6.5-5,1.4-7.2s2.2-4.2,3.9-5.9,3.6-3.1,5.8-4.1,4.6-1.6,7.1-1.7c-2.2,1.4-4.1,3.1-5.8,5.1s-2.9,4.3-3.8,6.7c-1.7.8-3.3,1.8-4.8,3s-2.7,2.5-3.9,4ZM98.1,255.4c-.5-.4-.9-.7-1.4-1s-1-.6-1.5-.9c0-.2,0-.5,0-.7s0-.5,0-.7c0-3-.5-5.8-1.4-8.5s-2.3-5.1-4-7.3c2.6,1.1,4.9,2.6,6.8,4.6s3.4,4.3,4.4,6.9c-.7,1.2-1.3,2.4-1.8,3.7s-.9,2.7-1.1,4Z"/>
  <path class="st18" d="M138.8,292.9v-4.7h13.6c-.9-3.3-2.5-6.2-4.9-8.6s-5.3-4.1-8.6-4.9c.8-.2,1.6-.3,2.3-.4s1.6-.1,2.4-.1c5.3,0,9.7,1.8,13.4,5.5s5.5,8.1,5.5,13.4h-23.6ZM167.1,292.9c0-1.7-.2-3.3-.5-4.9-.4-1.6-.9-3.2-1.5-4.7,1.7-2.8,3.9-5,6.8-6.7,2.9-1.7,6-2.5,9.5-2.5s1.6,0,2.4.1,1.5.2,2.3.4c-3.3.9-6.2,2.5-8.6,4.9s-4.1,5.3-5,8.6h13.6v4.7h-18.9ZM162.4,278.8c0-2.6.5-5,1.4-7.2s2.2-4.2,3.9-5.9,3.6-3.1,5.8-4.1,4.6-1.6,7.1-1.7c-2.2,1.4-4.1,3.1-5.8,5.1s-2.9,4.3-3.8,6.7c-1.7.8-3.3,1.8-4.8,3s-2.7,2.5-3.9,4ZM158.1,274.4c-.5-.4-.9-.7-1.4-1s-1-.6-1.5-.9c0-.2,0-.5,0-.7s0-.5,0-.7c0-3-.5-5.8-1.4-8.5s-2.3-5.1-4-7.3c2.6,1.1,4.9,2.6,6.8,4.6s3.4,4.3,4.4,6.9c-.7,1.2-1.3,2.4-1.8,3.7s-.9,2.7-1.1,4Z"/>
  <path class="st18" d="M344.7,160.1v-3.9h11.1c-.7-2.7-2.1-5.1-4-7.1s-4.3-3.3-7.1-4c.6-.2,1.3-.3,1.9-.4s1.3-.1,2-.1c4.3,0,8,1.5,11,4.5s4.5,6.7,4.5,11h-19.4ZM367.9,160.1c0-1.4-.1-2.7-.4-4-.3-1.3-.7-2.6-1.3-3.8,1.4-2.3,3.2-4.1,5.5-5.5,2.3-1.4,4.9-2.1,7.8-2.1s1.3,0,2,.1,1.3.2,1.9.4c-2.7.7-5.1,2.1-7.1,4s-3.3,4.3-4.1,7.1h11.1v3.9h-15.5ZM364.1,148.5c0-2.1.4-4.1,1.2-5.9s1.8-3.5,3.2-4.9,2.9-2.5,4.8-3.4,3.8-1.3,5.8-1.4c-1.8,1.1-3.4,2.5-4.7,4.2s-2.4,3.5-3.1,5.5c-1.4.7-2.7,1.5-3.9,2.5s-2.2,2.1-3.2,3.3ZM360.5,144.9c-.4-.3-.8-.6-1.2-.8s-.8-.5-1.2-.8c0-.2,0-.4,0-.6s0-.4,0-.6c0-2.5-.4-4.8-1.2-7s-1.9-4.2-3.3-6c2.1.9,4,2.1,5.5,3.7s2.8,3.5,3.6,5.6c-.6,1-1.1,2-1.5,3.1s-.7,2.2-.9,3.3Z"/>
</svg>