<?xml version="1.0" encoding="UTF-8"?>
<svg id="Layer_1" xmlns="http://www.w3.org/2000/svg" version="1.1" viewBox="0 0 500 500">
  <!-- Generator: Adobe Illustrator 30.1.0, SVG Export Plug-In . SVG Version: 2.1.1 Build 136)  -->
  <defs>
    <style>
      .st0 {
        fill: #ffa100;
      }

      .st1 {
        fill: #cccece;
      }

      .st2 {
        fill: #92cc6d;
      }

      .st3 {
        fill: #efac52;
      }

      .st4 {
        fill: #5fa324;
      }

      .st5 {
        fill: #a14d39;
      }

      .st6 {
        fill: #dfb886;
      }

      .st7 {
        fill: #e5bb88;
      }

      .st8 {
        fill: #f4f4f3;
      }

      .st9 {
        fill: #eef1f5;
      }

      .st10 {
        fill: #f3c07a;
      }

      .st11 {
        fill: #e1e5e5;
      }

      .st12 {
        fill: #629640;
      }

      .st13 {
        fill: #fce897;
      }

      .st14 {
        fill: #ff5c5c;
      }

      .st15 {
        fill: #fcd53f;
      }

      .st16 {
        fill: #f16941;
      }

      .st17 {
        fill: #d6aa79;
      }

      .st18 {
        fill: #2bb3e2;
      }

      .st19 {
        fill: #eb3d38;
      }

      .st20 {
        fill: #f4f4f4;
      }

      .st21 {
        fill: #fcd541;
      }

      .st22 {
        fill: #e1e8ed;
      }

      .st23 {
        fill: #c68d7b;
      }

      .st24 {
        fill: #ff4848;
      }

      .st25 {
        fill: #d89339;
      }

      .st26 {
        fill: #f4f3f2;
      }

      .st27 {
        fill: #334452;
      }

      .st28 {
        fill: #d6d8d8;
      }

      .st29 {
        fill: #fadcb2;
      }

      .st30 {
        fill: #eaeeef;
      }

      .st31 {
        fill: #d13737;
      }

      .st32 {
        fill: #edf3f4;
      }

      .st33 {
        fill: #d9dcdd;
      }

      .st34 {
        fill: #ffbf3e;
      }

      .st35 {
        fill: #bcccce;
      }

      .st36 {
        fill: #2f3846;
      }

      .st37 {
        fill: #fce4c3;
      }

      .st38 {
        fill: #0074bc;
      }

      .st39 {
        fill: #ccd5d6;
      }

      .st40 {
        fill: #da2f47;
      }

      .st41 {
        fill: #e2e7e8;
      }

      .st42 {
        fill: #966661;
      }

      .st43 {
        fill: #f6eeb6;
      }

      .st44 {
        fill: #069cc4;
      }

      .st45 {
        fill: #f6acb9;
      }

      .st46 {
        fill: #ee8430;
      }

      .st47 {
        fill: #fff;
      }

      .st48 {
        fill: #77c433;
      }

      .st49 {
        fill: #ef3535;
      }

      .st50 {
        fill: #d1dbe0;
      }

      .st51 {
        fill: #e5a44e;
      }

      .st52 {
        fill: #f8c23b;
      }

      .st53 {
        fill: #feb502;
      }

      .st54 {
        fill: #fff0de;
      }

      .st55 {
        fill: #f7473d;
      }

      .st56 {
        fill: #54c8e3;
      }

      .st57 {
        fill: #fed428;
      }

      .st58 {
        fill: #ccd9db;
      }

      .st59 {
        fill: #ffd221;
      }

      .st60 {
        fill: #c47b47;
      }

      .st61 {
        fill: #317c31;
      }

      .st62 {
        fill: #d89341;
      }

      .st63 {
        fill: #32b8ce;
      }

      .st64 {
        fill: #f1da95;
      }

      .st65 {
        fill: #efca9c;
      }

      .st66 {
        fill: #f2cda0;
      }

      .st67 {
        fill: #fcc27c;
      }

      .st68 {
        opacity: .4;
      }

      .st69 {
        fill: #573739;
      }

      .st70 {
        opacity: .2;
      }

      .st71 {
        fill: #ffa35f;
      }

      .st72 {
        fill: #dc3f48;
      }

      .st73 {
        fill: #ff8a21;
      }

      .st74 {
        fill: #ff6e6e;
      }

      .st75 {
        fill: #404c51;
      }

      .st76 {
        fill: #c69866;
      }

      .st77 {
        fill: #f1b65c;
      }

      .st78 {
        fill: #ffd67b;
      }

      .st79 {
        fill: #f9b741;
      }

      .st80 {
        fill: #edc494;
      }

      .st81 {
        fill: #dcecf6;
      }

      .st82 {
        fill: #5f6f77;
      }

      .st83 {
        fill: #fdeec2;
      }

      .st84 {
        fill: #eaedef;
      }

      .st85 {
        fill: #c4363c;
      }

      .st86 {
        fill: #77b255;
      }

      .st87 {
        fill: #ffac33;
      }

      .st88 {
        fill: #b53939;
      }

      .st89 {
        fill: #af6a3a;
      }

      .st90 {
        fill: #e02828;
      }

      .st91 {
        fill: #efcba0;
      }

      .st92 {
        fill: #3f4a56;
      }

      .st93 {
        fill: #f5f7f7;
      }

      .st94 {
        fill: #dfe8ea;
      }

      .st95 {
        fill: #e54c4c;
      }

      .st96 {
        fill: #ff962e;
      }

      .st97 {
        fill: #04c1ea;
      }

      .st98 {
        fill: #cbd4d8;
      }

      .st99 {
        fill: #f7bd77;
      }

      .st100 {
        fill: #ffda9f;
      }

      .st101 {
        fill: #c66002;
      }
    </style>
  </defs>
  <g>
    <g>
      <g>
        <circle class="st92" cx="39.8" cy="460.5" r="19.5"/>
        <path class="st36" d="M49.7,470.3c5.5-5.5,5.5-14.3,0-19.8-5.5-5.5-14.3-5.5-19.8,0-5.5,5.5-5.5,14.3,0,19.8,5.5,5.5,14.3,5.5,19.8,0Z"/>
        <g>
          <rect class="st92" x="51.8" y="471.6" width="3.8" height="5" transform="translate(-319.5 176.9) rotate(-45)"/>
          <path class="st36" d="M67.6,481.1h0s-9.3-7.2-9.3-7.2c-.6-.5-1.5-.4-2.1.1l-1.3,1.3-1.3,1.3c-.6.6-.6,1.5-.1,2.1l7.2,9.3h0c.1.1.2.3.3.4,1.9,1.9,5,1.9,6.9,0,1.9-1.9,1.9-5,0-6.9-.1-.1-.3-.2-.4-.3ZM66,486.4c-.8.8-2.1.8-2.9,0-.8-.8-.8-2.1,0-2.9.8-.8,2.1-.8,2.9,0,.8.8.8,2.1,0,2.9Z"/>
        </g>
      </g>
      <path class="st47" d="M40.2,450.1c-2.3.2-4.2,2-4.7,4.3,0,0,0,0,0,0-.3,1.9-1.3,3.6-2.8,4.7-1.7,1.3-2.7,3.3-2.5,5.6.2,3.4,3.3,6,6.7,6h.8c4.7,0,8.5-3.8,8.5-8.5v-6.9c0-3.2-2.7-5.7-6-5.3Z"/>
      <path class="st53" d="M41.6,464.2c0-2.5-2-4.5-4.5-4.5s-4.5,2-4.5,4.5,2,4.5,4.5,4.5,4.5-2,4.5-4.5Z"/>
    </g>
    <g>
      <path class="st43" d="M352.4,452.4c0-2.3-1.9-4.2-4.2-4.2s-4.2,1.9-4.2,4.2,1.9,4.2,4.2,4.2,4.2-1.9,4.2-4.2Z"/>
      <path class="st43" d="M358.8,451c0-2.3-1.9-4.2-4.2-4.2s-4.2,1.9-4.2,4.2,1.9,4.2,4.2,4.2,4.2-1.9,4.2-4.2Z"/>
      <path class="st43" d="M357,446.2c0-2.3-1.9-4.2-4.2-4.2s-4.2,1.9-4.2,4.2,1.9,4.2,4.2,4.2,4.2-1.9,4.2-4.2Z"/>
      <path class="st43" d="M363.1,447.3c0-2.3-1.9-4.2-4.2-4.2s-4.2,1.9-4.2,4.2,1.9,4.2,4.2,4.2,4.2-1.9,4.2-4.2Z"/>
      <path class="st43" d="M369.4,444.9c0-2.3-1.9-4.2-4.2-4.2s-4.2,1.9-4.2,4.2,1.9,4.2,4.2,4.2,4.2-1.9,4.2-4.2Z"/>
      <path class="st43" d="M365.7,451.5c0-2.3-1.9-4.2-4.2-4.2s-4.2,1.9-4.2,4.2,1.9,4.2,4.2,4.2,4.2-1.9,4.2-4.2Z"/>
      <path class="st64" d="M358,453.2c0-1.2-1-2.2-2.2-2.2s-2.2,1-2.2,2.2,1,2.2,2.2,2.2,2.2-1,2.2-2.2Z"/>
      <path class="st43" d="M372.1,451c0-2.3-1.9-4.2-4.2-4.2s-4.2,1.9-4.2,4.2,1.9,4.2,4.2,4.2,4.2-1.9,4.2-4.2Z"/>
      <path class="st43" d="M375.3,447.8c0-2.3-1.9-4.2-4.2-4.2s-4.2,1.9-4.2,4.2,1.9,4.2,4.2,4.2,4.2-1.9,4.2-4.2Z"/>
      <path class="st43" d="M378.9,452c0-2.3-1.9-4.2-4.2-4.2s-4.2,1.9-4.2,4.2,1.9,4.2,4.2,4.2,4.2-1.9,4.2-4.2Z"/>
      <path class="st43" d="M387.5,453.5c0-2.3-1.9-4.2-4.2-4.2s-4.2,1.9-4.2,4.2,1.9,4.2,4.2,4.2,4.2-1.9,4.2-4.2Z"/>
      <path class="st43" d="M384.8,450.4c0-2.3-1.9-4.2-4.2-4.2s-4.2,1.9-4.2,4.2,1.9,4.2,4.2,4.2,4.2-1.9,4.2-4.2Z"/>
      <path class="st43" d="M380.6,447.3c0-2.3-1.9-4.2-4.2-4.2s-4.2,1.9-4.2,4.2,1.9,4.2,4.2,4.2,4.2-1.9,4.2-4.2Z"/>
      <circle class="st64" cx="370.3" cy="449.2" r="2.2"/>
      <path class="st64" d="M362.4,447c0-.9-.7-1.6-1.6-1.6s-1.6.7-1.6,1.6.7,1.6,1.6,1.6,1.6-.7,1.6-1.6Z"/>
      <path class="st64" d="M349.7,453.1c0-.9-.7-1.6-1.6-1.6s-1.6.7-1.6,1.6.7,1.6,1.6,1.6,1.6-.7,1.6-1.6Z"/>
      <path class="st64" d="M373.4,450.4c0-.9-.7-1.6-1.6-1.6s-1.6.7-1.6,1.6.7,1.6,1.6,1.6,1.6-.7,1.6-1.6Z"/>
      <path class="st64" d="M356.2,451.5c0-.7-.6-1.4-1.4-1.4s-1.4.6-1.4,1.4.6,1.4,1.4,1.4,1.4-.6,1.4-1.4Z"/>
      <path class="st64" d="M377.6,453.1c0-.7-.6-1.3-1.4-1.3s-1.4.6-1.4,1.3.6,1.4,1.4,1.4,1.4-.6,1.4-1.4Z"/>
      <path class="st64" d="M382.1,449.7c0-.9-.7-1.6-1.6-1.6s-1.6.7-1.6,1.6.7,1.6,1.6,1.6,1.6-.7,1.6-1.6Z"/>
      <path class="st40" d="M354.6,489.8h-6.5c-1.3,0-2.4-1-2.5-2.3l-1.7-31.6h8.8l1.9,34Z"/>
      <polygon class="st84" points="363.4 489.8 354.6 489.8 352.7 455.9 361.6 455.9 363.4 489.8"/>
      <path class="st40" d="M377.2,489.8h6.5c1.3,0,2.4-1,2.5-2.3l1.7-31.6h-8.8l-1.9,34Z"/>
      <polygon class="st84" points="368.3 489.8 377.2 489.8 379 455.9 370.2 455.9 368.3 489.8"/>
      <polygon class="st40" points="369.8 489.8 362 489.8 361.5 455.9 370.3 455.9 369.8 489.8"/>
      <path class="st84" d="M389.2,455.9h-46.6c-.7,0-1.2-.5-1.2-1.2h0c0-.7.5-1.2,1.2-1.2h46.6c.7,0,1.2.5,1.2,1.2h0c0,.7-.5,1.2-1.2,1.2Z"/>
      <polygon class="st70" points="387.7 458.5 344.1 458.5 343.9 455.9 387.8 455.9 387.7 458.5"/>
    </g>
    <g>
      <g>
        <path class="st74" d="M286.1,459.2l-8.3-16.9c-7.4,3.2-12.5,10.5-12.5,19.1s5.2,15.9,12.5,19.1l8.3-21.3Z"/>
        <path class="st2" d="M307,461.5c0-9.1-5.9-16.9-14.1-19.7l-2.5,31.3,3.6,7.7c7.6-3.1,13-10.6,13-19.3Z"/>
        <path class="st15" d="M296.5,443.4c-3.1-1.8-6.6-2.8-10.4-2.8s-5.7.6-8.3,1.7c-.1.2-.3.4-.5.6-.8,1-2,2.3-2,4.8s1.2,3.9,2,4.8c.6.7.9,1.1.9,2s-.3,1.2-.9,2c-.8,1-2,2.3-2,4.8s1.2,3.9,2,4.8c.6.7.9,1.1.9,2s-.3,1.2-.9,2c-.8,1-2,2.3-2,4.9s1.2,3.9,2,4.8c.2.2.4.4.5.6,2.5,1.1,5.3,1.7,8.3,1.7s7.3-1,10.4-2.8c-.4-1.1-1.1-1.8-1.6-2.4-.6-.7-.9-1.1-.9-2s.3-1.2.9-2c.8-1,2-2.3,2-4.9s-1.2-3.9-2-4.8c-.6-.7-.9-1.1-.9-2s.3-1.2.9-2c.8-1,2-2.3,2-4.8s-1.2-3.9-2-4.8c-.6-.7-.9-1.1-.9-2s.3-1.2.9-2c.5-.6,1.2-1.4,1.6-2.4Z"/>
      </g>
      <path class="st50" d="M276.3,481.9h19.6v4.1c0,1-.8,1.8-1.8,1.8h-16c-1,0-1.8-.8-1.8-1.8v-4.1h0Z"/>
      <path class="st22" d="M307.3,460.3c1.5,0,2.7,1.3,2.5,2.8-1.4,11.9,0,21.1-23.7,21.1s-22.3-9.2-23.7-21.1c-.2-1.5,1-2.8,2.5-2.8h42.4Z"/>
      <path class="st50" d="M299.3,489.8h-26.2c-1.1,0-2-.9-2-2h0c0-1.1.9-2,2-2h26.2c1.1,0,2,.9,2,2h0c0,1.1-.9,2-2,2Z"/>
      <path class="st7" d="M298.3,453.8h0c-.7-.7-.7-1.9,0-2.6l8.3-8.3c.7-.7,1.9-.7,2.6,0h0c.7.7.7,1.9,0,2.6l-8.3,8.3c-.7.7-1.9.7-2.6,0Z"/>
      <path class="st76" d="M309.3,444.1c0-.7-.6-1.3-1.3-1.3s-1.3.6-1.3,1.3.6,1.3,1.3,1.3,1.3-.6,1.3-1.3Z"/>
    </g>
    <g>
      <path class="st91" d="M101,473.7h49.2v11.4c0,2.6-2.1,4.7-4.7,4.7h-39.8c-2.6,0-4.7-2.1-4.7-4.7v-11.4h0Z"/>
      <path class="st81" d="M101,462.4v16.1h19.9c2,0,3.8-1.3,4.4-3.1h0c0,0,0-.2,0-.2.2-.5.7-1.4,1.7-1.4h23.1v-6.6c0-2.6-2.1-4.7-4.7-4.7h-44.5Z"/>
      <path class="st97" d="M108.5,461.1s-2,0-2-1.9.6-1.5,1.1-1.7c.3-.1.6-.2.9-.2.1,0,.2,0,.3-.1.2-.2.2-.6-.1-.7-.8-.4-1.7-.6-2.7-.6-2.8.2-4.9,2.4-5,5.1,0,0,0,0,0,.1h0v14h19.9c1.4,0,2.5-1.2,2.5-2.6,0-1.2,1-2.1,2.1-2.1h24.6v-4.5c0-2.6-2.1-4.7-4.7-4.7h-37Z"/>
      <g>
        <path class="st62" d="M110.4,482.1h0c-.3-.3-.3-.7,0-1l16.3-16.3,1,1-16.3,16.3c-.3.3-.7.3-1,0Z"/>
        <path class="st9" d="M138.4,481.8c1.2,1.2,3.2,1.1,4.2-.3,6.6-8.8,5.9-21.4-2.1-29.5-8-8-20.6-8.7-29.5-2.1-1.4,1-1.5,3-.3,4.2l27.6,27.6Z"/>
        <path class="st14" d="M139.4,452c-7.4.4-19.2,11.5-19.2,11.5l4.4,4.4,4.4,4.4s11.1-11.8,11.5-19.2c0-.7-.5-1.2-1.2-1.2Z"/>
        <path class="st14" d="M140,451.6c-8-7.6-20.3-8.1-28.9-1.6-1.4,1-1.5,3-.3,4.2l3.2,3.2c13.6-11.8,23.5-7.2,25.9-5.7,0,0,.1,0,0-.1Z"/>
        <path class="st14" d="M141,452.6c7.6,8,8.1,20.3,1.6,28.9-1,1.4-3,1.5-4.2.3l-3.2-3.2c11.8-13.6,7.2-23.5,5.7-25.9,0,0,0-.1.1,0Z"/>
        <path class="st62" d="M140.6,452.7l-.7-.7c0,0,0-.2,0-.3l.9-.9c.3-.3.7-.3,1,0h0c.3.3.3.7,0,1l-.9.9c0,0-.2,0-.3,0Z"/>
      </g>
    </g>
    <g>
      <g>
        <g>
          <path class="st79" d="M227.1,456h-8.9c-.5,0-.9.4-.9.9s.4.9.9.9h8.9c.5,0,.9-.4.9-.9s-.4-.9-.9-.9Z"/>
          <path class="st79" d="M214.8,456.9l3.8-3.5c.4-.3.4-.9,0-1.3-.3-.4-.9-.4-1.3,0l-3.9,3.6-3.9-3.6s0,0,0,0c0,0,0,0,0,0,0,0,0,0,0,0,0,0,0,0,0,0,0,0,0,0,0,0,0,0,0,0,0,0,0,0,0,0,0,0,0,0,0,0,0,0s0,0,0,0c0,0,0,0,0,0,0,0,0,0,0,0,0,0,0,0,0,0,0,0,0,0,0,0,0,0,0,0,0,0,0,0,0,0,0,0,0,0,0,0,0,0l-3.9,3.6-3.9-3.6c-.4-.3-.9-.3-1.3,0l-3.5,3.8-3.5-3.8c-.2-.2-.6-.3-.9-.3-.3,0-.6,0-.9.3l-3.5,3.8-3.5-3.8c-.3-.4-.9-.4-1.3,0-.4.3-.4.9,0,1.3l3.6,4-3,3.3c-.3.4-.3.9,0,1.3.2.2.4.2.6.2s.5,0,.7-.3l2.9-3.2,3.5,3.8c.2.2.4.3.7.3s0,0,0,0l3.2,3.6-3.3,3.6c0,0-.2,0-.2.1-.2.2-.3.5-.3.7,0,.3,0,.5.3.7,0,0,.1.1.2.1l3.3,3.6-3.3,3.6c0,0-.2,0-.2.1-.2.2-.3.5-.3.7,0,.3,0,.5.3.7,0,0,.1.1.2.1l3.3,3.6-3.6,3.9c-.3.4-.3.9,0,1.3.2.2.4.2.6.2s.5,0,.7-.3l3.5-3.8,3.5,3.8c.2.2.4.3.7.3s.4,0,.6-.2c.4-.3.4-.9,0-1.3l-3.6-3.9,3.3-3.6c0,0,.2,0,.2-.1.2-.2.3-.5.3-.7,0-.3,0-.5-.3-.7,0,0-.1-.1-.2-.1l-3.3-3.6,3.3-3.6c0,0,.2,0,.2-.1.2-.2.3-.5.3-.7,0-.3,0-.5-.3-.7,0,0-.1-.1-.2-.1l-3.3-3.6,3.3-3.6c0,0,.2,0,.2-.1.2-.2.3-.5.3-.7,0-.1,0-.2,0-.3l3.7-3.4,3.9,3.6s0,0,0,0c0,0,0,0,0,0,0,0,0,0,0,0,0,0,0,0,0,0,0,0,0,0,.1,0,0,0,0,0,0,0,0,0,.1,0,.2,0s0,0,0,0,0,0,0,0c0,0,.1,0,.2,0,0,0,0,0,0,0,0,0,0,0,.1,0,0,0,0,0,0,0,0,0,0,0,0,0,0,0,0,0,0,0,0,0,0,0,0,0l3.9-3.6,3.9,3.6c.2.2.4.2.6.2s.5,0,.7-.3c.3-.4.3-.9,0-1.3l-3.8-3.5ZM188.3,457.3l3.1-3.4,3.1,3.4-3.1,3.4-3.1-3.4ZM198.6,479.7l-2.9,3.2-2.9-3.2,2.9-3.2,2.9,3.2ZM198.6,470.7l-2.9,3.2-2.9-3.2,2.9-3.2,2.9,3.2ZM192.9,461.8l2.9-3.2,2.9,3.2-2.9,3.2-2.9-3.2ZM199.5,460.1l-2.6-2.8,3-3.3,3.2,2.9-3.6,3.2ZM209,459.8l-3.2-2.9,3.2-2.9,3.2,2.9-3.2,2.9Z"/>
        </g>
        <g>
          <g>
            <path class="st92" d="M214.2,466.8c-.3,0-.5-.2-.5-.5v-4.5c0-.3.2-.5.5-.5s.5.2.5.5v4.5c0,.3-.2.5-.5.5Z"/>
            <path class="st92" d="M217.8,466.8c-.3,0-.5-.2-.5-.5v-4.5c0-.3.2-.5.5-.5s.5.2.5.5v4.5c0,.3-.2.5-.5.5Z"/>
          </g>
          <rect class="st85" x="209.2" y="484.8" width="13.8" height="3.3"/>
          <rect class="st14" x="207.8" y="488.1" width="16.6" height="1.1" rx=".4" ry=".4"/>
          <rect class="st14" x="207.8" y="483.7" width="16.6" height="1.1" rx=".4" ry=".4"/>
          <path class="st21" d="M213.7,465.7h4.7c.9,0,1.6.7,1.6,1.6v5h-7.8v-5c0-.9.7-1.6,1.6-1.6Z"/>
          <path class="st21" d="M216,472.3h-3.9l1.1,1.7c.2.3.5.4.8.4h3.9c.3,0,.6-.2.8-.4l1.1-1.7h-3.9Z"/>
          <path class="st21" d="M216,480.7c-.7,0-1.4-.3-1.9-.7-.6-.5-.9-1.3-.9-2.1s.3-.7.7-.7.7.3.7.7.2.8.5,1.1c.3.3.7.4,1.1.4.6,0,1.2-.6,1.3-1.3,0-.7-.3-1.3-.9-1.5-.7-.3-1.2-.9-1.2-1.7v-2.1c0-.4.3-.7.7-.7s.7.3.7.7v2.1c0,.2.1.3.3.4,1.2.5,2,1.7,1.8,2.9-.1,1.3-1.2,2.3-2.5,2.5-.1,0-.2,0-.3,0Z"/>
          <path class="st92" d="M215.1,465.7h-1.4c-.9,0-1.6.7-1.6,1.6v1.4l2.9-2.9Z"/>
          <path class="st92" d="M219.9,467.5v-.3c0-.9-.7-1.6-1.6-1.6h-.8l-5.5,5.5v1.1h3.1l4.7-4.7Z"/>
          <polygon class="st92" points="219.9 472.3 219.9 470 217.7 472.3 219.9 472.3"/>
          <path class="st92" d="M223,489.8c-.2,0-.3,0-.4-.2l-6.5-9.3-6.5,9.3c-.2.2-.5.3-.7.1-.2-.2-.3-.5-.1-.7l6.9-9.8c0-.1.2-.2.4-.2h.1c.2,0,.3,0,.4.2l6.9,9.8c.2.2.1.5-.1.7,0,0-.2,0-.3,0Z"/>
        </g>
      </g>
      <path class="st21" d="M230.7,460.3l-5.3-8.2c-.2-.3-.6-.5-1-.5h-41.5c-.7,0-1.2.5-1.2,1.2h0v8.3c0,0,0,.2,0,.2.1.5.6,1,1.2,1h7.5v26.4c0,.7.5,1.2,1.2,1.2h8.3c.7,0,1.2-.5,1.2-1.2v-26.4h28.7c.4,0,.8-.3,1-.7.2-.4.2-.8,0-1.2ZM190.4,459.8h-6.3v-5.9h6.3v5.9ZM198.7,487.4h-5.9v-6.6h5.9v6.6ZM198.7,478.5h-5.9v-6.6h5.9v6.6ZM198.7,469.5h-5.9v-7.3h5.9v7.3ZM198.7,456v3.8h-5.9v-5.9h5.9v2.1ZM217,453.9v5.9h-6.9v-5.9h6.9ZM201.1,456v-2.1h6.7v5.9h-6.7v-3.8ZM224.4,459.8h-5v-5.9h4.4l3.8,5.9h-3.1Z"/>
    </g>
    <g>
      <path class="st31" d="M449.8,444.9h-18.1c-5.4,0-9.8,4.4-9.8,9.8v4.9l18.8,17.3,18.8-17.3v-4.9c0-5.4-4.4-9.8-9.8-9.8Z"/>
      <g>
        <g>
          <path class="st21" d="M448.5,452.8h2.7c.6,0,1.2.5,1.2,1.2v20.3h-5v-20.3c0-.6.5-1.2,1.2-1.2Z" transform="translate(114.7 -88.6) rotate(12.9)"/>
          <path class="st53" d="M449.5,453.7l-4.5,19.8,1.1.2,4.8-20.9c-.6-.1-1.2.3-1.3.9Z"/>
        </g>
        <g>
          <path class="st21" d="M434,444.6h2.7c.6,0,1.2.5,1.2,1.2v37.6h-5v-37.6c0-.6.5-1.2,1.2-1.2Z" transform="translate(-101.1 121.9) rotate(-14.3)"/>
          <path class="st53" d="M428.4,447l9.3,36.4,1.1-.3-9.6-37.6c-.6.2-.9.8-.8,1.4Z"/>
        </g>
        <g>
          <path class="st21" d="M431.1,448.3h2.7c.6,0,1.2.5,1.2,1.2v37.6h-5v-37.6c0-.6.5-1.2,1.2-1.2Z" transform="translate(-67.9 73.5) rotate(-9)"/>
          <path class="st53" d="M427.1,450.1l5.9,37.1,1.1-.2-6.1-38.3c-.6.1-1,.7-.9,1.3Z"/>
        </g>
        <g>
          <path class="st21" d="M444.3,447.7h2.7c.6,0,1.2.5,1.2,1.2v37.6h-5v-37.6c0-.6.5-1.2,1.2-1.2Z" transform="translate(147 -105.3) rotate(16.1)"/>
          <path class="st53" d="M448.3,448.9l-10.4,36.1,1.1.3,10.8-37.2c-.6-.1-1.2.2-1.4.8Z"/>
        </g>
        <g>
          <path class="st21" d="M446,447.1h2.7c.6,0,1.2.5,1.2,1.2v37.6h-5v-37.6c0-.6.5-1.2,1.2-1.2Z" transform="translate(-67.5 75.8) rotate(-9)"/>
          <path class="st53" d="M442.1,448.9l5.9,37.1,1.1-.2-6.1-38.3c-.6.1-1,.7-.9,1.3Z"/>
        </g>
        <g>
          <path class="st21" d="M437.2,440.6h2.7c.6,0,1.2.5,1.2,1.2v37.6h-5v-37.6c0-.6.5-1.2,1.2-1.2Z" transform="translate(-15.7 15.5) rotate(-2)"/>
          <path class="st53" d="M435.5,441.9l1.3,37.6h1.1s-1.3-38.8-1.3-38.8c-.6,0-1.1.6-1.1,1.2Z"/>
        </g>
        <g>
          <path class="st21" d="M441.4,441.3h2.7c.6,0,1.2.5,1.2,1.2v37.6h-5v-37.6c0-.6.5-1.2,1.2-1.2Z" transform="translate(64.9 -54.6) rotate(7.6)"/>
          <path class="st53" d="M442.7,442.3l-5,37.3h1.1c0,.1,5.1-38.3,5.1-38.3-.6,0-1.2.4-1.2,1Z"/>
        </g>
      </g>
      <path class="st24" d="M450.2,460.7v.5c0,5.3-4.3,9.8-9.7,9.7-5.2,0-9.3-4.3-9.3-9.5v-.7c0-.6-.5-1-1-1h-8.3l4.9,25.8c.5,2.6,2.7,4.4,5.3,4.4h17.2c2.6,0,4.8-1.9,5.3-4.4l4.9-25.8h-8.3c-.6,0-1,.5-1,1Z"/>
      <path class="st49" d="M426.8,485.4c.4,2.2,2.1,3.9,4.3,4.3l-5.6-30.1h-3.5l4.9,25.8Z"/>
      <path class="st49" d="M454.7,485.4l4.9-25.8h-3.5l-5.6,30.1c2.1-.4,3.8-2.1,4.3-4.3Z"/>
    </g>
  </g>
  <g>
    <g>
      <path class="st7" d="M461.6,82.1h0c.1,1.3-.8,2.4-2.1,2.5l-26.3,1.8c-.7,0-1.3-.5-1.4-1.2h0c0-.7.4-1.3,1.1-1.4l26.1-3.7c1.3-.2,2.4.7,2.6,2Z"/>
      <path class="st78" d="M434.9,99.2c-.5,0-.8-.4-.8-.8s-.1-.5-.3-.7c-.3-.4-.7-.9-.7-1.8s.4-1.4.7-1.8c.2-.3.3-.4.3-.7s-.1-.5-.3-.7c-.3-.4-.7-.9-.7-1.8s.4-1.4.7-1.8c.2-.3.3-.4.3-.7s-.1-.5-.3-.7c-.3-.4-.7-.9-.7-1.8s.4-1.4.7-1.8c.2-.3.3-.4.3-.7s.4-.8.8-.8.8.4.8.8c0,.9-.4,1.4-.7,1.8-.2.3-.3.4-.3.7s.1.5.3.7c.3.4.7.9.7,1.8s-.4,1.4-.7,1.8c-.2.3-.3.4-.3.7s.1.5.3.7c.3.4.7.9.7,1.8s-.4,1.4-.7,1.8c-.2.3-.3.4-.3.7s.1.5.3.7c.3.4.7.9.7,1.8s-.4.8-.8.8Z"/>
      <path class="st7" d="M461.7,90.4h0c0,1.3-1.2,2.2-2.5,2.1l-26.3-2.5c-.7,0-1.2-.7-1.2-1.4h0c0-.7.6-1.2,1.3-1.2l26.4.6c1.3,0,2.3,1.1,2.2,2.4Z"/>
      <path class="st78" d="M437.5,99.2c-.5,0-.8-.4-.8-.8s-.1-.5-.3-.7c-.3-.4-.7-.9-.7-1.8s.4-1.4.7-1.8c.2-.3.3-.4.3-.7s-.1-.5-.3-.7c-.3-.4-.7-.9-.7-1.8s.4-1.4.7-1.8c.2-.3.3-.4.3-.7s-.1-.5-.3-.7c-.3-.4-.7-.9-.7-1.8s.4-1.4.7-1.8c.2-.3.3-.4.3-.7s.4-.8.8-.8.8.4.8.8c0,.9-.4,1.4-.7,1.8-.2.3-.3.4-.3.7s.1.5.3.7c.3.4.7.9.7,1.8s-.4,1.4-.7,1.8c-.2.3-.3.4-.3.7s.1.5.3.7c.3.4.7.9.7,1.8s-.4,1.4-.7,1.8c-.2.3-.3.4-.3.7s.1.5.3.7c.3.4.7.9.7,1.8s-.4.8-.8.8Z"/>
      <path class="st50" d="M426,117.4h19v4c0,1-.8,1.8-1.8,1.8h-15.5c-1,0-1.8-.8-1.8-1.8v-4h0Z"/>
      <path class="st22" d="M456,96.5c1.4,0,2.6,1.2,2.4,2.7-1.3,11.5,0,20.4-23,20.4s-21.6-8.9-23-20.4c-.2-1.4,1-2.7,2.4-2.7h41.1Z"/>
      <path class="st40" d="M413.2,105.6h44.5c.2-1.4.3-2.9.5-4.5h-45.5c.2,1.6.3,3.1.5,4.5Z"/>
    </g>
    <g>
      <path class="st3" d="M300.1,122.2c-1.1,1.1-2.8,1.6-4.3,1.1l-36.7-11.2.5-1.7c1.9-6.8,5.6-13,10.7-18.1,5-5,11.3-8.7,18.1-10.7l1.7-.5,11.2,36.7c.5,1.5,0,3.2-1.1,4.3Z"/>
      <path class="st21" d="M261.3,110.9l35,10.7c2,.6,3.8-1.2,3.2-3.2l-10.7-35c-6.3,1.8-12.3,5.2-17.3,10.2-5,5-8.4,11-10.2,17.3Z"/>
      <path class="st3" d="M291.2,85.8c-.6.6-1.3,1.1-2.2,1.3-5.7,1.6-10.9,4.7-15.1,8.9s-7.3,9.4-8.9,15.1c-.8,2.7-3.6,4.3-6.3,3.5-2.7-.8-4.3-3.6-3.5-6.3,2.1-7.3,6.1-14.1,11.5-19.5,5.4-5.4,12.2-9.4,19.5-11.5,2.7-.8,5.6.8,6.3,3.5.5,1.9,0,3.8-1.3,5Z"/>
      <g>
        <path class="st88" d="M279.1,103.9c-2.7-1.1-5.8.3-6.9,3-1.1,2.7.3,5.8,3,6.9s5.8-.3,6.9-3-.3-5.8-3-6.9Z"/>
        <g>
          <path class="st72" d="M279.2,106.5c-.2,0-.5,0-.6.3,0,.2,0,.5.3.6.2,0,.5,0,.6-.3,0-.2,0-.5-.3-.6Z"/>
          <path class="st72" d="M275.2,105.6c-.2,0-.5,0-.6.3,0,.2,0,.5.3.6.2,0,.5,0,.6-.3,0-.2,0-.5-.3-.6Z"/>
          <path class="st72" d="M276,111.8c-.2,0-.5,0-.6.3,0,.2,0,.5.3.6.2,0,.5,0,.6-.3,0-.2,0-.5-.3-.6Z"/>
          <path class="st72" d="M281,110c-.2,0-.5,0-.6.3s0,.5.3.6c.2,0,.5,0,.6-.3,0-.2,0-.5-.3-.6Z"/>
          <path class="st72" d="M276.4,108.7c-.2,0-.5,0-.6.3,0,.2,0,.5.3.6.2,0,.5,0,.6-.3,0-.2,0-.5-.3-.6Z"/>
          <path class="st72" d="M273.1,107.6c-.2,0-.5,0-.6.3,0,.2,0,.5.3.6.2,0,.5,0,.6-.3,0-.2,0-.5-.3-.6Z"/>
        </g>
      </g>
      <g>
        <path class="st88" d="M294.4,105.4c-2.7-1.1-5.8.3-6.9,3-1.1,2.7.3,5.8,3,6.9,2.7,1.1,5.8-.3,6.9-3,1.1-2.7-.3-5.8-3-6.9Z"/>
        <g>
          <path class="st72" d="M296.3,109.8c-.2,0-.5,0-.6.3s0,.5.3.6c.2,0,.5,0,.6-.3s0-.5-.3-.6Z"/>
          <path class="st72" d="M293.3,109.9c-.2,0-.5,0-.6.3,0,.2,0,.5.3.6s.5,0,.6-.3,0-.5-.3-.6Z"/>
          <path class="st72" d="M289.5,111.7c-.2,0-.5,0-.6.3,0,.2,0,.5.3.6.2,0,.5,0,.6-.3s0-.5-.3-.6Z"/>
          <path class="st72" d="M294.1,113.3c-.2,0-.5,0-.6.3,0,.2,0,.5.3.6.2,0,.5,0,.6-.3,0-.2,0-.5-.3-.6Z"/>
          <path class="st72" d="M293,106.5c-.2,0-.5,0-.6.3,0,.2,0,.5.3.6.2,0,.5,0,.6-.3,0-.2,0-.5-.3-.6Z"/>
          <path class="st72" d="M289.9,107.8c-.2,0-.5,0-.6.3,0,.2,0,.5.3.6.2,0,.5,0,.6-.3,0-.2,0-.5-.3-.6Z"/>
        </g>
      </g>
      <g>
        <path class="st88" d="M289.3,89.8c-2.7-1.1-5.8.3-6.9,3-1.1,2.7.3,5.8,3,6.9,2.7,1.1,5.8-.3,6.9-3,1.1-2.7-.3-5.8-3-6.9Z"/>
        <g>
          <path class="st72" d="M291,92.8c-.2,0-.5,0-.6.3,0,.2,0,.5.3.6.2,0,.5,0,.6-.3,0-.2,0-.5-.3-.6Z"/>
          <path class="st72" d="M288,95.4c-.2,0-.5,0-.6.3,0,.2,0,.5.3.6.2,0,.5,0,.6-.3,0-.2,0-.5-.3-.6Z"/>
          <path class="st72" d="M286.2,97.8c-.2,0-.5,0-.6.3,0,.2,0,.5.3.6.2,0,.5,0,.6-.3,0-.2,0-.5-.3-.6Z"/>
          <path class="st72" d="M291.2,95.9c-.2,0-.5,0-.6.3s0,.5.3.6c.2,0,.5,0,.6-.3,0-.2,0-.5-.3-.6Z"/>
          <path class="st72" d="M287.9,90.7c-.2,0-.5,0-.6.3,0,.2,0,.5.3.6.2,0,.5,0,.6-.3s0-.5-.3-.6Z"/>
          <path class="st72" d="M284.5,92.6c-.2,0-.5,0-.6.3,0,.2,0,.5.3.6.2,0,.5,0,.6-.3,0-.2,0-.5-.3-.6Z"/>
        </g>
      </g>
      <path class="st27" d="M281.3,100.8c-.3.9.1,1.9,1,2.3.9.3,1.9-.1,2.3-1,.3-.9-.1-1.9-1-2.3-.9-.3-1.9.1-2.3,1ZM283.8,101.8c-.2.5-.7.7-1.2.5-.5-.2-.7-.7-.5-1.2.2-.5.7-.7,1.2-.5.5.2.7.7.5,1.2Z"/>
      <path class="st27" d="M270.7,101.7c-.3.9.1,1.9,1,2.3.9.3,1.9-.1,2.3-1,.3-.9-.1-1.9-1-2.3-.9-.3-1.9.1-2.3,1ZM273.2,102.7c-.2.5-.7.7-1.2.5-.5-.2-.7-.7-.5-1.2.2-.5.7-.7,1.2-.5.5.2.7.7.5,1.2Z"/>
      <path class="st48" d="M285.3,94.7c-1-.5-2.1-.3-2.9.3-.7-1.1-2.1-1.6-3.4-1.2-1.5.5-2.4,2.2-1.9,3.7l1.3-.4c-.3-.8.2-1.7,1-2,.3,0,.6,0,.9,0h0s.7,0,1.2.8c.4.6,1.1.5,1.3.4.1,0,.3-.1.4-.2.4-.3,1.1-.4,1.6-.2.8.4,1.1,1.3.8,2.1l1.2.6c.7-1.5,0-3.2-1.5-3.9Z"/>
      <path class="st21" d="M289.4,126.2h0c-.6,0-1.1-.5-1.1-1.1v-6.6h2.3v6.6c0,.6-.5,1.1-1.1,1.1Z"/>
      <path class="st21" d="M284.8,124h0c-.6,0-1.1-.5-1.1-1.1v-6.6h2.3v6.6c0,.6-.5,1.1-1.1,1.1Z"/>
      <path class="st48" d="M280.2,111.2c.4,1,1.3,1.7,2.3,1.9-.3,1.3.3,2.6,1.5,3.2,1.4.7,3.2.2,4-1.3l-1.2-.6c-.4.8-1.3,1.1-2.1.7-.3-.1-.5-.3-.6-.6h0s-.5-.6-.3-1.4c.2-.7-.4-1.1-.6-1.2-.1,0-.3-.1-.5-.1-.5,0-1-.5-1.2-1-.3-.8.1-1.7.9-2l-.5-1.3c-1.5.6-2.3,2.3-1.7,3.8Z"/>
    </g>
    <g>
      <path class="st65" d="M353.5,90.7c-11.7,0-21.1,9.5-21.1,21.1s1.6,3.5,3.5,3.5,3.5-1.6,3.5-3.5h35.3c0-11.7-9.5-21.1-21.1-21.1Z"/>
      <rect class="st26" x="337.8" y="97.9" width="4.9" height="4.9" rx="1.4" ry="1.4" transform="translate(28.7 270) rotate(-45)"/>
      <rect class="st26" x="336.3" y="106.1" width="4.9" height="4.9" rx="1.4" ry="1.4" transform="translate(22.4 271.3) rotate(-45)"/>
      <rect class="st26" x="360.7" y="89.2" width="4.9" height="4.9" rx="1.4" ry="1.4" transform="translate(41.6 283.6) rotate(-45)"/>
      <path class="st95" d="M347.6,106.5c0-3-2.4-5.4-5.4-5.4s-5.4,2.4-5.4,5.4,2.4,5.4,5.4,5.4,5.4-2.4,5.4-5.4Z"/>
      <path class="st95" d="M364.6,93.6c0-3-2.4-5.4-5.4-5.4s-5.4,2.4-5.4,5.4,2.4,5.4,5.4,5.4,5.4-2.4,5.4-5.4Z"/>
      <circle class="st86" cx="352.4" cy="94.1" r="6.2"/>
      <path class="st86" d="M351.8,100.3c0-3.4-2.8-6.2-6.2-6.2s-6.2,2.8-6.2,6.2,2.8,6.2,6.2,6.2,6.2-2.8,6.2-6.2Z"/>
      <circle class="st86" cx="366" cy="96" r="6.2"/>
      <rect class="st89" x="343.4" y="93.6" width="4.9" height="4.9" rx="1.4" ry="1.4"/>
      <rect class="st89" x="356.8" y="89.3" width="4.9" height="4.9" rx="1.4" ry="1.4" transform="translate(40.3 280.9) rotate(-45)"/>
      <rect class="st89" x="337" y="109.1" width="4.9" height="4.9" rx="1.4" ry="1.4" transform="translate(20.5 272.7) rotate(-45)"/>
      <path class="st29" d="M360.7,90.7c-11.8-.2-21.4,9.4-21.4,21.1s-1.6,3.5-3.5,3.5h42.5c1.8,0,3.2-1.4,3.2-3.2h0c0-11.6-9.2-21.3-20.8-21.4Z"/>
      <path class="st7" d="M368.2,104.9c0-.6-.5-1.1-1.1-1.1s-1.1.5-1.1,1.1.5,1.1,1.1,1.1,1.1-.5,1.1-1.1Z"/>
      <path class="st7" d="M377.9,108.6c0-.6-.5-1.1-1.1-1.1s-1.1.5-1.1,1.1.5,1.1,1.1,1.1,1.1-.5,1.1-1.1Z"/>
      <path class="st7" d="M358.1,108.6c0-.6-.5-1.1-1.1-1.1s-1.1.5-1.1,1.1.5,1.1,1.1,1.1,1.1-.5,1.1-1.1Z"/>
      <path class="st7" d="M364.2,98.2c0-1.2-1-2.1-2.1-2.1s-2.1,1-2.1,2.1,1,2.1,2.1,2.1,2.1-1,2.1-2.1Z"/>
      <circle class="st7" cx="350.8" cy="100.8" r="1.7"/>
    </g>
  </g>
  <g>
    <g>
      <g>
        <g>
          <ellipse class="st93" cx="252.6" cy="390.3" rx="27" ry="18.3"/>
          <path class="st39" d="M252.6,410c-15.7,0-27.9-8.6-27.9-19.6s12.3-19.6,27.9-19.6,27.9,8.6,27.9,19.6-12.3,19.6-27.9,19.6ZM252.6,373.3c-7.1,0-13.7,1.9-18.6,5.2-4.8,3.2-7.4,7.4-7.4,11.8s2.6,8.6,7.4,11.8c5,3.4,11.6,5.2,18.6,5.2s13.7-1.9,18.6-5.2c4.8-3.2,7.4-7.4,7.4-11.8s-2.6-8.6-7.4-11.8c-5-3.4-11.6-5.2-18.6-5.2Z"/>
        </g>
        <ellipse class="st39" cx="252.6" cy="387.7" rx="23.1" ry="15"/>
        <g>
          <path class="st99" d="M275,385.7c0,8.4-10,15.2-22.4,15.2s-22.4-6.8-22.4-15.2,10-15.2,22.4-15.2,22.4,6.8,22.4,15.2Z"/>
          <ellipse class="st3" cx="252.6" cy="383.9" rx="20.6" ry="13.5"/>
        </g>
      </g>
      <rect class="st89" x="265.6" y="384.5" width="4.4" height="5.9" rx="1.5" ry="1.5"/>
      <path class="st89" d="M258.8,393.7l-1.3-1.8c-.5-.7-.5-1.7,0-2.4l1.3-1.8c.5-.7,1.3-.7,1.8,0l1.3,1.8c.5.7.5,1.7,0,2.4l-1.3,1.8c-.5.7-1.3.7-1.8,0Z"/>
      <path class="st46" d="M267.5,390.7c0,1.1-1,1.9-2.2,1.9s-2.2-.9-2.2-1.9,1-1.9,2.2-1.9,2.2.9,2.2,1.9Z"/>
      <path class="st46" d="M270.1,380.8c0,1.1-1,1.9-2.2,1.9s-2.2-.9-2.2-1.9,1-1.9,2.2-1.9,2.2.9,2.2,1.9Z"/>
      <g>
        <path class="st22" d="M265.2,379c0-6.2-6.7-12.9-15-12.9s-15,6.7-15,12.9h0s0,0,0,.1c0,4.4,6.7,7.9,15,7.9s15-3.5,15-7.9,0,0,0-.1h0Z"/>
        <path class="st47" d="M255.2,382.4h0c.3-.4.8-.4,1.1,0l.9,1.2c.3.4.3,1,0,1.4h0c-.3.4-.8.4-1.1,0l-.9-1.2c-.3-.4-.3-1,0-1.4Z"/>
        <path class="st98" d="M237.2,374.4h0c.3-.4.8-.4,1.1,0l.9,1.2c.3.4.3,1,0,1.4h0c-.3.4-.8.4-1.1,0l-.9-1.2c-.3-.4-.3-1,0-1.4Z"/>
        <path class="st47" d="M256.4,370.9h0c.4,0,.7.4.7,1v1.7c0,.6-.3,1-.7,1h0c-.4,0-.7-.4-.7-1v-1.7c0-.6.3-1,.7-1Z"/>
        <path class="st98" d="M243.7,370h0c.3-.4.8-.4,1.1,0l.9,1.2c.3.4.3,1,0,1.4h0c-.3.4-.8.4-1.1,0l-.9-1.2c-.3-.4-.3-1,0-1.4Z"/>
        <path class="st98" d="M251.3,379.8h0c.3.4.3,1,0,1.4l-.9,1.2c-.3.4-.8.4-1.1,0h0c-.3-.4-.3-1,0-1.4l.9-1.2c.3-.4.8-.4,1.1,0Z"/>
        <path class="st98" d="M250.3,370.5h0c-.3-.4-.3-1,0-1.4l.9-1.2c.3-.4.8-.4,1.1,0h0c.3.4.3,1,0,1.4l-.9,1.2c-.3.4-.8.4-1.1,0Z"/>
        <path class="st98" d="M258.3,379.9h0c0-.6.3-1,.7-1h1.3c.4,0,.7.4.7,1h0c0,.6-.3,1-.7,1h-1.3c-.4,0-.7-.4-.7-1Z"/>
        <path class="st47" d="M241.7,380.4h0c-.3-.4-.3-1,0-1.4l.9-1.2c.3-.4.8-.4,1.1,0h0c.3.4.3,1,0,1.4l-.9,1.2c-.3.4-.8.4-1.1,0Z"/>
      </g>
      <path class="st86" d="M242.9,391.7c0-1-.6-1.8-1.4-1.8s-1.4.8-1.4,1.8.6,1.8,1.4,1.8,1.4-.8,1.4-1.8Z"/>
      <path class="st86" d="M239.1,387c0-1-.6-1.8-1.4-1.8s-1.4.8-1.4,1.8.6,1.8,1.4,1.8,1.4-.8,1.4-1.8Z"/>
      <path class="st86" d="M248.7,389.6c0-1-.6-1.8-1.4-1.8s-1.4.8-1.4,1.8.6,1.8,1.4,1.8,1.4-.8,1.4-1.8Z"/>
      <path class="st86" d="M253,393.7c0-1-.6-1.8-1.4-1.8s-1.4.8-1.4,1.8.6,1.8,1.4,1.8,1.4-.8,1.4-1.8Z"/>
    </g>
    <g>
      <path class="st93" d="M92.6,419.3c-8.3,0-12.9-1.9-12.9-2.9h0c0,0-2.4-33.4-2.4-33.4h30.7l-2.4,33.4h0c0,1-4.5,2.9-12.9,2.9Z"/>
      <path class="st17" d="M78.1,393.7l1.7,22.6h0c0,1,4.5,3,12.9,3s12.9-1.9,12.9-2.9h0s1.7-22.7,1.7-22.7h-29.1Z"/>
      <path class="st41" d="M107,383.7l-2.4,32.4c-.7.8-4.9,2.3-12.1,2.3s-11.4-1.5-12.1-2.3l-2.4-32.4h28.9M108.8,382.1h-32.4l2.5,34.3c0,2.1,6.1,3.7,13.7,3.7s13.7-1.7,13.7-3.7l2.5-34.3h0Z"/>
      <ellipse class="st6" cx="92.6" cy="393.7" rx="13.7" ry="3.7"/>
      <path class="st18" d="M91.1,379.9v13.9c0,.3.7.5,1.6.5s1.6-.2,1.6-.5v-13.9h-3.2Z"/>
      <path class="st69" d="M99.5,413.6c0-.8-.7-1.5-1.5-1.5s-1.5.7-1.5,1.5.7,1.5,1.5,1.5,1.5-.7,1.5-1.5Z"/>
      <circle class="st42" cx="89.5" cy="415" r="1.5"/>
      <path class="st23" d="M94.1,408.3c0-.8-.7-1.5-1.5-1.5s-1.5.7-1.5,1.5.7,1.5,1.5,1.5,1.5-.7,1.5-1.5Z"/>
      <circle class="st69" cx="88.1" cy="411.3" r="1.5"/>
      <path class="st23" d="M99.6,409.7c0-.8-.6-1.4-1.4-1.4s-1.4.6-1.4,1.4.6,1.4,1.4,1.4,1.4-.6,1.4-1.4Z"/>
      <path class="st42" d="M94.7,412.8c0-.6-.5-1.1-1.1-1.1s-1.1.5-1.1,1.1.5,1.1,1.1,1.1,1.1-.5,1.1-1.1Z"/>
      <path class="st42" d="M102.4,415c0-.6-.5-1.1-1.1-1.1s-1.1.5-1.1,1.1.5,1.1,1.1,1.1,1.1-.5,1.1-1.1Z"/>
      <path class="st69" d="M85.6,414.7c0-.8-.7-1.5-1.5-1.5s-1.5.7-1.5,1.5.7,1.5,1.5,1.5,1.5-.7,1.5-1.5Z"/>
      <path class="st69" d="M104.2,410.2c0-.8-.7-1.5-1.5-1.5s-1.5.7-1.5,1.5.7,1.5,1.5,1.5,1.5-.7,1.5-1.5Z"/>
      <circle class="st42" cx="85.1" cy="407.9" r="1.5"/>
      <path class="st69" d="M95.8,416.2c0-.8-.7-1.5-1.5-1.5s-1.5.7-1.5,1.5.7,1.5,1.5,1.5,1.5-.7,1.5-1.5Z"/>
      <path class="st39" d="M102.7,378c-2.9-.5-6.4-.8-10.1-.8s-7.2.3-10.1.8h-8.2v4.1c0,2.7,8.2,5,18.2,5s18.2-2.2,18.2-5v-4.1h-8.2Z"/>
      <ellipse class="st41" cx="92.6" cy="378" rx="18.2" ry="5"/>
      <path class="st39" d="M98.8,374.7c-1.8-.3-3.9-.5-6.2-.5s-4.5.2-6.2.5h-5.1v2.6c0,1.7,5.1,3.1,11.3,3.1s11.3-1.4,11.3-3.1v-2.6h-5.1Z"/>
      <path class="st41" d="M103.9,374.7c0,1.7-5.1,3.1-11.3,3.1s-11.3-1.4-11.3-3.1,5.1-3.1,11.3-3.1,11.3,1.4,11.3,3.1Z"/>
      <path class="st18" d="M104.1,356.4c-.6-.6-1.6-.6-2.3,0l-7.6,7.6c-2,2-3.1,4.6-3.1,7.4v2.9c0,.3.7.5,1.6.5s1.6-.2,1.6-.5v-2.9c0-1.9.8-3.8,2.1-5.1l7.6-7.6c.6-.6.6-1.6,0-2.3h0Z"/>
      <path class="st44" d="M104.1,357.5c0-.7-.5-1.2-1.2-1.2s-1.2.5-1.2,1.2.5,1.2,1.2,1.2,1.2-.5,1.2-1.2Z"/>
    </g>
    <g>
      <g>
        <path class="st33" d="M190.9,392.2l-3.6-8.2c-1.1-2.5-1.6-5.1-1.6-7.8v-1.3c0-1.1.3-2.2.8-3.1.6-1,1-2.2.9-3.5-.2-2.6-2.3-4.7-4.9-5-3.4-.4-6.2,2.2-6.2,5.5s.3,2.1.8,2.9c.6.9.9,2,.9,3.1v1.3c0,2.7-.6,5.3-1.6,7.8l-3.6,8.2c-.6,1.3-.9,2.6-.9,4.1s.2,2.5.7,3.6c.1.3.2.5.4.8l4.8,10.8c.3.6.9,1.1,1.6,1.1h4.9c.7,0,1.4-.4,1.6-1.1l4.8-10.8c.1-.3.3-.5.4-.8.4-1.1.7-2.3.7-3.6s-.3-2.9-.9-4.1Z"/>
        <path class="st55" d="M177.9,378.7h8c-.1-.8-.2-1.7-.2-2.5v-1.3c0-.1,0-.2,0-.3h-7.7c0,.1,0,.2,0,.3v1.3c0,.8,0,1.7-.2,2.5Z"/>
        <path class="st55" d="M188.2,386.1l-.9-2c-.3-.7-.5-1.3-.7-2h-9.4c-.2.7-.5,1.4-.7,2l-.9,2h12.7Z"/>
      </g>
      <g>
        <path class="st30" d="M177.9,392.2l-3.6-8.2c-1.1-2.5-1.6-5.1-1.6-7.8v-1.3c0-1.1.3-2.2.8-3.1.6-1,1-2.2.9-3.5-.2-2.6-2.3-4.7-4.9-5-3.4-.4-6.2,2.2-6.2,5.5s.3,2.1.8,2.9c.6.9.9,2,.9,3.1v1.3c0,2.7-.6,5.3-1.6,7.8l-3.6,8.2c-.6,1.3-.9,2.6-.9,4.1s.2,2.5.7,3.6c.1.3.2.5.4.8l4.8,10.8c.3.6.9,1.1,1.6,1.1h4.9c.7,0,1.4-.4,1.6-1.1l4.8-10.8c.1-.3.3-.5.4-.8.4-1.1.7-2.3.7-3.6s-.3-2.9-.9-4.1Z"/>
        <path class="st55" d="M164.9,378.7h8c-.1-.8-.2-1.7-.2-2.5v-1.3c0-.1,0-.2,0-.3h-7.7c0,.1,0,.2,0,.3v1.3c0,.8,0,1.7-.2,2.5Z"/>
        <path class="st55" d="M175.2,386.1l-.9-2c-.3-.7-.5-1.3-.7-2h-9.4c-.2.7-.5,1.4-.7,2l-.9,2h12.7Z"/>
      </g>
      <g>
        <circle class="st82" cx="158" cy="398.3" r="14.3" transform="translate(-235.4 228.4) rotate(-45)"/>
        <g>
          <path class="st75" d="M160.3,391c0,1.3-1,2.3-2.3,2.3s-2.3-1-2.3-2.3,1-2.3,2.3-2.3,2.3,1,2.3,2.3Z"/>
          <g>
            <path class="st75" d="M156.4,396.7c0,1.3-1,2.3-2.3,2.3s-2.3-1-2.3-2.3,1-2.3,2.3-2.3,2.3,1,2.3,2.3Z"/>
            <path class="st75" d="M164.2,396.7c0,1.3-1,2.3-2.3,2.3s-2.3-1-2.3-2.3,1-2.3,2.3-2.3,2.3,1,2.3,2.3Z"/>
          </g>
        </g>
      </g>
    </g>
    <g>
      <path class="st36" d="M325.5,366.3h16.8c1.6,0,2.9,1.3,2.9,2.9v2.2h-22.6v-2.2c0-1.6,1.3-2.9,2.9-2.9Z"/>
      <path class="st36" d="M341.1,390.9c0,1.7-3.2,3.1-7.2,3.1s-7.2-1.4-7.2-3.1,3.2-3.1,7.2-3.1,7.2,1.4,7.2,3.1Z"/>
      <path class="st38" d="M351.1,372.3c-2.2-2.2-5.3-3.4-8.4-3.4h-17.5c-6.3,0-11.5,5-11.7,11.1-.1,3.2,1,6.1,3.2,8.4,2.2,2.3,5.1,3.5,8.3,3.5s0,0,0,0c2.5,0,4.8-1.3,6.1-3.4l.7-1.1c.5-.7,1.2-1.1,2.1-1.1h0c.8,0,1.6.4,2.1,1.1l.7,1.1c1.4,2.1,3.7,3.4,6.1,3.4.2,0,.4,0,.6,0,5.8-.3,10.6-5,10.9-10.8.2-3.3-1-6.5-3.3-8.8ZM350.3,380.8c-.2,3.7-3.3,6.8-7.1,7-2.5.1-4.9-1-6.4-3-.7-1-1.8-1.5-3-1.5-1.2,0-2.3.6-3,1.5-1.4,1.9-3.6,3-6,3s-3.9-.8-5.4-2.3c-1.4-1.5-2.2-3.4-2.1-5.5.1-4,3.6-7.2,7.7-7.2h17.7c2.1,0,4,.8,5.4,2.4,1.4,1.5,2.1,3.5,2,5.6Z"/>
      <path class="st36" d="M336,387.4c-.5-.7-1.2-1.1-2.1-1.1h0c-.8,0-1.6.4-2.1,1.1l-2.3,3.6h8.8l-2.3-3.6Z"/>
      <path class="st36" d="M337.1,396.2c-.7-.1-1.4,0-2.1.2-.7.3-1.5.3-2.2,0-.6-.2-1.3-.3-2.1-.2-1.6.3-2.9,1.5-3.2,3.1-.5,2.5,1.4,4.7,3.8,4.7s1,0,1.4-.3c.7-.3,1.5-.3,2.2,0,.4.2.9.3,1.4.3,2.4,0,4.3-2.2,3.8-4.7-.3-1.6-1.6-2.8-3.2-3.1Z"/>
      <path class="st36" d="M330.1,400h7.6v8.6c0,.6-.5,1.1-1.1,1.1h-5.4c-.6,0-1.1-.5-1.1-1.1v-8.6h0Z"/>
      <path class="st36" d="M343.7,407.7h-9.8v-4.9h9.8c7.2,0,13-5.8,13-13v-16.9h4.9v16.9c0,9.8-8,17.8-17.8,17.8Z"/>
      <path class="st38" d="M355.5,366.3h7.2v6.3c0,.7-.5,1.2-1.2,1.2h-4.8c-.7,0-1.2-.5-1.2-1.2v-6.3h0Z"/>
      <rect class="st38" x="330.1" y="406" width="7.6" height="1.7"/>
    </g>
    <g>
      <path class="st66" d="M440.6,385.3c4.9-4.9,4.9-12.9,0-17.8s-12.9-4.9-17.8,0c-4.9,4.9-4.9,12.9,0,17.8s12.9,4.9,17.8,0Z"/>
      <rect class="st89" x="438.7" y="376.6" width="5.6" height="5.6" rx="1.6" ry="1.6"/>
      <path class="st95" d="M433.3,372.2c2-2,2-5.3,0-7.3-2-2-5.3-2-7.3,0-2,2-2,5.3,0,7.3s5.3,2,7.3,0Z"/>
      <rect class="st26" x="435.8" y="372.5" width="4.7" height="4.7" rx="1.4" ry="1.4" transform="translate(-136.7 419.6) rotate(-45)"/>
      <rect class="st89" x="432.4" y="370.2" width="5.6" height="5.6" rx="1.6" ry="1.6"/>
      <path class="st86" d="M440.5,385.4c2.8-2.8,2.8-7.2,0-10-2.8-2.8-7.2-2.8-10,0-2.8,2.8-2.8,7.2,0,10s7.2,2.8,10,0Z"/>
      <path class="st86" d="M432.8,377.4c2.8-2.8,2.8-7.2,0-10-2.8-2.8-7.2-2.8-10,0-2.8,2.8-2.8,7.2,0,10,2.8,2.8,7.2,2.8,10,0Z"/>
      <rect class="st26" x="430.9" y="379" width="5.6" height="5.6" rx="1.6" ry="1.6"/>
      <path class="st95" d="M432.8,382.7c2.4-2.4,2.4-6.3,0-8.6s-6.3-2.4-8.6,0-2.4,6.3,0,8.6c2.4,2.4,6.3,2.4,8.6,0Z"/>
      <rect class="st89" x="423.5" y="368.9" width="5.6" height="5.6" rx="1.6" ry="1.6"/>
      <path class="st29" d="M401,409.4l-2.1-2.1c-4.4-4.4-4.4-11.4,0-15.8l24-24h0c6.3,6.3,6.3,16.4,0,22.6l-19.3,19.3c-.7.7-1.9.7-2.6,0Z"/>
      <path class="st7" d="M417,384.3l-17.1,17.1c-1.4,1.4-2,3.2-1.8,4.9.2.3.5.6.8.9l2.1,2.1c.7.7,1.9.7,2.6,0l19.3-19.3c3-3,4.6-6.9,4.7-10.8-3.8.4-7.6,2.1-10.5,5Z"/>
      <path class="st29" d="M400.9,409.3h0c4.4,4.4,11.4,4.4,15.8,0l24-24h0c-6.3-6.3-16.4-6.3-22.6,0l-17.1,17.1c-1.9,1.9-1.9,5,0,6.8Z"/>
      <path class="st7" d="M422.8,399.4c.7-.7.7-1.9,0-2.7-.7-.7-1.9-.7-2.7,0s-.7,1.9,0,2.7c.7.7,1.9.7,2.7,0Z"/>
      <path class="st7" d="M412,391.3c.7-.7.7-1.9,0-2.7-.7-.7-1.9-.7-2.7,0-.7.7-.7,1.9,0,2.7.7.7,1.9.7,2.7,0Z"/>
      <path class="st7" d="M410.7,402.3c1-1,1-2.5,0-3.5-1-1-2.5-1-3.5,0-1,1-1,2.5,0,3.5s2.5,1,3.5,0Z"/>
      <path class="st7" d="M422.8,387.2c.5-.5.5-1.3,0-1.8s-1.3-.5-1.8,0c-.5.5-.5,1.3,0,1.8.5.5,1.3.5,1.8,0Z"/>
      <path class="st7" d="M422.9,374.8c.5-.5.5-1.3,0-1.8-.5-.5-1.3-.5-1.8,0s-.5,1.3,0,1.8,1.3.5,1.8,0Z"/>
      <path class="st7" d="M401,396.7c.5-.5.5-1.3,0-1.8-.5-.5-1.3-.5-1.8,0-.5.5-.5,1.3,0,1.8.5.5,1.3.5,1.8,0Z"/>
    </g>
  </g>
  <g>
    <g>
      <g>
        <rect class="st28" x="388.3" y="154.4" width="17.6" height="1.4" transform="translate(-9.6 283) rotate(-38.8)"/>
        <path class="st3" d="M399,155.1c-.4,0-.8-.2-1.1-.5-.5-.6-.4-1.5.2-2l5-4c.6-.5,1.5-.4,2,.2.5.6.4,1.5-.2,2l-5,4c-.3.2-.6.3-.9.3Z"/>
        <rect class="st28" x="383.3" y="154" width="17.6" height="1.4" transform="translate(15.5 344.2) rotate(-48.2)"/>
        <path class="st3" d="M393.9,154.4c-.4,0-.9,0-1.2-.3-.6-.5-.6-1.4-.1-2l4.3-4.8c.5-.6,1.4-.6,2-.1.6.5.6,1.4.1,2l-4.3,4.8c-.2.3-.5.4-.8.5Z"/>
      </g>
      <path class="st36" d="M383.6,185.8h8.5c1.2,0,2.1,1,2.1,2.1v5.4h-12.8v-5.4c0-1.2,1-2.1,2.1-2.1Z"/>
      <g>
        <path class="st24" d="M371.6,157.4h31.9c.8,0,1.4.6,1.4,1.4v9.7c0,2.4-2,4.4-4.4,4.4h-26.1c-2.4,0-4.4-2-4.4-4.4v-9.7c0-.8.6-1.4,1.4-1.4Z"/>
        <path class="st24" d="M414.3,167.7l-9.3-1v-5l9.3-1c2.1-.2,3.9,1.4,3.9,3.5h0c0,2.1-1.8,3.8-3.9,3.5Z"/>
      </g>
      <path class="st36" d="M406.1,190.3l-6.7-17.4h-4.6l6.7,17.3c.2.6-.3,1.2-.9,1l-10.1-2.9-1.2,4.2,11.1,3.2c.5.2,1.1.3,1.7.3,1,0,2-.4,2.8-1.1,1.3-1.2,1.8-2.9,1.2-4.6Z"/>
      <path class="st36" d="M375.2,191.1c-.6.2-1.1-.4-.9-1l6.7-17.3h-4.6l-6.7,17.4c-.5,1.7,0,3.4,1.2,4.6.8.7,1.8,1.1,2.8,1.1s1.1-.1,1.7-.3l11.1-3.2-1.2-4.2-10.1,2.9Z"/>
      <g>
        <path class="st0" d="M390.4,185c.4-1,.4-2.3-.8-3.8-.2-.2-.5-.2-.6,0-.2.5-.5,1.1-1,.9-.7-.2-.4-2,0-3.2,0-.2-.2-.4-.3-.2-.9.8-2.5,2.5-2,4.6,0,.2-.2.3-.3.2-.1,0-.2-.2-.4-.3-.1-.1-.4,0-.4.2,0,.5.3,1.3,1,2.2.5.7,1.3,1.1,2.2,1.1h0c1.2,0,2.2-.7,2.6-1.8Z"/>
        <path class="st59" d="M388.8,185.5c.2-.5.4-1.2.2-1.9,0-.2-.3-.2-.4-.1,0,0,0,0,0,0-.3.3-.8.3-1.1,0-.1-.2-.2-.4-.3-.6,0-.2-.3-.2-.4,0-.3.4-.6,1.3,0,2.7.2.4.6.7,1,.7h0c.5,0,.9-.3,1-.7Z"/>
      </g>
      <rect class="st36" x="375.1" y="172.9" width="25.6" height="6.6"/>
    </g>
    <g>
      <path class="st41" d="M312.7,158.1l13.1,1.4c1.2.1,2.3-.7,2.4-1.8.1-1.2-.8-2.3-2-2.3l-13.2-.4c-.3-1.4-1.5-2.5-2.9-2.5h-5.9c-.2,0-.4.1-.4.3h0c0,.2.2.4.4.5l4.3.3c.3,0,.6.3.5.6h0c0,.3-.3.6-.6.5l-4.3-.3c-.2,0-.4.2-.5.4h0c0,.3.2.5.4.5l4.3.3c.3,0,.6.3.5.6,0,.3-.3.6-.6.5l-4.3-.3c-.2,0-.4.2-.5.4h0c0,.3.2.5.4.5l4.3.3c.3,0,.6.3.5.6,0,.3-.3.6-.6.5l-4.3-.3c-.2,0-.4.2-.5.4h0c0,.2.1.4.4.5l5.8.8c1.5.2,2.8-.7,3.3-2.1Z"/>
      <ellipse class="st93" cx="305.6" cy="177.5" rx="23.8" ry="12.1"/>
      <path class="st39" d="M305.6,190.4c-13.8,0-24.6-5.7-24.6-12.9s10.8-12.9,24.6-12.9,24.6,5.7,24.6,12.9-10.8,12.9-24.6,12.9ZM305.6,166.3c-6.2,0-12,1.2-16.4,3.4-4.2,2.1-6.5,4.9-6.5,7.8s2.3,5.7,6.5,7.8c4.4,2.2,10.2,3.4,16.4,3.4s12-1.2,16.4-3.4c4.2-2.1,6.5-4.9,6.5-7.8s-2.3-5.7-6.5-7.8c-4.4-2.2-10.2-3.4-16.4-3.4Z"/>
      <ellipse class="st39" cx="305.6" cy="175.8" rx="20.3" ry="9.9"/>
      <path class="st78" d="M325.3,174.4c0,5.5-8.8,10-19.7,10s-19.7-4.5-19.7-10,8.8-12.4,19.7-12.4,19.7,6.9,19.7,12.4Z"/>
      <path class="st34" d="M305.6,183.1c-10.4,0-18.5-4.3-18.5-9.8s.4-.8.8-.8.8.4.8.8c0,4.4,7.7,8.2,16.9,8.2s16.9-3.7,16.9-8.2.4-.8.8-.8.8.4.8.8c0,5.5-8.1,9.8-18.5,9.8Z"/>
      <path class="st34" d="M305.6,179.3c-8.1,0-14.5-3.4-14.5-7.8s.4-.8.8-.8.8.4.8.8c0,3.3,5.9,6.1,12.8,6.1s12.8-2.8,12.8-6.1.4-.8.8-.8.8.4.8.8c0,4.4-6.4,7.8-14.5,7.8Z"/>
      <path class="st34" d="M304.4,168.4c-.5,0-.8-.4-.8-.8s-.1-.5-.3-.7c-.3-.4-.7-.9-.7-1.8s.4-1.4.7-1.8c.2-.3.3-.4.3-.7s-.1-.5-.3-.7c-.3-.4-.7-.9-.7-1.8s.4-1.4.7-1.8c.2-.3.3-.4.3-.7s-.1-.5-.3-.7c-.3-.4-.7-.9-.7-1.8s.4-1.4.7-1.8c.2-.3.3-.4.3-.7s.4-.8.8-.8.8.4.8.8c0,.9-.4,1.4-.7,1.8-.2.3-.3.4-.3.7s.1.5.3.7c.3.4.7.9.7,1.8s-.4,1.4-.7,1.8c-.2.3-.3.4-.3.7s.1.5.3.7c.3.4.7.9.7,1.8s-.4,1.4-.7,1.8c-.2.3-.3.4-.3.7s.1.5.3.7c.3.4.7.9.7,1.8s-.4.8-.8.8Z"/>
      <path class="st34" d="M307,168.4c-.5,0-.8-.4-.8-.8s-.1-.5-.3-.7c-.3-.4-.7-.9-.7-1.8s.4-1.4.7-1.8c.2-.3.3-.4.3-.7s-.1-.5-.3-.7c-.3-.4-.7-.9-.7-1.8s.4-1.4.7-1.8c.2-.3.3-.4.3-.7s-.1-.5-.3-.7c-.3-.4-.7-.9-.7-1.8s.4-1.4.7-1.8c.2-.3.3-.4.3-.7s.4-.8.8-.8.8.4.8.8c0,.9-.4,1.4-.7,1.8-.2.3-.3.4-.3.7s.1.5.3.7c.3.4.7.9.7,1.8s-.4,1.4-.7,1.8c-.2.3-.3.4-.3.7s.1.5.3.7c.3.4.7.9.7,1.8s-.4,1.4-.7,1.8c-.2.3-.3.4-.3.7s.1.5.3.7c.3.4.7.9.7,1.8s-.4.8-.8.8Z"/>
      <path class="st40" d="M312.6,166.8h0s-1.9-2-1.9-2h0c-.6-.7-1.9-1.2-3.4-1.2s-1.8.2-2.5.5c-.6-.2-1.3-.3-2.1-.3-2.7,0-4.8,1.2-4.8,2.8s1.6,2.4,3.7,2.7c.7,0,1.2.6,1.2,1.3v7.9c0,.5.4,1,.9,1,.6,0,1-.4,1-1v-7.9c0-.3.3-.5.5-.3.2,0,.4.2.6.3.3.1.5.4.5.7v2.5c0,.5.3.9.8,1,.6.1,1.2-.4,1.2-1v-2.8s0,0,.1,0c2.7,0,4.8-1.2,4.8-2.8s-.2-1-.6-1.4Z"/>
    </g>
    <g>
      <path class="st67" d="M477.6,184c-.9,0-1.8-.2-2.7-.7-16.3-9.5-23.1-24.6-23.3-25.2-1.2-2.7,0-5.9,2.8-7,2.7-1.2,5.8,0,7,2.8.1.2,6.7,11.7,18.9,20.3,2.4,1.7,3.4,4.8,1.9,7.3-1,1.7-2.8,2.7-4.6,2.7Z"/>
      <g>
        <path class="st16" d="M479.7,186.8c-.7,0-1.4-.2-2.1-.6-19.8-11.5-27.8-29.7-28.2-30.4-.9-2.1,0-4.5,2.1-5.4,2.1-.9,4.5,0,5.4,2.1.1.3,7.5,16.6,24.8,26.6,2,1.1,2.6,3.7,1.5,5.6-.8,1.3-2.1,2-3.6,2Z"/>
        <path class="st16" d="M449.3,150.6l2.9,1.1,1.1-2.9c.3-.8-.5-1.5-1.3-1.2l-2.8,1.3c-.8.3-.7,1.4,0,1.7Z"/>
        <path class="st16" d="M485.3,183.3l-3,.8.8,3c.2.8,1.3.9,1.7.2l1.6-2.7c.4-.7-.2-1.6-1-1.4Z"/>
      </g>
      <path class="st21" d="M481.1,180.2c.4,0,.8-.2.9-.6.3-.5,0-1.2-.4-1.4-1.3-.7-2.3-.5-3-.3-.7.2-1.1.3-2-.4-.3-.2-.5-.9-.7-1.5-.4-1.1-.8-2.3-1.8-3.1-.8-.6-1.8-.8-2.8-.9-.9-.1-1.7-.2-2.2-.6-.3-.3-.5-1.1-.6-1.8-.2-1-.4-2.2-1.2-3.1-.7-.8-1.8-1.1-2.8-1.3-.8-.2-1.6-.4-2-.9-.3-.3-.3-1.2-.4-1.9,0-1-.1-2.2-.8-3.1-.6-.9-1.6-1.3-2.6-1.7-.8-.3-1.5-.7-1.8-1.1-.2-.4-.2-1.2,0-2,0-1,.2-2.2-.3-3.2-.3-.5-.9-.8-1.4-.5-.5.3-.8.9-.5,1.4.2.5.1,1.3,0,2.1-.1,1.1-.2,2.3.4,3.3.6,1,1.8,1.5,2.8,2,.7.3,1.4.6,1.7,1,.3.4.3,1.2.4,2,0,1.1.1,2.3.8,3.2.8.9,2,1.3,3.1,1.6.7.2,1.5.4,1.8.7.4.4.5,1.2.7,2,.2,1.1.4,2.2,1.2,3,.9.9,2.2,1,3.3,1.2.7,0,1.5.2,1.7.4.5.4.8,1.3,1.1,2.1.3,1,.7,2,1.5,2.6,1.7,1.2,2.9.9,3.8.7.6-.1.9-.2,1.5.1.2,0,.3.1.5.1Z"/>
      <path class="st67" d="M472.1,190.2c-1,0-1.9-.4-2.8-.8-18.5-6.1-24.4-26.1-24.7-26.7-1.2-2.9,0-6.2,2.9-7.5,2.9-1.2,6.2,0,7.5,2.9.1.2,6.1,13.4,20,21.5,2.7,1.6,3.6,5,2.1,7.7-1.1,1.8-3,2.8-4.9,2.8Z"/>
    </g>
    <g>
      <path class="st3" d="M247.4,182.5c0-1.5-8-2.7-17.9-2.7s-17.9,1.2-17.9,2.7h0v2s0,0,0,0c0,0,0,0,0,0h0v2c0,1.5,8,2.7,17.9,2.7s17.9-1.2,17.9-2.7v-2s0,0,0,0c0,0,0,0,0,0v-2Z"/>
      <path class="st4" d="M246,180.2c0-1.4-7.4-2.5-16.6-2.5s-16.6,1.1-16.6,2.5h0v1.9c0,1.4,7.4,2.5,16.6,2.5s16.6-1.1,16.6-2.5v-1.9h0Z"/>
      <path class="st5" d="M247.4,175.6c0-1.5-8-2.7-17.9-2.7s-17.9,1.2-17.9,2.7h0v2s0,0,0,0c0,0,0,0,0,0h0v2c0,1.5,8,2.7,17.9,2.7s17.9-1.2,17.9-2.7v-2s0,0,0,0c0,0,0,0,0,0v-2Z"/>
      <path class="st53" d="M236.7,182.1c-4.4,2.7-10,2.7-14.4,0l-10.8-6.7c-.7-.3-.5-1.3.2-1.4l17.9-3.4,17.9,3.4c.7.1.8,1.1.2,1.4l-10.8,6.7Z"/>
      <path class="st95" d="M246,173.1c0-1.4-7.4-2.5-16.6-2.5s-16.6,1.1-16.6,2.5h0v1.9c0,1.4,7.4,2.5,16.6,2.5s16.6-1.1,16.6-2.5v-1.9h0Z"/>
      <path class="st3" d="M248.4,166.7c0-7.8-8.5-14.1-19-14.1s-19,6.3-19,14.1,8.5,8.8,19,8.8,19-1,19-8.8Z"/>
      <path class="st29" d="M224.8,159c0-.5-.4-.9-.9-.9s-.9.4-.9.9.4.9.9.9.9-.4.9-.9Z"/>
      <path class="st29" d="M226.6,154.4c0-.5-.4-.9-.9-.9s-.9.4-.9.9.4.9.9.9.9-.4.9-.9Z"/>
      <path class="st29" d="M230.4,162.7c0-.5-.4-.9-.9-.9s-.9.4-.9.9.4.9.9.9.9-.4.9-.9Z"/>
      <path class="st29" d="M217.8,158.1c0-.5-.4-.9-.9-.9s-.9.4-.9.9.4.9.9.9.9-.4.9-.9Z"/>
      <path class="st29" d="M246,164.5c0-.5-.4-.9-.9-.9s-.9.4-.9.9.4.9.9.9.9-.4.9-.9Z"/>
      <path class="st29" d="M217.8,163.6c0-.5-.4-.9-.9-.9s-.9.4-.9.9.4.9.9.9.9-.4.9-.9Z"/>
      <path class="st29" d="M231.3,156.7c0-.5-.4-.9-.9-.9s-.9.4-.9.9.4.9.9.9.9-.4.9-.9Z"/>
      <path class="st29" d="M242.6,158.5c0-.5-.4-.9-.9-.9s-.9.4-.9.9.4.9.9.9.9-.4.9-.9Z"/>
      <path class="st29" d="M237.5,160.3c0-.5-.4-.9-.9-.9s-.9.4-.9.9.4.9.9.9.9-.4.9-.9Z"/>
    </g>
  </g>
  <g>
    <g>
      <g>
        <path class="st36" d="M208.1,303.9l-4.1-4.1c-1.8-1.8-1.8-4.6,0-6.4l3-3c1.8-1.8,4.6-1.8,6.4,0l4.1,4.1-2.2,2.2-4.1-4.1c-.6-.6-1.5-.6-2.1,0l-3,3c-.6.6-.6,1.5,0,2.1l4.1,4.1-2.2,2.2Z"/>
        <path class="st36" d="M235.3,331.1l-4.1-4.1,2.2-2.2,4.1,4.1c.6.6,1.5.6,2.1,0l3-3c.6-.6.6-1.5,0-2.1l-4.1-4.1,2.2-2.2,4.1,4.1c1.8,1.8,1.8,4.6,0,6.4l-3,3c-1.8,1.8-4.6,1.8-6.4,0Z"/>
      </g>
      <circle class="st92" cx="224.3" cy="310.8" r="20.2" transform="translate(-154.1 249.6) rotate(-45)"/>
      <circle class="st87" cx="224.3" cy="310.8" r="15.4"/>
      <path class="st29" d="M223.6,303.4h-2.7c-.6,0-1.1-.3-1.4-.8-.3-.5-.9-.9-1.5-.9-.9,0-1.6.8-1.6,1.6,0,.4.1.7.3.9.2.2.2.5,0,.7-.2.3-.3.6-.3.9,0,.9.7,1.6,1.6,1.6.6,0,1.2-.3,1.5-.9.3-.5.8-.8,1.4-.8h2.7v-2.6Z"/>
      <path class="st80" d="M218,304.8c0,.2,0,.3-.2.5-.2.2-.3.5-.3.8,0,.1,0,.2-.2.2-.1,0-.2,0-.2-.2,0-.4.1-.7.3-1.1.1-.2.1-.3,0-.5-.2-.3-.3-.7-.3-1.1h0c0-.1,0-.2.2-.2.1,0,.2,0,.2.2,0,.3,0,.6.3.8.1.1.2.3.2.5Z"/>
      <path class="st60" d="M230.6,299.9c-.9,0-1.8.2-2.6.6l-3.2,1.8c-.5.3-1,.3-1.5.3,0,0-.1,0-.2,0-.3,0-.6.3-.7.7,0,.3,0,.6.3.8-.2.2-.3.4-.3.6s.1.5.3.6c-.2.2-.3.5-.3.8,0,.3.4.6.7.7,0,0,.1,0,.2,0,.5,0,1.1,0,1.5.3l3.2,1.8c.7.4,1.5.6,2.4.6,2.8,0,5.1-2.4,4.9-5.2-.2-2.5-2.2-4.5-4.7-4.6Z"/>
      <path class="st86" d="M235.3,316.3c-.2-.2-.3-.6-.2-.9.7-1.4.4-3.1.4-3.1,0-.4.2-.9.6-1,.4,0,.9.2,1,.6,0,0,.4,2.2-.5,4.1-.2.4-.7.6-1.1.4,0,0-.2,0-.2-.2Z"/>
      <path class="st86" d="M215,312.5c.3-.1.7,0,.9.3,1,1.2,2.6,1.6,2.6,1.6.4.1.7.6.6,1-.1.4-.6.7-1,.6,0,0-2.2-.6-3.5-2.2-.3-.4-.2-.9.1-1.2,0,0,.2-.1.2-.1Z"/>
      <path class="st86" d="M224.4,298.3c.3,0,.6.2.7.6.4,1.5,1.8,2.5,1.8,2.5.4.3.4.8.2,1.1-.3.4-.8.4-1.1.2,0,0-1.8-1.4-2.4-3.4-.1-.4.1-.9.6-1,0,0,.2,0,.3,0Z"/>
      <path class="st86" d="M221.6,312.9c0-.3,0-.7.4-.9,1.4-.8,2.1-2.3,2.1-2.3.2-.4.7-.6,1.1-.4.4.2.6.7.4,1.1,0,0-.9,2.1-2.8,3.1-.4.2-.9,0-1.1-.3,0,0,0-.2,0-.3Z"/>
      <path class="st24" d="M228.1,321.1c.4-.4.4-1,0-1.4-.4-.4-1-.4-1.4,0-.4.4-.4,1,0,1.4.4.4,1,.4,1.4,0Z"/>
      <path class="st24" d="M214.1,309c.4-.4.4-1,0-1.4-.4-.4-1-.4-1.4,0-.4.4-.4,1,0,1.4s1,.4,1.4,0Z"/>
      <path class="st24" d="M237.4,307.6c.4-.4.4-1,0-1.4-.4-.4-1-.4-1.4,0-.4.4-.4,1,0,1.4.4.4,1,.4,1.4,0Z"/>
      <path class="st13" d="M221.7,316.8c-2,.5-3.2,2.4-2.7,4.4.5,2,2.4,3.2,4.4,2.7l-1.7-7.1Z"/>
      <path class="st57" d="M218.6,321.3c-.5-2.2.9-4.4,3-4.9l.2.8c-1.7.4-2.8,2.2-2.4,3.9.4,1.7,2.2,2.8,3.9,2.4l.2.8c-2.2.5-4.4-.9-4.9-3Z"/>
      <path class="st13" d="M226.6,313.9c.5,2,2.5,3.1,4.5,2.6,2-.5,3.1-2.5,2.6-4.5l-7.1,1.9Z"/>
      <path class="st57" d="M231.2,316.8c-2.2.6-4.4-.7-5-2.9l.8-.2c.5,1.7,2.3,2.8,4,2.3,1.7-.5,2.8-2.3,2.3-4l.8-.2c.6,2.2-.7,4.4-2.9,5Z"/>
    </g>
    <g>
      <path class="st63" d="M383.4,308.7l-24.6-.3s2.8,22.2,24.6,22.2,24.6-22.2,24.6-22.2l-24.6.3Z"/>
      <path class="st78" d="M406.8,307.6c0,5.5-10.5,9.9-23.4,9.9s-23.4-4.5-23.4-9.9,10.5-9.9,23.4-9.9,23.4,4.5,23.4,9.9Z"/>
      <path class="st63" d="M383.4,303.1c10.7,0,19.7,3.1,22.5,7.2.6-.9.9-1.8.9-2.7,0-5.5-10.5-9.9-23.4-9.9s-23.4,4.5-23.4,9.9.3,1.8.9,2.7c2.8-4.2,11.8-7.2,22.5-7.2Z"/>
      <path class="st46" d="M378.5,313.4c0,1-1.3,1.8-2.8,1.8s-2.8-.8-2.8-1.8,1.3-1.8,2.8-1.8,2.8.8,2.8,1.8Z"/>
      <path class="st46" d="M395.2,306.9c0,1-1.3,1.8-2.8,1.8s-2.8-.8-2.8-1.8,1.3-1.8,2.8-1.8,2.8.8,2.8,1.8Z"/>
      <ellipse class="st46" cx="369.7" cy="307.9" rx="2.8" ry="1.8"/>
      <path class="st56" d="M383.4,318.8c-13.8,0-24.6-4.9-24.6-11.1s10.8-11.1,24.6-11.1,24.6,4.9,24.6,11.1-10.8,11.1-24.6,11.1ZM383.4,298.9c-10.5,0-22.2,3.6-22.2,8.7s8.9,8.7,22.2,8.7,22.2-4.5,22.2-8.7-11.7-8.7-22.2-8.7Z"/>
      <path class="st8" d="M398.5,291.6c-1.1-.9-2.7-.7-3.6.3l-12.4,13.8c-.1.1,0,.3.1.3h3.8c.2,0,.3,0,.5-.2l11.7-10.4c1.1-1,1.1-2.9,0-3.9Z"/>
    </g>
    <g>
      <g>
        <path class="st51" d="M465.1,335.4h-7.6c-.9,0-1.6-.6-1.8-1.5l-2.1-13.5h15.4l-2.1,13.5c-.1.9-.9,1.5-1.8,1.5Z"/>
        <path class="st37" d="M449.8,304.3c-.9-.8-1.4-2-1.4-3.3.1-2.3,2.1-4.1,4.4-4.1h.5c-.5-.6-.8-1.4-.8-2.3,0-1.8,1.6-3.2,3.4-3.2h3.8c.7,0,1-.8.5-1.3h0c-.9-.9-1-2.3-.2-3.2.9-1,2.5-1.1,3.4-.1l5.4,5.4c0,0,.1.1.2.2.6.6.9,1.4.9,2.3s-.3,1.6-.8,2.1h.5c2.3,0,4.2,1.8,4.4,4.1,0,1.3-.5,2.5-1.4,3.3,2.7.3,4.7,2.6,4.7,5.4,0,2.9-2.5,5.2-5.4,5.2h-21.5c-2.9,0-5.3-2.3-5.4-5.2,0-2.8,2-5.1,4.7-5.4Z"/>
        <path class="st77" d="M470.9,320.3c.9-1.6,1.4-3.5,1.4-5.5h-22.2c0,2,.5,3.9,1.4,5.5.6,1.1,1.8,1.7,3,1.7h13.2c1.2,0,2.4-.6,3-1.7Z"/>
        <path class="st77" d="M467.9,326.9l.2-1h-1.7l.8-5.5h-1l-.8,5.5h-3.5v-5.5h-1v5.5h-3.5l-.8-5.5h-1l.8,5.5h-1.7l.2,1h1.7l.5,3.8h-1.7l.2,1h1.7l.5,3.7h1l-.5-3.7h2.7v3.7h1v-3.7h2.7l-.5,3.7h1l.5-3.7h1.7l.2-1h-1.7l.5-3.8h1.7ZM457.9,330.7l-.5-3.8h3.4v3.8h-2.9ZM464.6,330.7h-2.9v-3.8h3.4l-.5,3.8Z"/>
      </g>
      <path class="st54" d="M472.2,309.1h-21.8c-.8,0-1.5-.7-1.5-1.5s.7-1.5,1.5-1.5h21.8c.8,0,1.5.7,1.5,1.5s-.7,1.5-1.5,1.5Z"/>
      <path class="st54" d="M469.6,301.5h-16.6c-.8,0-1.5-.7-1.5-1.5s.7-1.5,1.5-1.5h16.6c.8,0,1.5.7,1.5,1.5s-.7,1.5-1.5,1.5Z"/>
    </g>
    <g>
      <rect class="st94" x="291.4" y="288.3" width=".6" height="14.1"/>
      <path class="st82" d="M311.2,335.4c-1.1,0-2-.9-2-2v-9.4c0-1.1.9-2,2-2s2,.9,2,2v9.4c0,1.1-.9,2-2,2Z"/>
      <g>
        <path class="st35" d="M283.1,315.3v-1.1c0-.9.4-1.8,1.1-2.4l2.9-2.5c.4-.4,1.1,0,1.1.5h0c0,1.4-.6,2.6-1.5,3.4l-2.9,2.5c-.3.2-.7,0-.7-.3Z"/>
        <path class="st58" d="M297.7,309.3h2.1c1.2,0,2.1,1,2.1,2.1v3.4c0,1.8-.8,3.6-2.3,4.8l-4.6,3.7c-.2.2-.5.3-.8.3h0c-.9,0-1.6-.9-1.2-1.8l4.7-12.5Z"/>
        <path class="st94" d="M294.6,329.5h5c.3,0,.6-.3.6-.6v-.4c0-1.8-1.4-3.2-3.2-3.2h-1.7c-.4,0-.7-.3-.7-.7v-.4h0c0-1.1.8-1.2.8-1.2h0c1.5-.2,2.7-1.5,2.7-3v-10.8c0-1.7-1.4-3.1-3.1-3.1h-6.9c-1.7,0-3.1,1.4-3.1,3.1v10.8c0,1.5,1.2,2.8,2.7,3h0s.8,0,.8,1.2v.4c0,.4-.3.7-.7.7h-1.7c-1.8,0-3.2,1.4-3.2,3.2v.4c0,.3.3.6.6.6h5c1.3,0,2.4-.7,3-1.7.6,1,1.7,1.7,3,1.7Z"/>
        <path class="st32" d="M298.2,309.6c0-2.5-1.4-4.6-3.4-5.7-.6-.3-1-.7-1.4-1.2,0,0-.1-.2-.2-.3-.2-.2-.4-.3-.7-.3-.3,0-.6.1-.8.3-.2-.2-.5-.3-.8-.3s-.5.1-.7.3c-.1.1-.2.2-.3.3-.3.5-.8.9-1.4,1.2-2,1.1-3.4,3.3-3.4,5.7,0,3.6,2.9,3.7,6.5,3.7s6.5,0,6.5-3.7Z"/>
        <path class="st58" d="M291.7,317.8c.3.6.9,1,1.7,1s1.8-.7,1.9-1.7c.9-.1,1.7-.9,1.7-1.9s-.1-.3-.3-.3-.3.1-.3.3c0,.8-.6,1.4-1.4,1.4s-1.4-.6-1.4-1.4-.1-.3-.3-.3-.3.1-.3.3c0,.8-.6,1.4-1.4,1.4s-1.4-.6-1.4-1.4-.1-.3-.3-.3-.3.1-.3.3c0,.8-.6,1.4-1.4,1.4s-1.4-.6-1.4-1.4-.1-.3-.3-.3-.3.1-.3.3c0,1,.7,1.8,1.7,1.9.1.9.9,1.7,1.9,1.7s1.3-.4,1.7-1ZM293.3,316.1c.3.5.8.9,1.4.9-.1.7-.7,1.2-1.4,1.2s-1.3-.5-1.4-1.2c.6,0,1.1-.4,1.4-.9ZM288.6,317.1c.6,0,1.1-.4,1.4-.9.3.5.8.9,1.4.9-.1.7-.7,1.2-1.4,1.2s-1.3-.5-1.4-1.2Z"/>
        <path class="st58" d="M283.1,318v-1.1c0-.9.4-1.8,1.1-2.4l2.9-2.5c.4-.4,1.1,0,1.1.5h0c0,1.4-.6,2.6-1.5,3.4l-2.9,2.5c-.3.2-.7,0-.7-.3Z"/>
        <circle class="st36" cx="293.6" cy="306.8" r="1.2"/>
      </g>
      <path class="st42" d="M311.2,325.4c-.8,0-1.4-.6-1.4-1.4v-16.7c0-10.2-8.3-18.5-18.5-18.5s-1.4-.6-1.4-1.4.6-1.4,1.4-1.4c11.7,0,21.2,9.5,21.2,21.2v16.7c0,.8-.6,1.4-1.4,1.4Z"/>
      <circle class="st94" cx="311.2" cy="321.4" r="5"/>
      <path class="st58" d="M320,322.3l-8.6.5c-.8,0-1.4-.6-1.4-1.3h0c0-.8.6-1.4,1.4-1.3l8.6.5c.4,0,.8.4.8.8h0c0,.4-.3.8-.8.8Z"/>
      <path class="st82" d="M321.7,321.5c0-1-.8-1.8-1.8-1.8s-1.8.8-1.8,1.8.8,1.8,1.8,1.8,1.8-.8,1.8-1.8Z"/>
    </g>
    <g>
      <path class="st22" d="M119.7,303.7h42.5v6.2c0,6.1-4.9,11-11,11h-20.4c-6.1,0-11-4.9-11-11v-6.2h0Z"/>
      <path class="st73" d="M158.8,296.9l-5.2-1.3c-8.3-2.1-17-2.1-25.3,0l-5.2,1.3c-4,1-6.7,4.6-6.7,8.7h0c0,2.3,1.9,4.2,4.2,4.2h40.9c2.3,0,4.2-1.9,4.2-4.2h0c0-4.1-2.8-7.7-6.7-8.7Z"/>
      <path class="st47" d="M154.4,315.1h0c-.4-.4-.4-1.1,0-1.5l1.3-1.3c.4-.4,1.1-.4,1.5,0h0c.4.4.4,1.1,0,1.5l-1.3,1.3c-.4.4-1.1.4-1.5,0Z"/>
      <path class="st47" d="M128.3,315.2h0c.4-.4,1.1-.4,1.5,0l1.3,1.3c.4.4.4,1.1,0,1.5h0c-.4.4-1.1.4-1.5,0l-1.3-1.3c-.4-.4-.4-1.1,0-1.5Z"/>
      <path class="st98" d="M137.2,317.7h0c0-.6.5-1.1,1.1-1.1h1.9c.6,0,1.1.5,1.1,1.1h0c0,.6-.5,1.1-1.1,1.1h-1.9c-.6,0-1.1-.5-1.1-1.1Z"/>
      <path class="st98" d="M148.6,312.2h0c.4.4.4,1.1,0,1.5l-1.3,1.3c-.4.4-1.1.4-1.5,0h0c-.4-.4-.4-1.1,0-1.5l1.3-1.3c.4-.4,1.1-.4,1.5,0Z"/>
      <path class="st98" d="M123.9,313.7h0c-.4-.4-.4-1.1,0-1.5l1.3-1.3c.4-.4,1.1-.4,1.5,0h0c.4.4.4,1.1,0,1.5l-1.3,1.3c-.4.4-1.1.4-1.5,0Z"/>
      <path class="st71" d="M128.3,295.6l-1.7.4v13.7h2.7v-14.4c-.4,0-.7.2-1.1.3Z"/>
      <path class="st71" d="M139.6,294v15.7h2.8v-15.7c-.9,0-1.8,0-2.8,0Z"/>
      <path class="st71" d="M153.6,295.6c-.4,0-.7-.2-1.1-.3v14.4h2.8v-13.7l-1.7-.4Z"/>
      <g>
        <rect class="st36" x="141.6" y="306" width="21.6" height="15.7"/>
        <rect class="st36" x="141.6" y="311.9" width="21.6" height="15.7" rx="6.2" ry="6.2"/>
        <rect class="st22" x="141.6" y="299.8" width="21.6" height="15.7" rx="6.2" ry="6.2"/>
        <path class="st19" d="M156.6,307.7c0,1.5-1.9,2.7-4.2,2.7s-4.2-1.2-4.2-2.7,1.9-2.7,4.2-2.7,4.2,1.2,4.2,2.7Z"/>
      </g>
    </g>
  </g>
  <g>
    <g>
      <path class="st7" d="M280.1,218.3h0c.1,1.2-.7,2.2-1.9,2.3l-24,1.6c-.6,0-1.2-.4-1.3-1.1h0c0-.6.4-1.2,1-1.3l23.8-3.4c1.2-.2,2.2.7,2.3,1.8Z"/>
      <path class="st78" d="M255.7,233.9c-.4,0-.7-.3-.7-.7s0-.4-.3-.7c-.3-.3-.7-.8-.7-1.6s.4-1.3.7-1.6c.2-.3.3-.4.3-.7s0-.4-.3-.7c-.3-.3-.7-.8-.7-1.6s.4-1.3.7-1.6c.2-.3.3-.4.3-.7s0-.4-.3-.7c-.3-.3-.7-.8-.7-1.6s.4-1.3.7-1.6c.2-.3.3-.4.3-.7s.3-.7.7-.7.7.3.7.7c0,.9-.4,1.3-.7,1.6-.2.3-.3.4-.3.7s0,.4.3.7c.3.3.7.8.7,1.6s-.4,1.3-.7,1.6c-.2.3-.3.4-.3.7s0,.4.3.7c.3.3.7.8.7,1.6s-.4,1.3-.7,1.6c-.2.3-.3.4-.3.7s0,.4.3.7c.3.3.7.8.7,1.6s-.3.7-.7.7Z"/>
      <path class="st7" d="M280.1,225.9h0c0,1.2-1.1,2-2.3,1.9l-23.9-2.3c-.6,0-1.1-.6-1.1-1.3h0c0-.6.6-1.1,1.2-1.1l24,.5c1.2,0,2.1,1,2,2.2Z"/>
      <path class="st78" d="M258.1,233.9c-.4,0-.7-.3-.7-.7s0-.4-.3-.7c-.3-.3-.7-.8-.7-1.6s.4-1.3.7-1.6c.2-.3.3-.4.3-.7s0-.4-.3-.7c-.3-.3-.7-.8-.7-1.6s.4-1.3.7-1.6c.2-.3.3-.4.3-.7s0-.4-.3-.7c-.3-.3-.7-.8-.7-1.6s.4-1.3.7-1.6c.2-.3.3-.4.3-.7s.3-.7.7-.7.7.3.7.7c0,.9-.4,1.3-.7,1.6-.2.3-.3.4-.3.7s0,.4.3.7c.3.3.7.8.7,1.6s-.4,1.3-.7,1.6c-.2.3-.3.4-.3.7s0,.4.3.7c.3.3.7.8.7,1.6s-.4,1.3-.7,1.6c-.2.3-.3.4-.3.7s0,.4.3.7c.3.3.7.8.7,1.6s-.3.7-.7.7Z"/>
      <g>
        <path class="st47" d="M254.1,264.7c-.3,0-.5-.2-.5-.5l-3.2-22.9h28.4l-3.2,22.9c0,.3-.3.5-.5.5h-20.9Z"/>
        <path class="st22" d="M277.7,242.3l-3,21.2c0,.2-.2.3-.4.3h-19.6c-.2,0-.3-.1-.4-.3l-3-21.2h26.3M279.9,240.4h-30.6l3.4,24c.1.7.7,1.3,1.5,1.3h20.9c.7,0,1.4-.5,1.5-1.3l3.4-24h0Z"/>
      </g>
      <path class="st22" d="M275.1,230.5h-5.4c-.7,0-1.2-.4-1.2-.9v-.9c0-.7-.8-1.3-1.8-1.3h-4.3c-1,0-1.8.6-1.8,1.3v.9c0,.5-.5.9-1.2.9h-5.4c-.5,0-.9.1-1.3.4l-2.9,2.1c-.3.2-.5.6-.5.9v6.5h30.6v-6.5c0-.3-.2-.7-.5-.9l-2.9-2.1c-.3-.2-.8-.4-1.3-.4Z"/>
      <g>
        <g>
          <line class="st47" x1="250.3" y1="241.7" x2="242.3" y2="231.4"/>
          <path class="st22" d="M250.3,242.6c-.3,0-.6-.1-.7-.4l-8-10.3c-.3-.4-.2-1,.2-1.3.4-.3,1-.2,1.3.2l8,10.3c.3.4.2,1-.2,1.3-.2.1-.4.2-.6.2Z"/>
        </g>
        <g>
          <line class="st47" x1="278.8" y1="241.7" x2="286.8" y2="231.4"/>
          <path class="st22" d="M278.8,242.6c-.2,0-.4,0-.6-.2-.4-.3-.5-.9-.2-1.3l8-10.3c.3-.4.9-.5,1.3-.2.4.3.5.9.2,1.3l-8,10.3c-.2.2-.5.4-.7.4Z"/>
        </g>
      </g>
      <g>
        <path class="st40" d="M268.3,248.6h-.9l-2.5-2.5c-.2-.2-.6-.2-.8,0l-2.5,2.5h-.9c-.4,0-.8.4-.8.8h0c0,.4.4.8.8.8h7.5c.4,0,.8-.4.8-.8h0c0-.4-.4-.8-.8-.8Z"/>
        <path class="st40" d="M269.7,253.6h-2.1v-1.9c0-.3-.2-.5-.5-.5h-5c-.3,0-.5.2-.5.5v1.9h-2.1c-.4,0-.8.4-.8.8h0c0,.4.4.8.8.8h10.2c.4,0,.8-.4.8-.8h0c0-.4-.4-.8-.8-.8Z"/>
        <path class="st40" d="M267.6,258.6v-1.9c0-.3-.2-.5-.5-.5h-5c-.3,0-.5.2-.5.5v1.9h-4c-.4,0-.8.4-.8.8h0c0,.4.4.8.8.8h14.1c.4,0,.8-.4.8-.8h0c0-.4-.4-.8-.8-.8h-4Z"/>
      </g>
    </g>
    <g>
      <path class="st90" d="M167.3,218.7c0,5.2,0,10.5,0,15.7,6.9,1.6,13.8-7.1,20.6-8,.9-.1,1.1-1.2.3-1.7-7-4-14.1.2-21-6Z"/>
      <ellipse class="st48" cx="180.6" cy="254.1" rx="23.1" ry="11.6"/>
      <path class="st82" d="M162.5,253.6c0,1.6,2.7,2.8,6.1,2.8s6.1-1.3,6.1-2.8-2.7-2.8-6.1-2.8-6.1,1.3-6.1,2.8Z"/>
      <path class="st91" d="M166.1,254.4h0c-.9,0-1.6-.7-1.6-1.6v-34.7c0-.9.7-1.6,1.6-1.6h0c.9,0,1.6.7,1.6,1.6v34.7c0,.9-.7,1.6-1.6,1.6Z"/>
      <ellipse class="st4" cx="188.9" cy="253.6" rx="4.8" ry="1.8"/>
      <circle class="st30" cx="186.6" cy="250.7" r="4.2"/>
      <rect class="st55" x="164.2" y="218.7" width="3.8" height="16.2" rx=".3" ry=".3"/>
    </g>
    <g>
      <g>
        <g>
          <path class="st4" d="M346.4,243.2v-1.7h-1l-8-9.8c-.8-.9-2.2-.9-3,0l-8,9.8h-1v1.9h0c0,1,.8,1.9,1.9,1.9h3.1c.5,0,1.1.2,1.5.6l3,2.7c.6.6,1.5.6,2,0l3-2.7c.4-.4.9-.6,1.5-.6h3.1c1.2,0,2-1.1,1.9-2.1Z"/>
          <path class="st5" d="M333.5,241.3h4.8v10.6c0,.4-.3.8-.8.8h-3.3c-.4,0-.8-.3-.8-.8v-10.6h0Z"/>
          <path class="st48" d="M345.9,240.1l-8.6-10.5c-.8-.9-2.2-.9-3,0l-8.6,10.5c-1,1.2-.1,3.1,1.5,3.1h3.1c.5,0,1.1.2,1.5.6l3,2.7c.6.6,1.5.6,2,0l3-2.7c.4-.4.9-.6,1.5-.6h3.1c1.6,0,2.5-1.9,1.5-3.1Z"/>
          <path class="st4" d="M344.2,235l-7.1-8.7c-.6-.8-1.8-.8-2.5,0l-7.1,8.7c-.8,1-.1,2.6,1.2,2.6h2.6c.5,0,.9.2,1.2.5l2.5,2.2c.5.5,1.2.5,1.7,0l2.5-2.2c.3-.3.8-.5,1.2-.5h2.6c1.3,0,2.1-1.6,1.2-2.6Z"/>
          <path class="st48" d="M342.8,230.6l-5.9-7.2c-.5-.6-1.5-.6-2,0l-5.9,7.2c-.7.9,0,2.2,1,2.2h2.1c.4,0,.7.1,1,.4l2.1,1.8c.4.4,1,.4,1.4,0l2.1-1.8c.3-.2.6-.4,1-.4h2.1c1.1,0,1.7-1.3,1-2.2Z"/>
        </g>
        <g>
          <path class="st52" d="M363.4,235.6c-.3-.7-1-1.1-1.8-1.1h-23.5l12.3,24.7h23.3c.6,0,1.1-.7.8-1.2l-11.1-22.4Z"/>
          <path class="st96" d="M338.1,234.5l-11.6,23.5c-.3.6.1,1.2.8,1.2h23.1l-12.3-24.7Z"/>
          <polygon class="st101" points="338.1 242.6 329.9 259.3 346.4 259.3 338.1 242.6"/>
        </g>
        <g>
          <polygon class="st101" points="350.5 243 354.4 250.8 363.4 250.8 359.5 243 350.5 243"/>
          <polygon class="st52" points="354 243 357.9 250.8 359.9 250.8 356 243 354 243"/>
          <rect class="st52" x="350.8" y="246.1" width="12" height="1.6"/>
        </g>
      </g>
      <path class="st52" d="M360.8,228.5c-1.4,1.4-3.7,1.4-5.1,0-1.1-1.1-1.4-2.8-.7-4.2.2-.4.4-.7.7-1,.2-.2,0-.5-.2-.5-1.1.2-2.2.7-3,1.7-1.7,1.9-1.6,4.8,0,6.7,2,2.2,5.3,2.3,7.4.2.8-.8,1.3-1.8,1.4-2.8,0-.3-.3-.4-.5-.2,0,0,0,0,0,0Z"/>
    </g>
    <g>
      <g>
        <rect class="st77" x="453.2" y="218.8" width="7.5" height="4.4" rx="1" ry="1" transform="translate(290 -258.3) rotate(45)"/>
        <path class="st62" d="M451.8,221.9h4.2v3.6c0,.3-.3.6-.6.6h-3c-.3,0-.6-.3-.6-.6v-3.6h0Z" transform="translate(291.2 -255.3) rotate(45)"/>
      </g>
      <path class="st83" d="M461.5,231.3c0-.9-.8-1.5-1.7-1.5h-5c-1.1,0-1.6-1.3-.8-2l.9-.9c1-1,1.1-2.6.2-3.6-1-1.1-2.7-1.2-3.8-.1l-1,1c-.8.8-2,.2-2-.8v-5c0-.9-.7-1.6-1.5-1.7-.9,0-1.6.7-1.6,1.6v10.5c0,.5-.2.9-.5,1.2h0l3.7,3.7h0c.3-.3.8-.5,1.2-.5h10.5c.9,0,1.6-.7,1.6-1.6Z"/>
      <path class="st61" d="M444.2,239l3.1-3.1-5.3-5.3-3.1,3.1c-1.3,1.3-3.1,2-4.9,1.9-2.5-.2-5.1.7-7,2.6l-14.3,14.3c-.7.7-.7,2,0,2.7l10,10c.7.7,2,.7,2.7,0l14.3-14.3c1.9-1.9,2.8-4.5,2.6-7-.1-1.8.6-3.6,1.9-4.9Z"/>
      <rect class="st61" x="441.1" y="230.1" width="9.8" height="3.6" rx="1" ry="1" transform="translate(294.5 -247.4) rotate(45)"/>
      <path class="st10" d="M442.3,245.5c0-.5,0-1.1,0-1.6-.1-1.8.6-3.6,1.9-4.9l3.1-3.1-5.3-5.3-3.1,3.1c-1.3,1.3-3.1,2-4.9,1.9-.5,0-1.1,0-1.6,0l1.4,6.8c.2.9.8,1.5,1.7,1.7l6.8,1.4Z"/>
      <path class="st92" d="M442.3,245.5l-6.8-1.4c-.9-.2-1.5-.8-1.7-1.7l-1.4-6.8c-.4,0-.9.1-1.3.2l1.4,6.9c.1.7.5,1.3,1,1.8.5.5,1.1.8,1.8,1l6.9,1.4c.1-.4.2-.9.2-1.3Z"/>
      <g class="st68">
        <path class="st47" d="M416,254.9c-.6-.6-.6-1.6,0-2.2l12.5-12.5c.6-.6,1.6-.6,2.2,0,.6.6.6,1.6,0,2.2l-12.5,12.5c-.6.6-1.6.6-2.2,0Z"/>
      </g>
      <rect class="st10" x="419.5" y="246.9" width="14" height="8.8" rx="1.1" ry="1.1" transform="translate(302.5 -228) rotate(45)"/>
      <path class="st100" d="M429,253.8c1.3-1.3,1.3-3.5,0-4.8-1.3-1.3-3.5-1.3-4.8,0-1.3,1.3-1.3,3.5,0,4.8,1.3,1.3,3.5,1.3,4.8,0Z"/>
    </g>
  </g>
  <g>
    <g>
      <path class="st11" d="M457.1,29.8l-24.6-.3s2.8,22.2,24.6,22.2,24.6-22.2,24.6-22.2l-24.6.3Z"/>
      <path class="st1" d="M480.2,30.4c0,0,0-.2,0-.3,0,0,0-.2,0-.3,0,0,0-.1,0-.2,0-.1,0-.2,0-.3,0,0,0,0,0-.1,0-.1,0-.3,0-.4,0-5.5-10.5-9.9-23.4-9.9s-23.4,4.5-23.4,9.9,0,.3,0,.4c0,0,0,0,0,.1,0,.1,0,.2,0,.3,0,0,0,.1,0,.2,0,0,0,.2,0,.3,0,0,0,.2,0,.3,0,0,0,0,0,.1,2,4.6,11.5,8.2,23,8.2s21-3.5,23-8.2c0,0,0,0,0-.1Z"/>
      <path class="st12" d="M468.9,27.2c.2-2.6-1.7-4.9-4.3-5.1-2.6-.2-4.9,1.7-5.1,4.3-.2,2.6,1.7,4.9,4.3,5.1,2.6.2,4.9-1.7,5.1-4.3Z"/>
      <rect class="st47" x="441.8" y="25.1" width="5.2" height="5.2" rx="1.5" ry="1.5" transform="translate(110.6 322.4) rotate(-45)"/>
      <path class="st95" d="M463.5,27.2c0-3.2-2.6-5.7-5.7-5.7s-5.7,2.6-5.7,5.7,2.6,5.7,5.7,5.7,5.7-2.6,5.7-5.7Z"/>
      <path class="st86" d="M456.5,28.1c0-3.2-2.6-5.7-5.7-5.7s-5.7,2.6-5.7,5.7,2.6,5.7,5.7,5.7,5.7-2.6,5.7-5.7Z"/>
      <path class="st12" d="M438.7,25.1c-2.9,0-5.2,2.1-5.7,4.9l1.9,1.9,5.5,4-.3.5c2.5-.6,4.4-2.9,4.4-5.6s-2.6-5.7-5.7-5.7Z"/>
      <path class="st95" d="M451.4,38.1c.3-.7.4-1.4.4-2.2,0-3.2-2.6-5.7-5.7-5.7s-5.6,2.4-5.7,5.5l11,2.4Z"/>
      <path class="st86" d="M453,38.6s5,0,8.4,0c.2-.3.5-.6.6-1,.3.1.5.3.8.3,0,.2,0,.4.1.6.8,0,1.3,0,1.4,0,.2,0,10.6-3.5,11.3-3.8-.7-1.9-2.2-3.4-4.1-4-.4-3.2-3.2-5.7-6.6-5.7s-4.7,1.4-5.9,3.5c-.9-.4-1.9-.7-2.9-.7-3.7,0-6.6,3-6.6,6.6s.7,3.5,1.9,4.7l1.5-.6Z"/>
      <path class="st47" d="M446.2,37.5c.2-2.4,2.1-4.2,4.5-4.2s4.6,2,4.6,4.6,0,.7-.1,1h1.4c0-.3.1-.7.1-1,0-3.3-2.7-5.9-5.9-5.9s-5.5,2.3-5.9,5.3l1.3.3Z"/>
      <path class="st36" d="M446.9,31.4c0,1.2-1,2.1-2.1,2.1s-2.1-1-2.1-2.1,1-2.1,2.1-2.1,2.1,1,2.1,2.1Z"/>
      <rect class="st47" x="466.1" y="24.2" width="5.2" height="5.2" rx="1.5" ry="1.5"/>
      <path class="st95" d="M476.6,35.2c.3-.7.5-1.5.5-2.3,0-3.2-2.6-5.7-5.7-5.7s-5.7,2.6-5.7,5.7,1.2,4,2.9,5l8.1-2.7Z"/>
      <path class="st47" d="M462.8,35.8l-1.6-1.6c-.6-.6-1.5-.6-2.1,0l-1.6,1.6c-.6.6-.6,1.5,0,2.1l.4.4,3.5.2.2.6,1.1-1.1c.6-.6.6-1.5,0-2.1Z"/>
      <path class="st47" d="M471.4,36.8c-.4-.7-.7-1.5-.7-2.4,0-2.5,2-4.6,4.6-4.6s3.1.9,3.9,2.2c.6-.6.9-1,1-1-1.1-1.6-2.9-2.6-4.9-2.6-3.3,0-5.9,2.7-5.9,5.9s.3,2,.7,2.8c.4-.1.9-.3,1.3-.4Z"/>
      <path class="st36" d="M461.6,28.1c0,1.2-1,2.1-2.1,2.1s-2.1-1-2.1-2.1,1-2.1,2.1-2.1,2.1,1,2.1,2.1Z"/>
      <path class="st36" d="M467.7,32.9c0,1.2-1,2.1-2.1,2.1s-2.1-1-2.1-2.1,1-2.1,2.1-2.1,2.1,1,2.1,2.1Z"/>
      <path class="st20" d="M457.1,39.9c-13.8,0-24.6-4.9-24.6-11.1s10.8-11.1,24.6-11.1,24.6,4.9,24.6,11.1-10.8,11.1-24.6,11.1ZM457.1,20c-10.5,0-22.2,3.6-22.2,8.7s8.9,8.7,22.2,8.7,22.2-4.5,22.2-8.7-11.7-8.7-22.2-8.7Z"/>
    </g>
    <g>
      <g>
        <path class="st77" d="M407.2,33.3l-3.1,2.4-11,7.9-8-.9-9.2-6.2v-5.3h-5.3v7.1h0c.2,8.6,8.5,15.6,18.7,15.6s18.7-7.1,18.7-15.9-.3-3.1-.8-4.5Z"/>
        <path class="st25" d="M389.2,27.1c3.1,0,5.7,1.7,6.6,4,.2-.6.4-1.2.4-1.9,0-3.3-3.1-5.9-7-5.9s-7,2.7-7,5.9.1,1.3.4,1.9c.9-2.3,3.5-4,6.6-4Z"/>
        <path class="st42" d="M407.9,31.4c0-8.8-8.4-15.9-18.7-15.9s-18.7,7.1-18.7,15.9,2.7,9.5,7,12.4c.2.2.4.4.4.7h0c0,1.6,1.3,2.9,2.9,2.9h0c1,0,1.7.8,1.7,1.7v.5h0s0,0,0,.1c0,1.6,1.3,2.9,2.9,2.9s2.9-1.3,2.9-2.9,0,0,0-.1h0v-2.4s0,0,0,0c0-.1,0-.2,0-.4,0-1.6,1.3-2.9,2.9-2.9s2.8,1.2,2.9,2.7c0,0,0,0,0,0,0,1.6,1.4,3,3.1,2.9,1.5-.1,2.7-1.4,2.7-3v-1.2c0-.6.3-1.1.8-1.4,1.7-1.1,3.1-2.4,4.3-3.9.2-.2.5-.4.8-.4,1.3-.2,2.4-1.4,2.4-2.8v-5.5h0s0,0,0,0ZM389.2,35.1c-3.8,0-7-2.7-7-5.9s3.1-5.9,7-5.9,7,2.7,7,5.9-3.1,5.9-7,5.9Z"/>
        <rect class="st77" x="388.3" y="46.7" width="2.1" height="1.5"/>
      </g>
      <path class="st45" d="M400.8,27.8h0c.4-.4,1.1-.4,1.5,0l1.3,1.3c.4.4.4,1.1,0,1.5h0c-.4.4-1.1.4-1.5,0l-1.3-1.3c-.4-.4-.4-1.1,0-1.5Z"/>
      <path class="st45" d="M381.2,38.3h0c.4-.4,1.1-.4,1.5,0l1.3,1.3c.4.4.4,1.1,0,1.5h0c-.4.4-1.1.4-1.5,0l-1.3-1.3c-.4-.4-.4-1.1,0-1.5Z"/>
      <path class="st45" d="M394,19.4h0c.4-.4,1.1-.4,1.5,0l1.3,1.3c.4.4.4,1.1,0,1.5h0c-.4.4-1.1.4-1.5,0l-1.3-1.3c-.4-.4-.4-1.1,0-1.5Z"/>
      <path class="st56" d="M395.7,35.8h0c.6,0,1.1.5,1.1,1.1v1.8c0,.6-.5,1.1-1.1,1.1h0c-.6,0-1.1-.5-1.1-1.1v-1.8c0-.6.5-1.1,1.1-1.1Z"/>
      <path class="st56" d="M376.3,32.7h0c.6,0,1.1.5,1.1,1.1v1.8c0,.6-.5,1.1-1.1,1.1h0c-.6,0-1.1-.5-1.1-1.1v-1.8c0-.6.5-1.1,1.1-1.1Z"/>
      <path class="st45" d="M379.2,27.5h0c0,.6-.5,1.1-1.1,1.1h-1.8c-.6,0-1.1-.5-1.1-1.1h0c0-.6.5-1.1,1.1-1.1h1.8c.6,0,1.1.5,1.1,1.1Z"/>
      <path class="st56" d="M386.5,17.9h0c.4.4.4,1.1,0,1.5l-1.3,1.3c-.4.4-1.1.4-1.5,0h0c-.4-.4-.4-1.1,0-1.5l1.3-1.3c.4-.4,1.1-.4,1.5,0Z"/>
    </g>
    <g>
      <g>
        <path class="st93" d="M345.2,43.6c0,6.7-10.6,12.1-23.8,12.1s-23.8-5.4-23.8-12.1,10.6-12.1,23.8-12.1,23.8,5.4,23.8,12.1Z"/>
        <path class="st39" d="M321.4,56.5c-13.8,0-24.6-5.7-24.6-12.9s10.8-12.9,24.6-12.9,24.6,5.7,24.6,12.9-10.8,12.9-24.6,12.9ZM321.4,32.3c-6.2,0-12,1.2-16.4,3.4-4.2,2.1-6.5,4.9-6.5,7.8s2.3,5.7,6.5,7.8c4.4,2.2,10.2,3.4,16.4,3.4s12-1.2,16.4-3.4c4.2-2.1,6.5-4.9,6.5-7.8s-2.3-5.7-6.5-7.8c-4.4-2.2-10.2-3.4-16.4-3.4Z"/>
      </g>
      <ellipse class="st39" cx="321.4" cy="41.8" rx="19.6" ry="9.5"/>
      <g>
        <path class="st93" d="M340.5,38.5h-5.5v-3.5h5.5c.6,0,1-.5,1-1v-5c0-.6-.5-1-1-1h-5.5v-3.5h5.5c2.5,0,4.5,2,4.5,4.5v5c0,2.5-2,4.5-4.5,4.5Z"/>
        <path class="st39" d="M340.5,39.4h-6.3v-5.2h6.3c0,0,.2,0,.2-.2v-5c0,0,0-.2-.2-.2h-6.3v-5.2h6.3c3,0,5.4,2.4,5.4,5.4v5c0,3-2.4,5.4-5.4,5.4ZM335.9,37.6h4.6c2,0,3.7-1.7,3.7-3.7v-5c0-2-1.7-3.7-3.7-3.7h-4.6v1.8h4.6c1,0,1.9.8,1.9,1.9v5c0,1-.8,1.9-1.9,1.9h-4.6v1.8Z"/>
      </g>
      <g>
        <path class="st93" d="M304.8,21.7v18.2c0,4.5,7.4,8.1,16.6,8.1s16.6-3.6,16.6-8.1v-18.2h-33.3Z"/>
        <path class="st39" d="M321.4,48.8c-9.8,0-17.5-3.9-17.5-8.9v-19.1h35v19.1c0,5-7.7,8.9-17.5,8.9ZM305.6,22.5v17.4c0,3.9,7.2,7.2,15.8,7.2s15.8-3.3,15.8-7.2v-17.4h-31.5Z"/>
      </g>
      <g>
        <ellipse class="st93" cx="321.4" cy="21.7" rx="16.6" ry="8.1"/>
        <path class="st39" d="M321.4,30.6c-9.8,0-17.5-3.9-17.5-8.9s7.7-8.9,17.5-8.9,17.5,3.9,17.5,8.9-7.7,8.9-17.5,8.9ZM321.4,14.5c-8.6,0-15.8,3.3-15.8,7.2s7.2,7.2,15.8,7.2,15.8-3.3,15.8-7.2-7.2-7.2-15.8-7.2Z"/>
      </g>
      <path class="st69" d="M321.4,26.7c-8.6,0-13.6-3.3-13.6-5.5s5.1-5.5,13.6-5.5,13.6,3.3,13.6,5.5-5.1,5.5-13.6,5.5Z"/>
    </g>
  </g>
</svg>