<?xml version="1.0" encoding="UTF-8"?>
<svg id="Layer_1" xmlns="http://www.w3.org/2000/svg" version="1.1" viewBox="0 0 500 300">
  <!-- Generator: Adobe Illustrator 30.1.0, SVG Export Plug-In . SVG Version: 2.1.1 Build 136)  -->
  <defs>
    <style>
      .st0 {
        opacity: .2;
      }

      .st0, .st1 {
        fill: #f8c23b;
      }

      .st2 {
        fill: #d7dcdd;
      }

      .st3 {
        fill: #2bb3e2;
      }

      .st4 {
        fill: #1e1e1e;
      }

      .st5 {
        fill: #e2e7e8;
      }

      .st6 {
        fill: #34373a;
      }

      .st7 {
        fill: #eaae28;
      }

      .st8 {
        fill: #f5f7f7;
      }
    </style>
  </defs>
  <rect class="st4" x="-9.1" y="-8.6" width="512" height="319.7"/>
  <ellipse class="st0" cx="246.9" cy="151.3" rx="255.7" ry="216.2"/>
  <circle class="st6" cx="246.9" cy="151.3" r="190.5"/>
  <g>
    <g>
      <g>
        <path class="st8" d="M343.7,170.9l19.1-22.5c9.9-11.6,14.7-25.9,13.5-40.3l-.3-3.8c-.4-4.9-5.3-8.6-10.9-8.2l-21.4,1.5-.9-11.2,21.4-1.5c12.7-.9,23.7,7.4,24.6,18.5l.3,3.8c1.4,17.1-4.3,34-16,47.8l-19.1,22.4-10.3-6.7Z"/>
        <path class="st5" d="M364.5,87.8c10.9-.7,20.4,6.4,21.2,15.9l.3,3.8c1.3,16.4-4.1,32.7-15.4,45.9l-17.2,20.2-5.1-3.3,17.2-20.2c10.3-12.1,15.4-27.1,14.1-42.1l-.3-3.8c-.5-6.4-6.9-11.3-14.3-10.8l-18.2,1.2-.5-5.6,18.2-1.2M364.1,82.2l-24.6,1.7,1.4,16.8,24.6-1.7c3.8-.3,7.2,2.2,7.4,5.6l.3,3.8c1.1,13.7-3.5,27.3-12.9,38.4l-21,24.7,15.4,10,21-24.7c12.2-14.3,18.1-32,16.7-49.7l-.3-3.8c-1-12.6-13.6-22.1-28-21.1h0Z"/>
      </g>
      <polygon class="st8" points="246.4 198.7 237.2 84 345.3 76.6 354.6 191.3 246.4 198.7"/>
      <path class="st5" d="M359.1,196.8l-1.1-2.9-9.7-120.3-114.5,7.9,9.7,120.3h0l-.6,3c-1.2,6.4,4.7,12.1,12.1,11.6l94-6.5c7.4-.5,12.3-6.9,10.1-13.1ZM240.6,86.6l101.7-7,8.2,101.6c.3,4.1-3.2,7.7-7.9,8.1l-84.6,5.8c-4.7.3-8.8-2.8-9.2-6.9l-8.2-101.6Z"/>
      <path class="st1" d="M343.9,99.7l-101.7,7,6.7,82.8c.3,3.4,3.7,6,7.6,5.7l87.6-6c3.9-.3,6.8-3.3,6.6-6.7l-6.7-82.8Z"/>
      <path class="st7" d="M341.9,141.3c-.2-2.4-2.6-4.2-5.4-4.1-2.8.2-4.9,2.3-4.7,4.8.2,2.4,2.6,4.2,5.4,4.1,2.8-.2,4.9-2.3,4.7-4.8Z"/>
      <path class="st7" d="M266.9,168.3c-.2-2.4-2.6-4.2-5.4-4.1-2.8.2-4.9,2.3-4.7,4.8.2,2.4,2.6,4.3,5.4,4.1,2.8-.2,4.9-2.3,4.7-4.8Z"/>
      <path class="st1" d="M334.9,91.7c-.2-2.7-2.9-4.8-6.1-4.6-3.1.2-5.5,2.6-5.3,5.4.2,2.7,2.9,4.8,6.1,4.6s5.5-2.6,5.3-5.4Z"/>
      <path class="st2" d="M347.8,73.6c-1.2-14.3-15.3-25-31.7-23.9-16.4,1.1-28.7,13.6-27.5,27.9l59.2-4.1Z"/>
      <path class="st2" d="M293,77.4c-1.2-14.3-15.3-25-31.7-23.9-16.4,1.1-28.7,13.6-27.5,27.9l59.2-4.1Z"/>
      <path class="st5" d="M288.3,44.3c-16.4,1.1-28.7,13.6-27.5,27.9l.7,8.3h0c.5,6.2,6.6,10.8,13.6,10.3h0c4.3-.3,8,2.5,8.3,6.2l.2,2.1h0c0,.2,0,.4,0,.6.5,6.2,6.6,10.8,13.7,10.3,7-.5,12.3-5.9,11.8-12,0-.2,0-.4,0-.6h0s-.7-9.2-.7-9.2v-.4c-.5-6.3,4.9-11.9,12.2-12.4l-.6-7.4c-1.2-14.3-15.3-25-31.7-23.9Z"/>
      <g>
        <path class="st7" d="M282.2,180h0c-3.2.2-5.9-1.9-6.2-4.6l-4.6-57.5c-.2-2.8,2.2-5.2,5.3-5.4h0c3.2-.2,5.9,1.9,6.2,4.6l4.6,57.5c.2,2.8-2.2,5.2-5.3,5.4Z"/>
        <path class="st7" d="M316.2,177.7h0c-3.2.2-5.9-1.9-6.2-4.6l-4.6-57.5c-.2-2.8,2.2-5.2,5.3-5.4h0c3.2-.2,5.9,1.9,6.2,4.6l4.6,57.5c.2,2.8-2.2,5.2-5.3,5.4Z"/>
      </g>
    </g>
    <g>
      <path class="st3" d="M209.4,42.3l-5.5,4.9c-1.6,1.5-1,3.9,1.2,4.6l19.2,5.6c1.6.5,3.1-.9,2.6-2.3l-6.7-16.7c-.8-1.9-3.6-2.5-5.2-1l-5.5,4.9Z"/>
      <g>
        <path class="st3" d="M188,77.2l-.8,6.8c-.2,2,2,3.6,4.2,2.9l19-6.2c1.6-.5,1.8-2.4.4-3.2l-17.2-9.2c-2-1.1-4.6,0-4.8,2.1l-.8,6.8Z"/>
        <path class="st3" d="M249,23.1l7.8-.8c2.3-.2,4.1,1.7,3.3,3.7l-6.8,16.7c-.6,1.4-2.7,1.6-3.6.4l-10.8-14.9c-1.2-1.7,0-4,2.3-4.2l7.8-.8Z"/>
      </g>
    </g>
    <g>
      <g>
        <path class="st8" d="M146.6,215l-11-26.1c-5.7-13.5-5.6-28.4.3-41.9l1.5-3.6c2-4.6,7.9-7,13.1-5.3l20,6.5,4.6-10.6-20-6.5c-11.9-3.9-25.2,1.5-29.7,11.9l-1.5,3.6c-6.9,16-7,33.7-.3,49.7l11,26.1,12.1-4Z"/>
        <path class="st5" d="M154,130.3l17,5.5-2.3,5.3-17-5.5c-6.9-2.2-14.6.9-17.2,6.9l-1.5,3.6c-6.1,14.1-6.2,29.7-.3,43.8l9.9,23.5-6,2-9.9-23.5c-6.5-15.4-6.4-32.3.3-47.8l1.5-3.6c3.9-9,15.3-13.6,25.5-10.2M156.3,125c-13.5-4.4-28.7,1.7-33.8,13.6l-1.5,3.6c-7.2,16.7-7.3,35-.3,51.7l12.1,28.7,18.1-5.9-12.1-28.7c-5.4-12.9-5.3-27,.3-39.9l1.5-3.6c1.4-3.1,5.4-4.8,9-3.6l23,7.5,6.8-15.8-23-7.5h0Z"/>
      </g>
      <polygon class="st8" points="230.9 264.9 277.5 157.1 176.1 124.1 129.5 232 230.9 264.9"/>
      <path class="st5" d="M128.8,251.2l88.1,28.6c6.9,2.3,14.5-1.8,15.4-8.2l.4-3h0s48.9-113.1,48.9-113.1l-107.4-34.9-48.9,113.1-2,2.5c-4.2,5.4-1.6,12.7,5.4,15ZM232.1,254.3c-1.7,3.9-6.6,5.9-11.1,4.4l-79.3-25.8c-4.4-1.4-6.7-5.8-5-9.6l41.3-95.5,95.3,31-41.3,95.5Z"/>
      <path class="st1" d="M169.8,146.7l95.3,31-33.6,77.9c-1.4,3.2-5.5,4.9-9.1,3.7l-82.1-26.7c-3.7-1.2-5.5-4.8-4.1-8l33.6-77.9Z"/>
      <path class="st7" d="M199.3,186.9c1-2.3,3.9-3.5,6.5-2.6,2.6.8,3.9,3.4,2.9,5.7-1,2.3-3.9,3.5-6.5,2.6-2.6-.8-3.9-3.4-2.9-5.7Z"/>
      <path class="st7" d="M221.3,230.9c1-2.3,3.9-3.5,6.5-2.6,2.6.8,3.9,3.4,2.9,5.7-1,2.3-3.9,3.5-6.5,2.6-2.6-.8-3.9-3.4-2.9-5.7Z"/>
      <path class="st1" d="M244.1,170.4c1.1-2.6,4.4-3.9,7.3-2.9,2.9,1,4.4,3.8,3.3,6.4-1.1,2.6-4.4,3.9-7.3,2.9-2.9-1-4.4-3.8-3.3-6.4Z"/>
      <path class="st2" d="M174.7,120.7c5.8-13.5,22.9-20.3,38.3-15.3,15.3,5,23,19.9,17.2,33.4l-55.5-18Z"/>
      <path class="st2" d="M226.1,137.4c5.8-13.5,22.9-20.3,38.3-15.3,15.3,5,23,19.9,17.2,33.4l-55.5-18Z"/>
      <path class="st5" d="M241.4,106.7c15.3,5,23,19.9,17.2,33.4l-3.4,7.8h0c-2.5,5.8-9.9,8.8-16.5,6.6h0c-4-1.3-8.5.5-10,4l-.9,2h0c0,.2-.1.4-.2.5-2.5,5.8-9.9,8.8-16.5,6.6-6.6-2.1-9.9-8.6-7.4-14.4,0-.2.2-.4.3-.5h0s3.7-8.6,3.7-8.6v-.3c2.7-6-.7-12.6-7.5-14.8l3-6.9c5.8-13.5,22.9-20.3,38.3-15.3Z"/>
      <g>
        <path class="st7" d="M202.7,238.5h0c3,1,6.3-.4,7.4-3l23.3-54.1c1.1-2.6-.4-5.5-3.3-6.5h0c-3-1-6.3.4-7.4,3l-23.3,54.1c-1.1,2.6.4,5.5,3.3,6.5Z"/>
        <path class="st7" d="M170.8,228.1h0c3,1,6.3-.4,7.4-3l23.3-54.1c1.1-2.6-.4-5.5-3.3-6.5h0c-3-1-6.3.4-7.4,3l-23.3,54.1c-1.1,2.6.4,5.5,3.3,6.5Z"/>
      </g>
    </g>
  </g>
</svg>