<?xml version="1.0" encoding="UTF-8"?>
<svg id="Layer_1" xmlns="http://www.w3.org/2000/svg" xmlns:xlink="http://www.w3.org/1999/xlink" version="1.1" viewBox="0 0 500.2 300">
  <!-- Generator: Adobe Illustrator 30.1.0, SVG Export Plug-In . SVG Version: 2.1.1 Build 136)  -->
  <defs>
    <style>
      .st0 {
        fill: #f48fb1;
      }

      .st1 {
        fill: #f9941c;
      }

      .st2 {
        fill: #ffcf00;
      }

      .st3 {
        fill: #fce897;
      }

      .st4 {
        fill: url(#linear-gradient1);
      }

      .st4, .st5 {
        opacity: .9;
      }

      .st6 {
        fill: #af130d;
      }

      .st7 {
        fill: #ff7b03;
      }

      .st8 {
        fill: #fcc11a;
      }

      .st9 {
        fill: #f0f2f2;
      }

      .st10 {
        fill: #fce4c3;
      }

      .st11 {
        fill: #ccd5d6;
      }

      .st5 {
        fill: url(#linear-gradient);
      }

      .st12 {
        fill: #e5e58f;
      }

      .st13 {
        fill: #da2f47;
      }

      .st14 {
        fill: #c4b31a;
      }

      .st15 {
        fill: #966661;
      }

      .st16 {
        fill: #dbd87d;
      }

      .st17 {
        fill: #fff;
      }

      .st18 {
        fill: #f7473d;
      }

      .st19 {
        fill: #fed428;
      }

      .st20 {
        fill: #c47b47;
      }

      .st21 {
        opacity: .5;
      }

      .st22 {
        opacity: .4;
      }

      .st23 {
        opacity: .6;
      }

      .st24 {
        fill: #ff6204;
      }

      .st25 {
        fill: #03a9f4;
      }

      .st26 {
        fill: #f5f7f7;
      }

      .st27 {
        fill: #cc8758;
      }

      .st28 {
        fill: #e8e8e8;
      }
    </style>
    <linearGradient id="linear-gradient" x1="-6.5" y1="153.4" x2="504.5" y2="153.4" gradientUnits="userSpaceOnUse">
      <stop offset="0" stop-color="#ff2eff"/>
      <stop offset="1" stop-color="#600"/>
    </linearGradient>
    <linearGradient id="linear-gradient1" x1="-9.8" y1="268.1" x2="504.5" y2="268.1" gradientUnits="userSpaceOnUse">
      <stop offset="0" stop-color="#909"/>
      <stop offset="1" stop-color="#30c"/>
    </linearGradient>
  </defs>
  <g>
    <path class="st2" d="M397.3,222.9l-160.3,201.6c-32,40.2-94.4,45.7-109.4,9.6L52.7,253.1c-4.1-9.9,7.4-23.4,21-24.6l313.1-27.4c13.6-1.2,19.4,10.8,10.6,21.8Z"/>
    <path class="st15" d="M404.5,210.5c6.7-29.9-67.1-47.2-164.8-38.6-97.7,8.6-182.2,39.7-188.9,69.6-6.7,29.9,67.1,47.2,164.8,38.6,97.7-8.6,182.2-39.7,188.9-69.6Z"/>
    <path class="st25" d="M121,261.4c-10.5.9-17.5-5.7-15.6-14.9.5-2.7,11.4-62-44.9-81.9C-3.7,141.9,9.8,78.9,25.8,48.8c4.9-9.3,16.8-15.4,26.5-13.7,9.7,1.7,13.5,10.5,8.6,19.8-3.1,5.9-29.2,59.3,22.7,77.6,76.7,27.1,61.2,106.7,60.5,110.1-1.9,9.3-12.2,17.8-22.9,18.9,0,0-.2,0-.3,0Z"/>
    <path class="st0" d="M324.2,247.3c-.8,0-1.6,0-2.4,0-10.3-.2-16-8-12.6-17.4,22.5-62.3,96.5-111.8,164.8-110.2,10.3.2,16,8,12.6,17.4-3.4,9.4-14.6,16.9-24.8,16.6-47.8-1-99.5,33.5-115.2,77-3.1,8.7-12.9,15.7-22.5,16.5Z"/>
    <path class="st18" d="M217.9,232.5c-8.6.8-15.3-3.6-15.9-11.1-.2-3-3.2-50.5,25-100.5-.5-.9-.9-1.9-1.3-2.9-17-38.2-5.8-100.6,48.5-146,8.9-7.4,21.2-8.7,27.4-2.9,6.3,5.8,4.2,16.5-4.7,23.9-30.5,25.4-41.6,59.9-38.7,86.7,11.3-11.4,25-22.3,41.3-32.1,35-21,70-25.6,93.7-12.5,22,12.2,29.6,37.3,18.9,62.4-11.2,26.5-39.6,47.6-78,58-33,8.9-61.6,6.3-82.2-6.7-12.4,32.6-10.6,60.3-10.6,60.7.6,8.8-7.6,18.6-18.5,21.9-1.7.5-3.4.8-5,1ZM272.1,112c10,10.6,28.4,20,61,11.2,22.1-6,37.1-16.1,42.3-28.4,4.9-11.5.8-23.6-9.7-29.5-12.3-6.9-30.4-3.9-50.9,8.4-18.5,11.1-32.3,24.4-42.7,38.2Z"/>
    <path class="st18" d="M162.7,88.1l-13.1,10.6c-7.2,5.8-17,6.7-21.9,1.9l-8.8-8.7c-4.9-4.8-2.9-13.3,4.3-19.2l13.1-10.6c7.2-5.8,17-6.7,21.9-1.9l8.8,8.7c4.9,4.8,2.9,13.3-4.3,19.2Z"/>
    <path class="st18" d="M55.8,205.4l-14.5,11.7c-3.6,2.9-8.5,3.3-10.9,1l-9.7-9.6c-2.4-2.4-1.5-6.7,2.1-9.6l14.5-11.7c3.6-2.9,8.5-3.3,10.9-1l9.7,9.6c2.4,2.4,1.5,6.7-2.1,9.6Z"/>
    <path class="st18" d="M475.4,32.2l-13.1,10.6c-7.2,5.8-17,6.7-21.9,1.9l-8.8-8.7c-4.9-4.8-2.9-13.3,4.3-19.2l13.1-10.6c7.2-5.8,17-6.7,21.9-1.9l8.8,8.7c4.9,4.8,2.9,13.3-4.3,19.2Z"/>
  </g>
  <rect class="st5" x="-6.5" y="-2.4" width="511" height="311.5"/>
  <ellipse class="st4" cx="247.3" cy="268.1" rx="257.2" ry="75.4"/>
  <ellipse class="st22" cx="138" cy="233.6" rx="47.9" ry="13.7"/>
  <ellipse class="st22" cx="253.2" cy="261.1" rx="47.9" ry="16.2"/>
  <ellipse class="st22" cx="383.5" cy="242.8" rx="41.4" ry="13.7"/>
  <ellipse class="st22" cx="51.6" cy="274.5" rx="39.6" ry="13.7"/>
  <g>
    <path class="st11" d="M144.8,200.5v-31.6h-17.4v31.6c0,6.4-4.6,12-10.9,13.1-15.5,2.7-26.3,8.6-26.3,15.4s20.5,17,45.9,17,45.9-7.6,45.9-17-10.7-12.7-26.3-15.4c-6.3-1.1-10.9-6.7-10.9-13.1Z"/>
    <path class="st26" d="M136.1,168.9c-3.2,0-6.1-1.2-8.4-3.5l-60.8-60.8h138.3l-60.8,60.8c-2.2,2.2-5.2,3.5-8.4,3.5Z"/>
    <path class="st11" d="M197.5,107.8l-55.3,55.3c-1.6,1.6-3.8,2.5-6.1,2.5s-4.5-.9-6.1-2.5l-55.3-55.3h122.9M212.9,101.4H59.3l66.2,66.2c2.9,2.9,6.8,4.4,10.6,4.4s7.7-1.5,10.6-4.4l66.2-66.2h0Z"/>
    <path class="st26" d="M210.9,97.6c0-9.2-33.5-16.7-74.8-16.7s-74.8,7.5-74.8,16.7,33.5,16.7,74.8,16.7,74.8-7.5,74.8-16.7Z"/>
    <path class="st16" d="M91.8,115.7l42,43.6c.6.6,1.4,1,2.3,1s1.7-.3,2.3-1l42-43.6h-88.7Z"/>
    <path class="st12" d="M180.9,114.2c0-5.5-20.1-10-44.8-10s-44.8,4.5-44.8,10,20.1,10,44.8,10,44.8-4.5,44.8-10Z"/>
    <g>
      <path class="st10" d="M128.9,146.4l-3.6,2c-.9.5-1.9-.5-1.4-1.4l2-3.6c1.1-2,2.5-3.8,4-5.4l46.7-46.7c1.2-1.2,3.1-1.2,4.3,0h0c1.2,1.2,1.2,3.1,0,4.3l-46.7,46.7c-1.6,1.6-3.4,3-5.4,4Z"/>
      <g>
        <path class="st14" d="M147.7,141.6c-6.8,6.8-11,2.6-16.1-2.5s-9.3-9.3-2.5-16.1c6.8-6.8,11-2.6,16.1,2.5s9.3,9.3,2.5,16.1Z"/>
        <path class="st13" d="M130,123.9c-1.8,1.8-2.7,3.8-2.1,4.5.7.7,2.7-.3,4.5-2.1,1.8-1.8,2.7-3.8,2.1-4.5-.7-.7-2.7.3-4.5,2.1Z"/>
      </g>
    </g>
    <path class="st11" d="M136.1,117.4c-27,0-78-4.2-78-19.9s51-19.9,78-19.9,78,4.2,78,19.9-51,19.9-78,19.9ZM136.1,84.1c-46.3,0-71.6,8.9-71.6,13.5s25.3,13.5,71.6,13.5,71.6-8.9,71.6-13.5-25.3-13.5-71.6-13.5Z"/>
  </g>
  <g>
    <path class="st26" d="M204.4,201.7v50c0,12.2,20.4,22.1,45.7,22.1s45.7-9.9,45.7-22.1v-50h-91.3Z"/>
    <path class="st11" d="M250.1,276.2c-26.9,0-48-10.8-48-24.5v-52.4h96v52.4c0,13.7-21.1,24.5-48,24.5ZM206.8,204.1v47.7c0,10.7,19.8,19.8,43.3,19.8s43.3-9.1,43.3-19.8v-47.7h-86.6Z"/>
    <ellipse class="st26" cx="250.1" cy="199.4" rx="45.7" ry="22.1"/>
    <path class="st20" d="M210.2,226.2v25.5c0,6.8,15.2,16.4,39.9,16.4s39.9-9.5,39.9-16.4v-25.5h-79.8Z"/>
    <path class="st27" d="M250.1,242.3c-25.1,0-39.9-9.5-39.9-16.1s14.8-16.1,39.9-16.1,39.9,9.5,39.9,16.1-14.8,16.1-39.9,16.1Z"/>
    <path class="st11" d="M250.1,223.9c-26.9,0-48-10.8-48-24.5s21.1-24.5,48-24.5,48,10.8,48,24.5-21.1,24.5-48,24.5ZM250.1,179.6c-23.5,0-43.3,9.1-43.3,19.8s19.8,19.8,43.3,19.8,43.3-9.1,43.3-19.8-19.8-19.8-43.3-19.8Z"/>
    <g class="st21">
      <rect class="st17" x="222.2" y="239.2" width="18.2" height="18.2" transform="translate(-77.5 107.7) rotate(-22.6)"/>
      <polygon class="st28" points="248.3 245.5 243.2 253.2 236.2 236.4 241.4 228.7 248.3 245.5"/>
      <polygon class="st9" points="219.5 243.3 236.2 236.4 241.4 228.7 224.6 235.7 219.5 243.3"/>
    </g>
    <g class="st21">
      <rect class="st17" x="254" y="229.5" width="18.2" height="18.2" transform="translate(117.9 -85.6) rotate(23.7)"/>
      <polygon class="st28" points="276.9 249 267.8 250.6 275.1 233.9 284.2 232.3 276.9 249"/>
      <polygon class="st9" points="258.4 226.6 275.1 233.9 284.2 232.3 267.5 225 258.4 226.6"/>
    </g>
  </g>
  <g>
    <path class="st11" d="M384.7,220.7v-22.7h-12.5v22.7c0,4.6-3.3,8.6-7.9,9.4-11.2,2-18.9,6.2-18.9,11.1s14.8,12.2,33,12.2,33-5.5,33-12.2-7.7-9.1-18.9-11.1c-4.6-.8-7.9-4.8-7.9-9.4Z"/>
    <g>
      <path class="st26" d="M378.5,208.8c-.6,0-1.2,0-1.8,0-25.1-.9-45.3-21.3-46-46.4-.2-5.3.6-10.5,2.1-15.5,4.7-15.1,7-31.8,7-49.6v-15h77.4v16.6c0,15.7,2.4,32.1,7.3,48.8,1.2,4.3,1.9,8.8,1.9,13.3,0,12.8-5,24.8-14,33.8-9,9-21.1,14-33.8,14h0Z"/>
      <path class="st11" d="M415.1,84.4v14.5c0,15.9,2.5,32.5,7.4,49.4,1.2,4.1,1.8,8.4,1.8,12.7,0,25.2-20.5,45.8-45.8,45.8s-1.2,0-1.7,0c-11.6-.4-22.5-5.2-30.7-13.6-8.2-8.3-13-19.3-13.3-30.8-.1-5.1.5-10.1,2-14.9,4.7-15.3,7.1-32.2,7.1-50.2v-12.9h73.2M419.3,80.2h-81.5v17.1c0,16.6-2.1,33.1-6.9,49-1.6,5.1-2.4,10.5-2.2,16.2.8,26.1,21.9,47.4,48,48.4.6,0,1.3,0,1.9,0,27.6,0,49.9-22.3,49.9-49.9s-.7-9.5-2-13.9c-4.5-15.7-7.2-31.9-7.2-48.2v-18.7h0Z"/>
      <path class="st26" d="M378.5,89.7c-23.6,0-38.7-5.6-38.7-9.4s15.1-9.4,38.7-9.4,38.7,5.6,38.7,9.4-15.1,9.4-38.7,9.4Z"/>
      <path class="st24" d="M412.8,114.9h-68.6c-1.1,11.8-3.2,23-6.5,33.5-1.4,4.5-2,9.1-1.9,13.8.6,22.4,18.7,40.5,41,41.4.5,0,1.1,0,1.6,0,11.4,0,22.1-4.4,30.2-12.5,8.1-8.1,12.5-18.8,12.5-30.2s-.6-8-1.7-11.9c-3.4-11.6-5.6-23-6.7-34.2Z"/>
      <path class="st7" d="M412.9,114.9c0-5.4-15.4-9.7-34.3-9.7s-34.3,4.3-34.3,9.7,15.4,9.7,34.3,9.7,34.3-4.3,34.3-9.7Z"/>
      <path class="st8" d="M418.2,52.4c-1.4-1.4-3.7-1.4-5.1,0l-17.1,17.1c-4.5,4.5-6.9,10.4-6.9,16.7v30.3c0,.6,1.6,1,3.6,1s3.6-.5,3.6-1v-30.3c0-4.3,1.7-8.5,4.8-11.6l17.1-17.1c1.4-1.4,1.4-3.7,0-5.1h0Z"/>
      <path class="st1" d="M418.4,55c0-1.5-1.2-2.7-2.7-2.7s-2.7,1.2-2.7,2.7,1.2,2.7,2.7,2.7,2.7-1.2,2.7-2.7Z"/>
      <path class="st11" d="M378.5,72.9c9.7,0,18.9,1,26.1,2.8,7,1.8,9.7,3.7,10.4,4.6-.7.8-3.4,2.8-10.4,4.6-7.1,1.8-16.4,2.8-26.1,2.8s-18.9-1-26.1-2.8c-7-1.8-9.7-3.7-10.4-4.6.7-.8,3.4-2.8,10.4-4.6,7.1-1.8,16.4-2.8,26.1-2.8M378.5,68.7c-22.5,0-40.8,5.1-40.8,11.5s18.2,11.5,40.8,11.5,40.8-5.2,40.8-11.5-18.2-11.5-40.8-11.5h0Z"/>
      <path class="st8" d="M400.9,74.8l3.5-3.5-6.3-2.3-2.4.7s-2,2.1-3,3.8l3.3,2,4.9-.8Z"/>
      <g>
        <path class="st3" d="M377.2,75.2c-8-6.7-19.9-5.6-26.6,2.4-6.7,8-5.6,19.9,2.4,26.6l24.2-28.9Z"/>
        <path class="st19" d="M349,76.2c7.4-8.9,20.7-10.1,29.5-2.7l-2.7,3.2c-7.1-5.9-17.7-5-23.6,2.1-5.9,7.1-5,17.7,2.1,23.6l-2.7,3.2c-8.9-7.4-10.1-20.7-2.7-29.5Z"/>
      </g>
      <path class="st11" d="M367.2,87.1l-2.5-.3c-.1,0-.3,0-.4,0-1.1,0-2.1.9-2.1,2.1s.9,2.1,2.1,2.1,1.8-.7,2-1.6c.2.1.4.2.4.2,0,0,.5-2.4.5-2.4Z"/>
    </g>
  </g>
  <g>
    <g>
      <path class="st11" d="M55.9,250.4v-24h-13.2v24c0,4.9-3.5,9.2-8.3,10-11.8,2.1-20,6.5-20,11.7s15.6,12.9,34.9,12.9,34.9-5.8,34.9-12.9-8.2-9.6-20-11.7c-4.8-.8-8.3-5.1-8.3-10Z"/>
      <g>
        <path class="st26" d="M85.2,188.8h0l-6.9-24.1c-.7-2.5-2.9-4.1-5.5-4.1H25.8c-2.6,0-4.8,1.7-5.5,4.1l-6.9,24.1h0c-1.3,4.5-1.8,9.4-1.3,14.4,1.8,18.1,16.7,32.4,34.8,33.5,21.8,1.4,39.8-15.9,39.8-37.3s-.5-7.2-1.5-10.6Z"/>
        <path class="st11" d="M49.4,238.5c-.8,0-1.7,0-2.5,0-18.8-1.2-34.5-16.2-36.3-35-.4-4.4-.2-8.7.8-12.9h0l.6-2.1,6.9-24.1c.9-3.1,3.8-5.3,7-5.3h47c3.3,0,6.2,2.2,7,5.3l7.5,26.2h0c.7,2.9,1,5.9,1,9,0,10.7-4.5,21.1-12.3,28.5-7.3,6.9-16.7,10.6-26.7,10.6ZM15.6,187.2h0l-.6,2.1c-1.3,4.5-1.7,9.1-1.3,13.8,1.7,17.2,16.1,31,33.3,32.1,10,.6,19.5-2.8,26.8-9.6,7.3-6.8,11.3-16.1,11.3-26.1s-.5-6.8-1.5-10.1l-.6-2.1h0l-6.3-22.1c-.5-1.7-2.1-3-3.9-3H25.8c-1.8,0-3.4,1.2-3.9,3l-6.3,22.1Z"/>
      </g>
      <path class="st6" d="M79,190.4H19.7v.3c-1.2,3.9-1.6,7.9-1.2,11.9,1.5,14.9,13.9,26.8,28.8,27.7.7,0,1.3,0,2,0,8.3,0,16-3.2,21.9-9.1,5.8-5.8,9.1-13.6,9.1-21.9s-.4-5.9-1.3-8.8v-.3Z"/>
      <g class="st23">
        <path class="st17" d="M48.3,227.6c0,0-.1,0-.2,0-13.6-.8-25-11.7-26.3-25.4-.4-3.7,0-7.3,1-10.9l1.7-5.9.8-2.9,3-10.3c.5-1.7,2.3-2.7,4-2.2,1.7.5,2.7,2.3,2.2,4l-1.8,6.2h0l-1.1,4.1-2.6,8.8c-.8,2.7-1.1,5.6-.8,8.4,1.1,10.5,9.8,18.9,20.3,19.6,1.8.1,3.1,1.6,3,3.4-.1,1.7-1.5,3-3.2,3Z"/>
      </g>
    </g>
    <path class="st17" d="M25.4,271.6c0-2.3-1.9-4.2-4.2-4.2s-4.2,1.9-4.2,4.2,1.9,4.2,4.2,4.2,4.2-1.9,4.2-4.2Z"/>
  </g>
</svg>