<svg width="869" height="265" viewBox="0 0 869 265" fill="none" xmlns="http://www.w3.org/2000/svg">
<g filter="url(#filter0_f_103_97)">
<path d="M144.956 0L14.6021 2.76927L139.491 19.3538L154.558 27.6616H40.6913L197.103 35.9694L165.549 40.1077L186.143 44.2461L98.3038 45.6462L142.208 52.5539L172.403 60.8617L231.405 66.3691L127.141 71.9076L251.999 74.6769L5 89.8923L206.705 98.2001L140.849 102.338L260.242 114.785H177.899L239.649 123.092L157.306 130L309.642 134.138L301.399 139.677L212.201 145.215L343.944 147.985L279.447 157.662L390.596 170.108L293.155 177.015L442.744 185.323L348.05 188.061L349.44 195L385.1 193.6L250.64 201.908L357.714 204.21L378.246 204.677L398.84 211.584L327.457 217.123L390.596 222.662L245.145 228.169L407.052 230.938L320.603 235.108L391.954 240.615L364.507 246.154L460.589 243.384V251.692L419.402 250.292L488.006 260L527.804 253.061L479.793 248.923L557.999 242.015L466.054 235.108L464.696 226.8H589.553L534.689 219.892H582.699L557.999 217.123L596.439 210.215H525.056L614.253 204.677L477.046 200.507L461.948 192.231L633.488 185.323L527.804 181.154L575.845 174.246L512.706 172.877L644.449 165.938H548.397L525.056 157.662L585.447 153.492L540.154 146.584L632.099 142.446L596.439 139.677L744.638 136.908L596.439 128.6L600.545 123.092L713.053 120.323L708.946 117.554L585.447 113.384L663.653 103.708L604.651 105.108L667.79 98.2001L607.399 96.7999L589.553 92.6616H759.705L601.903 84.3538L596.439 78.8152L752.851 73.3078L644.449 66.3691L787.152 65L645.838 56.6922H730.899L710.305 48.4155L674.645 49.7846L781.688 45.6462L652.693 40.1077L735.005 33.2001L670.538 30.4308L864 20.754L660.905 11.0771L837.942 1.36908L144.956 0Z" fill="url(#paint0_linear_103_97)" fill-opacity="0.4"/>
</g>
<defs>
<filter id="filter0_f_103_97" x="0" y="-5" width="869" height="270" filterUnits="userSpaceOnUse" color-interpolation-filters="sRGB">
<feFlood flood-opacity="0" result="BackgroundImageFix"/>
<feBlend mode="normal" in="SourceGraphic" in2="BackgroundImageFix" result="shape"/>
<feGaussianBlur stdDeviation="2.5" result="effect1_foregroundBlur_103_97"/>
</filter>
<linearGradient id="paint0_linear_103_97" x1="434.5" y1="7.77884" x2="434.5" y2="272.757" gradientUnits="userSpaceOnUse">
<stop stop-color="white"/>
<stop offset="0.49" stop-color="#FFE3A1"/>
<stop offset="0.98" stop-color="#F7941D"/>
</linearGradient>
</defs>
</svg>
