<svg width="1720" height="1008" viewBox="0 0 1720 1008" fill="none" xmlns="http://www.w3.org/2000/svg">
<path d="M1827.9 219.301C1827.5 218.176 1826.97 217.064 1826.29 216.084C1806.56 187.571 1780.65 167.784 1746.23 160.517C1719.06 154.778 1691.97 156.32 1665.03 162.52C1658.25 164.075 1651.45 164.991 1643.73 160.093C1657.19 153.205 1671.68 154.532 1684.93 149.053C1677.79 144.414 1669.66 144.768 1662.47 138.739C1681.73 134.853 1699.81 136.553 1718.94 133.583C1710.98 127.788 1701.83 128.085 1695.03 120.438C1720.02 117.917 1743.29 121.74 1768.22 120.748C1765.84 118.82 1765.19 118.062 1764.36 117.664C1722.48 97.7571 1680.11 92.0379 1636.82 113.379C1626.38 118.523 1617.05 125.456 1607.22 131.579C1604.69 133.153 1601.75 136.186 1598.42 132.161C1604.1 121.026 1614.24 113.044 1620.25 101.094C1611.7 101.138 1605.77 106.51 1597.89 106.712C1604.14 93.3145 1617.03 84.9474 1622.38 70.3556C1612.76 72.3589 1606.5 78.6784 1597.57 81.0672C1603.09 66.2921 1614.35 56.086 1620.03 41.9176C1612.59 42.5116 1608.86 48.7617 1601.87 48.8375C1607.3 32.2739 1612.51 16.3866 1617.89 0C1612.56 0.947933 1612.44 0.815222 1609.99 3.08394C1571.34 38.9853 1555.49 84.8463 1552.94 138.739C1527.07 107.691 1496.68 90.7298 1458.12 90.8056C1419.95 90.8815 1389.16 107.755 1361.93 133.001C1384.04 130.625 1405.4 124.773 1428.98 122.593C1422.66 130.669 1412.51 131.895 1408.85 141.135C1428.12 139.82 1446.12 134.6 1466.55 132.862C1458.87 142.885 1448.25 145.982 1441.2 155.063C1457.52 155.992 1472.06 151.448 1487.51 152.977C1483.78 159.79 1475.73 160.194 1472.46 166.571C1481.61 169.882 1491.27 170.135 1500.61 174.603C1497.11 177.08 1494.88 176.499 1492.8 176.227C1473.81 173.75 1454.81 173.067 1435.68 174.849C1393.12 178.831 1357.69 195.925 1332.14 230.961C1325.13 240.579 1318.69 250.753 1316.86 263.361C1333.12 251.986 1347.07 237.615 1364.69 228.408C1363.34 236.395 1358.63 242.677 1357.29 252.618C1374.67 237.779 1388.38 221.759 1406.42 210.915C1404.25 221.665 1397.99 230.544 1395.98 241.596C1397.74 241.773 1398.5 242.077 1399.09 241.881C1401.36 241.066 1403.62 240.206 1405.79 239.182C1437.33 224.42 1470.58 218.954 1505.19 221.108C1508.79 221.33 1512.89 220.887 1515.12 225.027C1510.74 228.237 1510.74 228.3 1507.17 228.572C1490.24 229.855 1473.73 233.293 1457.66 238.727C1402.32 257.459 1366.82 294.497 1353.28 351.771C1352.74 354.072 1352.1 356.347 1353.08 359.519C1347.82 356.72 1342.03 354.299 1335.64 352.315C1344.95 363.532 1355.48 373.694 1366.17 383.881C1357.73 381.657 1350.62 375.786 1341.07 376.513C1349.97 384.216 1358.87 391.92 1369.33 400.994C1362.14 398.536 1356.83 396.722 1351.53 394.902C1351.35 395.326 1351.15 395.756 1350.97 396.179C1357.8 400.11 1364.65 404.04 1371.49 407.971C1365.3 407.959 1360.04 404.262 1352.6 406.998C1361.69 413.975 1370.78 420.952 1381.48 429.167C1374.87 427.524 1371.69 422.784 1366.07 423.6C1378.51 437.458 1387.32 453.061 1391.88 470.92C1384.61 460.487 1377.66 449.895 1369.37 440.315C1346.97 414.398 1319.08 401.961 1284.64 407.952C1268.6 410.746 1255.71 419.517 1244.91 433.54C1255.93 429.161 1265.34 424.484 1277.96 422.873C1271.88 427.726 1266.17 429.369 1261.92 434.172C1273.59 434.994 1282.82 427.53 1295.15 427.334C1289.2 431.461 1283.72 433.237 1279.74 438.874C1290.51 437.61 1298.3 429.496 1309.73 430.456C1304.93 435.082 1298.93 436.877 1295.52 443.095C1309.21 441.831 1321.95 439.411 1334.66 443.247C1326.21 444.517 1317.89 446.04 1309.31 448.682C1317.82 453.63 1326.87 452.707 1335.41 454.205C1355.6 457.757 1355.61 457.712 1359.26 461.46C1351.35 461.144 1343.47 460.822 1333.56 460.424C1351.28 468.102 1367.22 474.725 1379.76 487.073C1342.65 465.719 1306.1 465.201 1270.63 489.658C1250.24 503.719 1234.33 535.986 1237.47 554.086C1242.56 546.028 1245.15 536.903 1251.76 530.122C1250.62 536.884 1250.56 543.557 1250.77 550.446C1255.37 539.993 1257.99 528.668 1265.99 517.862C1264.53 526.918 1261.75 534.122 1264.26 542.483C1270.54 530.621 1275.67 518.791 1284.6 509.362C1283.19 516.56 1281.53 523.537 1280.82 531.582C1289.67 522.899 1291.5 511.012 1299.87 501.418C1297.96 509.981 1296.34 517.205 1294.35 526.134C1301.93 517.148 1308.25 509.653 1315.67 500.856C1312.02 509.286 1308.73 516.162 1308.01 524.87C1317.84 517.925 1325.93 510.222 1337.3 505.115C1335.84 507.409 1335.06 508.623 1333.54 510.98C1340.16 508.907 1345.38 506.657 1350.83 505.741C1356.23 504.831 1361.3 501.21 1368.16 503.112C1341.62 514.696 1317.67 527.961 1304.87 554.718C1292.35 580.893 1290.94 607.637 1300.32 636.941C1305.64 625.617 1304.41 614.734 1307.96 603.403C1310.35 609.976 1308.73 615.619 1312.58 620.207C1316.07 608.56 1313.46 596.003 1319.2 584.856C1320.52 590.341 1321.98 595.573 1324.67 601.805C1327.77 590.164 1324.77 579.048 1329.32 567.572C1331.86 574.384 1329.77 580.716 1334.72 586.05C1336.68 573.55 1339.33 562.124 1344.28 551.248C1344.64 559.394 1343.85 567.553 1346.92 576.842C1352.48 562.314 1351.72 547.867 1357.96 534.88C1358.78 542.66 1359.6 550.439 1360.42 558.219C1363.85 552.651 1366.01 547.001 1368.14 541.339C1370.31 535.557 1370.44 528.959 1375.53 522.911C1375.23 529.174 1374.99 534.23 1374.71 540.315C1379.3 536.922 1381.35 533.079 1383.74 529.433C1386.11 525.799 1388.96 522.469 1391.6 519.006C1364.27 646.819 1370.95 772.015 1415.28 895.063L1414.87 895.145C1408.24 882.032 1399.83 870.695 1385.51 862.48C1393.94 874.152 1402.6 884.617 1408.93 896.308L1406.52 896.782C1406.52 896.782 1406.46 896.808 1406.43 896.82C1399.42 887.878 1391.04 880.402 1378.26 877.23C1384.18 882.854 1389.73 887.568 1394.56 892.915C1396.51 895.057 1398.55 897.161 1400.45 899.367C1398.56 900.163 1396.65 900.959 1394.73 901.743C1388.92 899.158 1382.5 897.743 1375.15 897.458C1380.36 899.999 1384.72 902.255 1388.34 904.315C1385.25 905.541 1382.12 906.748 1378.99 907.93C1375.87 907.488 1372.62 907.475 1369.18 908.063C1370.87 908.581 1372.55 909.124 1374.2 909.718C1036.02 1034.45 434.156 946.271 278.054 920.24C279.206 919.583 280.338 918.894 281.432 918.149C278.409 918.484 275.398 918.837 272.413 919.299C268.428 918.629 264.785 918.003 261.502 917.435C267.966 912.632 274.968 908.745 282.216 905.175C268.814 902.716 258.339 907.955 247.764 915.02C242.824 914.129 240.231 913.643 240.231 913.643L240.016 913.573C245.708 904.404 252.274 897.054 259.086 889.843C249.099 895.43 240.693 903.07 231.243 909.668C239.288 896.921 247.296 884.251 256.638 872.414C243.4 879.037 232.331 887.935 223.571 902.318C236.183 787.694 257.321 678.063 322.393 581.746C321.046 594 327.383 604.364 329.078 615.72C331.709 609.009 333.158 602.152 337.345 595.972C339.698 612.295 337.44 628.037 336.858 644.961C344.429 638.964 344.701 630.552 350.324 625.275C345.302 637.851 346.44 651.236 343.506 664.444C349.736 661.72 350.362 655.154 355.732 650.2C351.886 663.199 352.291 674.789 351.33 687.03C356.459 684.249 355.156 678.423 359.938 675.781C358.825 687.081 359.938 697.432 361.077 707.764C383.031 663.945 380.431 622.387 348.812 583.408C354.657 585.589 356.453 592.148 362.493 593.444C362.316 591.731 361.393 590.429 363.429 589.254C368.654 597.337 377.332 602 383.783 610.804C384.681 603.764 385.402 598.146 386.124 592.534C386.686 608.105 392.683 621.616 399.115 635.829C403.157 630.344 402.803 624.245 405.541 618.981C409.526 627.999 407.135 638.243 411.911 647.659C415.155 642.452 415.813 637.27 418.046 631.993C420.633 641.833 423.226 651.672 426.338 663.502C428.065 657.353 429.178 653.391 430.531 648.563C433.858 658.87 430.867 668.988 434.206 680.028C442.764 657.309 443.112 636.373 433.757 615.398C417.508 578.972 385.58 565.979 348.224 558.629C365.049 552.759 380.855 555.501 397.275 558.136C395.143 553.58 390.153 553.89 388.976 549.264C395.851 550.471 400.235 556.139 406.933 557.277C404.384 550.711 397.622 549.169 393.132 542.951C404.036 547.128 412.24 552.986 421.208 557.606C422.96 552.645 420.816 548.512 419.811 542.717C424.637 547.855 427.179 553.599 433.428 554.111C433.599 548.992 429.538 545.813 427.647 539.936C434.731 544.979 440.449 549.043 446.154 553.1C446.47 552.74 446.799 552.379 447.122 552.019C445.439 547.829 443.763 543.633 441.448 537.863C449.892 542.849 456.913 546.989 464.579 551.52C464.326 545.662 459.861 542.521 457.963 537.023C468.684 543.229 477.159 550.275 486.438 557.536C486.438 555.47 486.71 554.572 486.4 553.947C472.915 525.97 440.588 511.132 415.307 512.718C388.818 514.386 366.529 526.324 345.859 541.965C343.733 543.57 342.026 546.155 338.148 545.946C348.414 531.955 361.684 522.185 375.453 511.41C368.508 511.523 363.992 515.916 356.883 515.461C365.504 509.545 374.903 508.067 382.563 502.158C374.555 501.52 367.895 505.412 360.634 505.646C369.9 498.903 382.246 498.391 391.361 489.797C383.834 488.855 377.945 492.653 371.07 492.009C378.363 488.425 385.649 484.842 394.846 480.324C385.852 481.278 379.071 481.998 372.297 482.719C382.126 477.139 393.84 477.17 403.682 470.535C396.06 467.931 389.166 472.829 381.867 470.314C401.449 465.941 412.625 448.764 430.272 440.978C415.421 439.462 401.753 440.372 389.811 448.233C387.819 445.737 391.487 444.789 389.906 442.685C364.41 452.101 351.513 472.627 342.032 497.696C338.212 485.007 345.391 475.774 348.041 464.664C330.236 483.294 325.65 506.341 321.235 531.203C311.887 474.927 271.274 449.864 226.55 428.548C233.457 437.395 240.364 446.236 248.567 456.746C241.281 453.826 236.12 451.153 230.212 451.064C240.787 460.758 252.729 468.272 265.43 475.951C256.72 477.486 249.68 473.006 240.838 473.878C251.698 485.247 265.98 485.594 277.89 491.832C268.889 491.231 259.883 490.625 250.87 490.024C250.819 490.366 250.768 490.707 250.718 491.054C259.111 494.909 267.504 498.764 275.891 502.613C267.909 502.227 260.427 500.805 250.952 501.855C265.417 509.545 280.243 510.702 293.184 517.249C284.038 515.334 274.81 516.111 264.291 514.405C272.324 519.366 280.926 519.436 287.871 524.358C284.038 526.684 281.596 523.777 278.124 523.929C285.954 529.225 294.221 533.054 299.205 540.726C244.399 505.874 193.653 529.509 183.945 565.486C188.448 558.674 194.602 555.324 201.743 550.882C199.631 555.817 198.005 559.584 195.912 564.481C207.657 559.375 213.818 548.746 226.43 543.93C221.446 550.951 217.537 556.455 212.319 563.792C223.881 559.135 232.091 553.422 240.92 548.581C237.967 554.142 232.584 558.143 231.338 565.12C242.755 560.361 253.589 556.108 262.052 544.752C260.604 553.536 253.943 557.1 252.571 564.178C258.339 561.631 263.305 559.438 268.63 557.081C268.611 558.478 268.599 559.407 268.586 560.626C277.979 560.513 287.612 558.964 296.454 564.292C271.552 563.982 250.054 571.705 232.147 589.172C216.575 604.364 203.558 634.281 205.5 652.98C209.087 644.392 213.065 636.979 218.764 628.138C218.58 634.426 217.227 638.723 218.593 643.754C226.79 636.67 228.713 626.602 234.456 618.273C235.898 623.449 233.16 627.949 235.487 632.315C243.583 624.15 246.594 613.609 251.319 602.563C252.274 608.023 250.895 612.409 253.887 616.34C259.231 611.739 259.94 604.421 264.139 598.733C265.929 602.942 263.07 607.145 265.847 610.721C273.532 606.607 273.81 597.583 278.902 591.813C280.66 594.385 278.276 597.33 280.736 599.624C289.376 592.452 297.94 585.506 309.496 580.918C242.9 672.602 209.162 774.897 197.796 886.387C193.413 882.19 195.602 876.515 191.105 873.318C191.054 880.712 188.556 887.063 186.747 893.812C181.225 878.121 175.887 862.549 171.933 846.637C159.581 796.971 151.459 746.649 148.208 695.473C145.817 657.644 143.648 619.777 145.394 581.98C147.841 529.06 151.902 476.229 158.518 423.574C163.635 382.819 170.978 342.444 176.759 301.815C177.98 293.29 180.244 284.917 182.256 275.412C186.272 282.629 187.335 289.777 192.072 295.945C194.937 284.31 197.6 273.542 200.269 262.716C206.202 268.606 210.674 275.634 213.596 283.963C216.354 291.805 219.573 299.616 225.386 308.009C225.785 302.087 225.841 298.131 226.366 294.238C226.866 290.466 225.475 285.947 231.028 281.808C234.38 300.476 239.143 317.324 247.947 334.266C251.559 324.863 248.434 315.649 252.697 308.034C259.244 330.904 263.083 354.091 270.863 377.233C276.517 365.763 278.87 354.223 282.716 343.208C283.614 362.862 281.483 382.466 287.112 402.985C292.058 394.523 291.318 385.518 297.207 376.778C295.708 394.953 302.178 409.956 303.557 426.949C313.487 404.925 317.124 383.237 312.741 360.625C304.537 318.328 282.229 285.062 246.999 260.454C237.897 254.097 228.182 248.617 217.005 241.653C244.039 241.856 264.626 255.607 287.346 264.454C287.004 258.204 282.956 254.526 283.582 248.32C297.523 258.577 304.31 275.532 321.027 281.309C322.241 270.313 319.18 260.068 317.2 249.496C328.699 266.116 341.88 281.321 352.949 300.375C353.657 289.783 354.227 281.353 354.789 272.922C355.403 272.752 356.023 272.581 356.63 272.411C361.456 291.679 369.571 308.634 388.179 317.494C387.521 310.536 386.762 302.549 386.016 294.567C386.668 294.403 387.313 294.245 387.964 294.087C395.44 312.464 402.929 330.841 410.848 350.274C414.46 325.217 410.222 297.196 400.342 279.255C375.048 233.318 320.932 209.31 270.414 212.564C254.551 213.588 238.903 215.806 223.406 219.958C240.174 212.248 255.658 201.967 274.639 197.044C271.666 193.227 276.65 193.29 278.149 191.11C275.796 189.321 273.886 187.975 272.103 186.471C270.338 184.986 267.713 184.253 266.682 180.019C278.307 187.906 288.927 195.363 302.646 191.072C298.725 185.984 292.362 184.417 285.916 181.649C301.976 179.551 316.896 183.551 332.576 182.983C328.18 175.747 322.456 170.925 316.403 166.337C332.829 169.705 348.42 175.266 365.226 181.428C360.286 171.81 353.404 166.078 349.47 157.502C361.285 164.327 373.094 171.152 385.523 178.325C385.706 170.312 378.761 166.716 377.098 160.289C388.679 162.021 396.87 170.95 408.476 173.036C406.61 169.377 405.149 166.545 402.771 161.888C415.649 167.854 426.654 172.947 438.457 178.42C437.622 176.53 437.268 175.557 436.774 174.672C436.135 173.529 435.503 172.347 434.655 171.367C414.732 148.37 389.931 133.614 359.508 130.903C319.015 127.295 282.716 139.479 250.003 163.285C240.206 170.407 231.445 178.824 221.275 185.517C232.786 168.132 246.79 153.3 266.378 141.779C258.947 142.209 254.203 146.057 246.638 144.749C261.578 138.575 274.392 131.952 287.997 127.055C275.879 126.821 264.405 129.759 252.716 132.066C267.371 125.222 284.304 123.832 297.32 112.456C287.327 113.84 277.814 115.161 268.301 116.482C268.251 116.141 268.194 115.799 268.149 115.458C280.382 109.676 292.621 103.893 304.86 98.111C304.702 97.7824 304.531 97.4601 304.373 97.1315C295.075 98.0415 285.784 98.9515 276.498 99.8679C287.953 93.3019 301.185 91.861 312.285 84.1195C306.757 83.7467 301.236 83.3802 294.044 82.8999C304.284 77.4398 314.651 76.5866 323.063 69.2433C316.979 66.4754 311.046 67.9162 305.322 66.488C307.896 62.7531 311.539 61.0911 314.575 58.715C317.592 56.3451 320.552 53.9058 323.544 51.498C322.949 50.9482 322.367 50.4047 321.779 49.8613C246.651 75.2848 208.524 131.902 190.744 206.428C197.183 165.648 193.641 126.214 173.591 86.837C173.141 93.561 172.838 98.0542 172.534 102.554C160.681 70.0459 138.493 49.0713 106.533 37.9236C108.386 44.1737 113.794 48.61 113.958 56.105C93.9903 34.7639 62.7511 29.7208 43.795 44.3001C55.1927 45.6651 66.7295 46.297 78.2727 51.8835C71.8465 54.0511 65.8946 52.7999 59.4305 56.1808C85.1985 59.8967 104.098 74.8614 124.648 86.818C116.122 88.0061 107.735 88.1641 99.7334 89.9335C121.972 102.497 138.259 121.152 154.875 139.523C148.847 137.166 143.667 133.734 138.278 130.682C132.782 127.566 127.228 124.451 120.113 123.231C143.06 143.738 164.919 178.856 169.037 201.903C165.045 199.104 163.54 195.179 161.383 191.798C152.762 178.275 144.755 164.397 132.206 153.761C114.363 138.638 95.9953 125.045 71.7958 121.866C44.0164 118.214 21.1262 127.535 0.348537 146.898C13.3085 144.958 23.1628 136.742 37.3751 136.616C28.8427 144.218 21.0693 149.938 14.7253 157.085C37.3372 160.194 56.2553 147.486 79.0064 143.429C70.7522 149.78 64.4146 155.562 60.6196 163.803C78.5193 164.77 96.1408 159.733 115.736 163.714C109.36 166.931 104.591 169.339 99.7461 171.784C99.9548 174.224 103.49 174.811 102.782 178.047C100.505 178.066 98.1142 178.085 95.717 178.104C116.722 183.867 132.718 196.81 147.462 211.762C131.238 204.412 115.274 196.93 97.5197 193.618C52.5868 185.232 14.5166 197.916 -15.9763 231.226C-31.1184 247.72 -39.0247 268.208 -37.8925 293.17C-30.2835 280.658 -23.5727 269.611 -16.8618 258.564C-17.1781 266.445 -19.2147 273.605 -17.1148 282.067C-4.50275 267.646 4.28269 251.701 17.9827 239.574C15.0226 247.967 12.0688 256.353 8.36233 266.856C33.1753 255.86 44.8703 232.237 65.9452 220.458C61.0433 229.545 53.6178 236.794 50.1011 247.012C69.873 241.527 89.9929 238.866 106.533 225.993C103.484 231.959 96.7417 234.342 93.8891 241.609C103.978 240.206 113.104 239.277 122.099 237.596C133.553 235.454 141.2 235.245 149.954 238.336C109.581 247.973 74.503 264.998 48.9689 297.392C22.5303 330.936 18.4444 368.948 28.1849 409.311C32.6504 392.4 35.5725 375.122 42.5617 358.767C41.303 369.605 42.821 379.824 47.394 390.738C54.1364 369.965 57.4444 349.364 65.8503 330.348C66.7105 339.828 64.6865 349.357 71.1444 358.672C83.2757 336.2 88.6267 311.352 103.2 290.832C99.5184 301.531 100.821 311.819 103.902 323.093C117.07 307.332 120.998 287.483 134.534 272.802C134.021 280.468 133.503 288.127 132.99 295.793C145.438 284.342 158.177 274.009 168.689 260.479C119.373 470.213 100.613 681.658 128.266 896.378C120.087 882.077 110.65 869.494 93.7373 863.51C101.093 875.163 112.358 884.036 112.776 898.52L111.498 898.501C95.502 881.085 88.6014 876.756 77.8805 877.425C83.845 882.69 89.9233 887.726 95.4767 893.585L-38 844.532V1008H1801V790.607C1755.27 792.295 1686.66 844.532 1686.66 844.532L1595.19 864.755L1588.29 865.431C1581.23 835.994 1577.53 805.989 1577.2 775.466C1576.69 728.436 1583.76 682.17 1592.32 636.094C1602.98 578.751 1615.98 521.818 1622.44 463.735C1628.2 411.801 1627.01 360.126 1616.95 308.78C1614.65 297.038 1611.77 285.41 1609.24 274.117C1612.08 270.452 1614.81 272 1617.4 273.264C1625.02 276.961 1632.14 281.485 1639.16 286.2C1643.65 289.221 1647.34 293.714 1653.4 294.877C1655.2 287.053 1649.69 279.362 1653.24 271.709C1656.9 272.657 1657.56 275.513 1658.94 277.649C1664.55 286.37 1669.99 295.212 1675.68 303.882C1677.15 306.119 1678.6 309.291 1682.52 307.478C1684.45 300.166 1681.93 292.38 1684.29 282.914C1694.7 298.22 1699.38 314.676 1711.71 328.2C1714.59 318.575 1711.54 310.789 1713.96 303.522C1716.54 304.166 1716.75 306.094 1717.5 307.49C1723.42 318.543 1729.22 329.659 1735.15 340.712C1736.56 343.348 1737.96 346.236 1741.57 346.419C1743.91 341.376 1740.43 336.093 1743.52 330.576C1754.41 344.434 1762.5 359.703 1775.77 373.29C1775.77 369.1 1776.03 367.153 1775.73 365.302C1769.41 325.349 1753.39 290.655 1721.09 264.77C1703.59 250.76 1683.1 243.05 1662.04 236.478C1659.05 235.549 1655.07 235.479 1654.26 229.229C1672.8 225.873 1690.3 228.812 1707.36 235.77C1724.6 242.803 1738.91 254.545 1753.55 266.192C1756.72 260.751 1751.31 256.662 1753.7 251.139C1771.96 269.921 1789.78 288.235 1807.6 306.561C1808.37 306.094 1809.14 305.614 1809.92 305.146C1807.74 280.974 1798.23 259.38 1785.02 239.119C1771.4 218.239 1751.08 205.158 1729.56 193.208C1735.86 190.124 1741.03 192.355 1745.96 194.263C1769.37 203.306 1793.12 211.37 1816.88 219.415C1820.38 220.603 1823.79 222.613 1827.93 221.759C1827.93 220.717 1828.11 219.946 1827.89 219.32L1827.9 219.301ZM149.619 889.508C145.634 891.733 141.548 895.866 136.665 889.862C141.365 889.18 145.539 890.81 149.619 889.508ZM131.308 858.189C136.501 855.408 139.53 856.685 143.572 857.816C139.657 860.995 136.482 859.75 131.308 858.189ZM133.92 745.802C129.417 748.102 125.685 749.328 120.536 744.904C125.634 745.246 129.366 745.499 133.92 745.802ZM126.925 808.22C132.895 805.389 138.126 808.081 142.731 806.577C138.063 808.896 133.465 811.355 126.925 808.22ZM1474.12 454.344C1479.52 453.902 1484.85 454.907 1490.27 455.76C1492.01 462.686 1494.18 469.555 1496.85 476.361C1484.27 474.725 1471.04 475.325 1457.31 477.714C1452.09 478.624 1446.95 480.033 1440.54 481.493C1448.08 473.296 1460.05 475.388 1467.15 466.478C1473.75 465.113 1482.1 465.707 1490.31 463.21C1486.14 456.866 1479.56 456.922 1474.12 454.344ZM1354.86 360.467C1366.84 348.599 1375.51 334.785 1387.36 322.746C1388.23 328.983 1385.79 334.279 1388.55 340.485C1399.61 329.034 1404.07 314.208 1414.15 301.866C1416.03 309.304 1413.75 315.428 1416.38 322.879C1429.05 312.837 1430.62 296.886 1440.05 285.498C1444.25 292.981 1439.79 301.24 1444.32 309.468C1454.34 299.218 1457.73 285.663 1466.29 274.736C1470.59 282.667 1466.31 291.237 1470.81 299.269C1482.84 291.237 1485.69 276.758 1495.1 265.788C1497.85 274.995 1494.19 282.8 1496.65 289.821C1499.46 290.883 1501.44 289.612 1503.55 289.24C1505.69 288.854 1507.87 288.456 1511.01 291.186C1496.83 320.547 1488.12 352.031 1485.47 385.107C1484.6 396.008 1484.33 406.808 1484.82 417.507C1460.49 425.729 1441.34 441.68 1427.11 464.272C1426.17 465.751 1425.31 467.527 1422.48 468.228C1428.98 450.913 1440.5 438.311 1454.51 426.165C1446.78 429.338 1440.17 432.049 1433.56 434.766C1443.71 427.631 1451.89 418.234 1462.17 411.295C1454.08 414.55 1445.97 417.804 1437.88 421.059C1445.29 412.212 1456.46 410.12 1466.9 404.142C1458.14 402.859 1451.31 406.353 1443.91 406.316C1456.16 402.334 1465.8 395.054 1475.03 384.734C1468.48 385.423 1463.28 385.973 1458.07 386.523C1466.47 380.62 1473.89 374.01 1481.51 366.989C1475.74 365.592 1471.24 368.6 1465.39 369.03C1473.59 360.505 1481.36 353.332 1489.93 346.817C1477.71 349.199 1465.92 352.89 1456.19 360.587C1426.58 383.982 1409.73 414.411 1407.56 452.568C1400.03 414.398 1388.62 379.356 1354.88 360.467H1354.86ZM1398.64 826.161C1403.43 824.645 1406.7 824.272 1410.1 826.111C1406.85 828.026 1403.59 828.986 1398.64 826.161ZM1393.82 802.627C1398.52 803.449 1401.83 804.03 1406.96 804.928C1401.34 806.931 1397.91 806.773 1393.82 802.627ZM1457.83 878.253C1453.89 861.785 1458.34 848.514 1462.55 835.179C1458.12 841.303 1456.21 848.387 1453.68 855.174C1451.21 861.785 1449.99 868.755 1448.66 875.789C1392.14 763.636 1381.02 646.098 1404.8 522.633C1411.31 528.498 1417.87 531.297 1421.89 537.472C1422.46 531.556 1420.72 526.147 1422.46 520.364C1432.65 531.961 1434.41 546.584 1440.25 559.577C1439.98 550.262 1439.43 541.093 1444.28 530.646C1447.14 548.082 1446.49 564.26 1453.72 580.925C1455.79 571.003 1457.44 563.059 1459.1 555.109C1459.69 555.166 1460.27 555.229 1460.86 555.286C1462.25 568.463 1463.65 581.645 1465.15 595.902C1470.65 588.123 1471.55 579.661 1476.04 571.932C1477.3 585.266 1475.09 597.937 1479.43 611.309C1481.76 605.11 1483.67 600.035 1486.12 593.513C1489.26 609.565 1492.07 623.999 1495.09 639.425C1506.22 620.017 1506.21 599.985 1502.44 579.945C1495.8 544.701 1474.35 520.352 1443.25 503.498C1452.33 503.788 1459.66 508.996 1468.35 511.454C1467.29 507.795 1466.38 504.673 1465.47 501.551C1465.87 501.172 1466.26 500.793 1466.66 500.407C1473.1 506.013 1479.55 511.618 1486.06 517.287C1487.57 514.475 1484.03 513.116 1485.85 511.239C1489.63 514.077 1493.4 516.914 1497.52 520.004C1496.44 513.299 1492.44 508.029 1491.42 501.576C1498.24 511.643 1504.33 522.21 1515.95 528.472C1516.61 523.031 1514.82 518.336 1514.18 513.369C1521.1 521.774 1527.5 530.4 1533.32 541.339C1534.22 530.419 1529.38 522.172 1528.91 513.154C1532.75 519.688 1535.92 526.45 1539.27 533.111C1542.77 540.031 1549.12 544.316 1555.12 550.117C1555.6 545.15 1556 540.96 1556.49 535.873C1562.19 544.322 1566.22 553.074 1570.84 562.775C1564.5 591.112 1558.07 619.423 1552.03 647.824C1536.37 721.491 1528.29 795.65 1538.91 870.752L1497.86 878.822C1501.1 874.613 1504.59 870.442 1508.29 866.183C1499.41 869.823 1492.41 874.853 1486.45 881.059L1474.27 883.454C1477.64 871.536 1483.61 861.254 1489.32 850.852C1476.08 858.814 1471.39 872.18 1465.92 885.097L1464.28 885.42C1466.25 871.1 1468.89 857.064 1477.09 844.583C1466.14 852.444 1462.17 864.401 1457.82 878.241L1457.83 878.253ZM1583.68 503.776C1580.13 520.813 1576.4 537.806 1572.63 554.793C1570.84 532.719 1565.55 518.443 1553.99 506.051C1538.53 489.5 1520.72 480.438 1501.23 477.031C1504.55 467.849 1506.14 458.427 1507.04 448.808C1510.81 449.832 1514.56 450.704 1518.46 450.445C1515.62 446.754 1511.86 444.713 1507.5 443.247C1507.54 442.722 1507.57 442.204 1507.6 441.68C1508.53 441.041 1509.27 440.53 1509.95 440.062C1512.92 440.289 1514.93 443.057 1517.69 442.577C1518.03 440.359 1514.28 440.511 1515.54 437.515C1524.14 438.368 1531.59 443.519 1540.09 444.637C1540.7 443.828 1541.3 443.013 1541.91 442.204C1536.54 438.274 1531.17 434.343 1524.4 429.395C1524.41 429.312 1524.42 429.23 1524.43 429.148C1536.15 434.659 1545.35 441.155 1557.41 445.016C1554.13 441.781 1552.03 439.727 1548.86 436.611C1558.12 437.547 1564.37 441.762 1571.52 444.852C1560.32 428.162 1543.33 417.495 1525.28 413.886C1525.05 400.691 1522.85 387.704 1523.28 374.143C1531.72 381.739 1533.71 392.084 1542.56 399.023C1546.04 381.322 1540.99 364.916 1541.98 347.62C1549.24 352.441 1550.58 361.301 1558.7 364.082C1562.28 348.624 1558.7 333.786 1559.44 317.994C1566 322.651 1566.76 330.203 1573.14 334.153C1578.29 319.788 1578.14 304.596 1583.8 291.022C1587.26 292.279 1587.17 294.358 1587.67 296.197C1591.37 309.993 1593.23 324.104 1594.57 338.267C1599.88 394.005 1595.05 449.187 1583.67 503.788L1583.68 503.776Z" fill="#231F20"/>
</svg>
