<?xml version="1.0" encoding="UTF-8"?>
<svg id="Layer_1" xmlns="http://www.w3.org/2000/svg" version="1.1" viewBox="0 0 200 200">
  <!-- Generator: Adobe Illustrator 30.1.0, SVG Export Plug-In . SVG Version: 2.1.1 Build 136)  -->
  <defs>
    <style>
      .st0 {
        fill: #ffbf3e;
      }

      .st1 {
        fill: #ccd5d6;
      }

      .st2 {
        fill: #da2f47;
      }

      .st3 {
        fill: #e2e7e8;
      }

      .st4 {
        fill: #ffd67b;
      }

      .st5 {
        fill: #f5f7f7;
      }
    </style>
  </defs>
  <path class="st3" d="M127.3,51l49.6,5.2c4.4.5,8.6-2.5,9.1-6.9.5-4.6-3-8.7-7.6-8.8l-50.3-1.7c-1-5.3-5.6-9.4-11.2-9.4l-22.4-.2c-.9,0-1.6.7-1.7,1.5h0c0,.9.6,1.7,1.5,1.8l16.3,1.1c1.2,0,2.2,1.2,2.1,2.4h0c0,1.2-1.2,2.2-2.4,2.1l-16.3-1.1c-.9,0-1.7.6-1.7,1.5v.2c0,.9.6,1.7,1.5,1.8l16.3,1.1c1.2,0,2.2,1.2,2.1,2.4,0,1.2-1.2,2.2-2.4,2.1l-16.3-1.1c-.9,0-1.7.6-1.8,1.5v.2c0,.9.6,1.7,1.5,1.8l16.3,1.1c1.2,0,2.2,1.2,2.1,2.4,0,1.2-1.2,2.2-2.4,2.1l-16.3-1.1c-.9,0-1.7.6-1.8,1.5h0c0,.9.6,1.6,1.4,1.7l22.2,2.9c5.6.7,10.7-2.7,12.4-7.8Z"/>
  <ellipse class="st5" cx="100" cy="124.7" rx="90.3" ry="45.9"/>
  <path class="st1" d="M100,173.8c-52.5,0-93.6-21.6-93.6-49.2s41.1-49.2,93.6-49.2,93.6,21.6,93.6,49.2-41.1,49.2-93.6,49.2ZM100,82c-23.6,0-45.8,4.7-62.4,13.1-15.9,8.1-24.7,18.6-24.7,29.6s8.8,21.5,24.7,29.6c16.6,8.5,38.8,13.1,62.4,13.1s45.8-4.7,62.4-13.1c15.9-8.1,24.7-18.6,24.7-29.6s-8.8-21.5-24.7-29.6c-16.6-8.5-38.8-13.1-62.4-13.1Z"/>
  <ellipse class="st1" cx="100" cy="118.2" rx="77.4" ry="37.5"/>
  <path class="st4" d="M174.9,113c0,21-33.5,38.1-74.9,38.1s-74.9-17.1-74.9-38.1,33.5-47.1,74.9-47.1,74.9,26.1,74.9,47.1Z"/>
  <path class="st0" d="M100,145.9c-39.5,0-70.5-16.4-70.5-37.4s1.4-3.2,3.2-3.2,3.2,1.4,3.2,3.2c0,16.8,29.3,31,64.1,31s64.1-14.2,64.1-31,1.4-3.2,3.2-3.2,3.2,1.4,3.2,3.2c0,21-31,37.4-70.5,37.4Z"/>
  <path class="st0" d="M100,131.6c-30.9,0-55.1-13-55.1-29.6s1.4-3.2,3.2-3.2,3.2,1.4,3.2,3.2c0,12.6,22.3,23.2,48.7,23.2s48.7-10.6,48.7-23.2,1.4-3.2,3.2-3.2,3.2,1.4,3.2,3.2c0,16.6-24.2,29.6-55.1,29.6Z"/>
  <path class="st0" d="M95.6,90.2c-1.7,0-3.1-1.4-3.1-3.1s-.4-1.7-1.3-2.8c-1.2-1.4-2.8-3.3-2.8-6.8s1.6-5.5,2.8-6.8c.9-1.1,1.3-1.5,1.3-2.8s-.4-1.7-1.3-2.8c-1.2-1.4-2.8-3.3-2.8-6.8s1.6-5.5,2.8-6.8c.9-1.1,1.3-1.5,1.3-2.8s-.4-1.7-1.3-2.8c-1.2-1.4-2.8-3.3-2.8-6.8s1.6-5.5,2.8-6.8c.9-1.1,1.3-1.5,1.3-2.8s1.4-3.1,3.1-3.1,3.1,1.4,3.1,3.1c0,3.6-1.6,5.5-2.8,6.8-.9,1.1-1.3,1.5-1.3,2.8s.4,1.7,1.3,2.8c1.2,1.4,2.8,3.3,2.8,6.8s-1.6,5.5-2.8,6.8c-.9,1.1-1.3,1.5-1.3,2.8s.4,1.7,1.3,2.8c1.2,1.4,2.8,3.3,2.8,6.8s-1.6,5.5-2.8,6.8c-.9,1.1-1.3,1.5-1.3,2.8s.4,1.7,1.3,2.8c1.2,1.4,2.8,3.3,2.8,6.9s-1.4,3.1-3.1,3.1Z"/>
  <path class="st0" d="M105.4,90.2c-1.7,0-3.1-1.4-3.1-3.1s-.4-1.7-1.3-2.8c-1.2-1.4-2.8-3.3-2.8-6.8s1.6-5.5,2.8-6.8c.9-1.1,1.3-1.5,1.3-2.8s-.4-1.7-1.3-2.8c-1.2-1.4-2.8-3.3-2.8-6.8s1.6-5.5,2.8-6.8c.9-1.1,1.3-1.5,1.3-2.8s-.4-1.7-1.3-2.8c-1.2-1.4-2.8-3.3-2.8-6.8s1.6-5.5,2.8-6.8c.9-1.1,1.3-1.5,1.3-2.8s1.4-3.1,3.1-3.1,3.1,1.4,3.1,3.1c0,3.6-1.6,5.5-2.8,6.8-.9,1.1-1.3,1.5-1.3,2.8s.4,1.7,1.3,2.8c1.2,1.4,2.8,3.3,2.8,6.8s-1.6,5.5-2.8,6.8c-.9,1.1-1.3,1.5-1.3,2.8s.4,1.7,1.3,2.8c1.2,1.4,2.8,3.3,2.8,6.8s-1.6,5.5-2.8,6.8c-.9,1.1-1.3,1.5-1.3,2.8s.4,1.7,1.3,2.8c1.2,1.4,2.8,3.3,2.8,6.9s-1.4,3.1-3.1,3.1Z"/>
  <path class="st2" d="M126.7,83.9h0s-7.3-7.7-7.3-7.7h0c-2.3-2.7-7.2-4.6-12.9-4.6s-7,.8-9.5,2.1c-2.4-.6-5-1-7.8-1-10.1,0-18.3,4.7-18.3,10.5s5.9,9.1,13.9,10.2c2.5.4,4.4,2.4,4.4,4.9v29.9c0,2,1.5,3.9,3.6,4,2.2.1,4-1.6,4-3.8v-30.2c0-1,1.1-1.7,2-1.3.7.4,1.5.7,2.3,1,1.1.4,1.8,1.4,1.8,2.5v9.6c0,1.8,1.2,3.5,3,3.8,2.4.5,4.5-1.4,4.5-3.7v-10.6c.2,0,.3,0,.5,0,10.1,0,18.3-4.7,18.3-10.5s-.9-3.7-2.4-5.2Z"/>
</svg>