<?xml version="1.0" encoding="UTF-8"?>
<svg id="Layer_1" xmlns="http://www.w3.org/2000/svg" version="1.1" viewBox="0 0 200 200">
  <!-- Generator: Adobe Illustrator 30.1.0, SVG Export Plug-In . SVG Version: 2.1.1 Build 136)  -->
  <defs>
    <style>
      .st0 {
        fill: #efac52;
      }

      .st1 {
        fill: #fcd541;
      }

      .st2 {
        fill: #334452;
      }

      .st3 {
        fill: #77c433;
      }

      .st4 {
        fill: #dc3f48;
      }

      .st5 {
        fill: #b53939;
      }
    </style>
  </defs>
  <path class="st0" d="M185.3,180c-4.4,4.4-10.9,6-16.8,4.2L26,140.7l1.9-6.5c7.6-26.4,21.9-50.7,41.4-70.2,19.5-19.5,43.8-33.8,70.2-41.4l6.5-1.9,43.4,142.4c1.8,6,.2,12.4-4.2,16.8Z"/>
  <path class="st1" d="M34.6,136.1l135.9,41.4c7.6,2.3,14.7-4.8,12.4-12.4L141.4,29.3c-24.6,7.1-47.8,20.3-67.2,39.6-19.4,19.4-32.6,42.6-39.6,67.2Z"/>
  <path class="st0" d="M150.6,38.5c-2.3,2.3-5.2,4.1-8.6,5-22,6.3-42.3,18.3-58.6,34.6-16.3,16.3-28.3,36.6-34.6,58.6-3,10.6-14.1,16.7-24.6,13.7-10.6-3-16.7-14.1-13.7-24.6,8.2-28.5,23.6-54.7,44.7-75.8C76.3,28.9,102.5,13.4,131,5.2c10.6-3,21.6,3.1,24.6,13.7,2.1,7.2-.1,14.6-5.1,19.6Z"/>
  <g>
    <path class="st5" d="M103.6,108.8c-10.6-4.1-22.6,1.2-26.7,11.8-4.1,10.6,1.2,22.6,11.8,26.7,10.6,4.1,22.6-1.2,26.7-11.8s-1.2-22.6-11.8-26.7Z"/>
    <g>
      <path class="st4" d="M104,118.9c-.9-.4-2,.1-2.3,1-.4.9.1,2,1,2.3.9.4,2-.1,2.3-1,.4-.9-.1-2-1-2.3Z"/>
      <path class="st4" d="M88.4,115.4c-.9-.4-2,.1-2.3,1-.4.9.1,2,1,2.3.9.4,2-.1,2.3-1,.4-.9-.1-2-1-2.3Z"/>
      <path class="st4" d="M91.7,139.7c-.9-.4-2,.1-2.3,1-.4.9.1,2,1,2.3.9.4,2-.1,2.3-1,.4-.9-.1-2-1-2.3Z"/>
      <path class="st4" d="M110.8,132.4c-.9-.4-2,.1-2.3,1s.1,2,1,2.3c.9.4,2-.1,2.3-1,.4-.9-.1-2-1-2.3Z"/>
      <path class="st4" d="M93,127.5c-.9-.4-2,.1-2.3,1-.4.9.1,2,1,2.3.9.4,2-.1,2.3-1,.4-.9-.1-2-1-2.3Z"/>
      <path class="st4" d="M80.2,123.4c-.9-.4-2,.1-2.3,1-.4.9.1,2,1,2.3.9.4,2-.1,2.3-1,.4-.9-.1-2-1-2.3Z"/>
    </g>
  </g>
  <g>
    <path class="st5" d="M163,114.7c-10.6-4.1-22.6,1.2-26.7,11.8-4.1,10.6,1.2,22.6,11.8,26.7,10.6,4.1,22.6-1.2,26.7-11.8,4.1-10.6-1.2-22.6-11.8-26.7Z"/>
    <g>
      <path class="st4" d="M170.4,131.9c-.9-.4-2,.1-2.3,1s.1,2,1,2.3c.9.4,2-.1,2.3-1s-.1-2-1-2.3Z"/>
      <path class="st4" d="M158.5,132.2c-.9-.4-2,.1-2.3,1-.4.9.1,2,1,2.3s2-.1,2.3-1-.1-2-1-2.3Z"/>
      <path class="st4" d="M144.1,139c-.9-.4-2,.1-2.3,1-.4.9.1,2,1,2.3.9.4,2-.1,2.3-1s-.1-2-1-2.3Z"/>
      <path class="st4" d="M161.8,145.5c-.9-.4-2,.1-2.3,1-.4.9.1,2,1,2.3.9.4,2-.1,2.3-1,.4-.9-.1-2-1-2.3Z"/>
      <path class="st4" d="M157.5,119c-.9-.4-2,.1-2.3,1-.4.9.1,2,1,2.3.9.4,2-.1,2.3-1,.4-.9-.1-2-1-2.3Z"/>
      <path class="st4" d="M145.6,124.2c-.9-.4-2,.1-2.3,1-.4.9.1,2,1,2.3.9.4,2-.1,2.3-1,.4-.9-.1-2-1-2.3Z"/>
    </g>
  </g>
  <g>
    <path class="st5" d="M143.2,54.3c-10.6-4.1-22.6,1.2-26.7,11.8-4.1,10.6,1.2,22.6,11.8,26.7,10.6,4.1,22.6-1.2,26.7-11.8,4.1-10.6-1.2-22.6-11.8-26.7Z"/>
    <g>
      <path class="st4" d="M149.9,65.6c-.9-.4-2,.1-2.3,1-.4.9.1,2,1,2.3.9.4,2-.1,2.3-1,.4-.9-.1-2-1-2.3Z"/>
      <path class="st4" d="M138,76c-.9-.4-2,.1-2.3,1-.4.9.1,2,1,2.3.9.4,2-.1,2.3-1,.4-.9-.1-2-1-2.3Z"/>
      <path class="st4" d="M131.3,85.2c-.9-.4-2,.1-2.3,1-.4.9.1,2,1,2.3.9.4,2-.1,2.3-1,.4-.9-.1-2-1-2.3Z"/>
      <path class="st4" d="M150.4,78c-.9-.4-2,.1-2.3,1s.1,2,1,2.3c.9.4,2-.1,2.3-1,.4-.9-.1-2-1-2.3Z"/>
      <path class="st4" d="M137.8,57.7c-.9-.4-2,.1-2.3,1-.4.9.1,2,1,2.3.9.4,2-.1,2.3-1s-.1-2-1-2.3Z"/>
      <path class="st4" d="M124.5,65.1c-.9-.4-2,.1-2.3,1-.4.9.1,2,1,2.3.9.4,2-.1,2.3-1,.4-.9-.1-2-1-2.3Z"/>
    </g>
  </g>
  <path class="st2" d="M111.9,96.8c-1.4,3.5.4,7.4,3.9,8.8,3.5,1.4,7.4-.4,8.8-3.9,1.4-3.5-.4-7.4-3.9-8.8-3.5-1.4-7.4.4-8.8,3.9ZM121.7,100.6c-.7,1.9-2.8,2.8-4.7,2.1-1.9-.7-2.8-2.8-2.1-4.7.7-1.9,2.8-2.8,4.7-2.1,1.9.7,2.8,2.8,2.1,4.7Z"/>
  <path class="st2" d="M70.9,100.5c-1.4,3.5.4,7.4,3.9,8.8,3.5,1.4,7.4-.4,8.8-3.9,1.4-3.5-.4-7.4-3.9-8.8-3.5-1.4-7.4.4-8.8,3.9ZM80.6,104.2c-.7,1.9-2.8,2.8-4.7,2.1-1.9-.7-2.8-2.8-2.1-4.7.7-1.9,2.8-2.8,4.7-2.1,1.9.7,2.8,2.8,2.1,4.7Z"/>
  <path class="st3" d="M127.8,73.2c-3.9-1.8-8.2-1.2-11.4,1.2-2.8-4.2-8.1-6.2-13-4.5-6,2-9.3,8.4-7.3,14.4l5-1.6c-1.1-3.2.7-6.7,3.9-7.7,1.1-.4,2.3-.4,3.3-.1h0s2.9.4,4.6,3.2c1.5,2.4,4.2,1.8,4.9,1.6.6-.2,1.1-.5,1.6-.9,1.7-1.3,4.1-1.6,6.2-.7,3.1,1.4,4.4,5,3,8.1l4.8,2.2c2.6-5.7,0-12.5-5.7-15.1Z"/>
  <path class="st1" d="M143.6,195.6h0c-2.5,0-4.4-2-4.4-4.4v-25.8h8.9v25.8c0,2.5-2,4.4-4.4,4.4Z"/>
  <path class="st1" d="M125.8,187.1h0c-2.5,0-4.4-2-4.4-4.4v-25.8h8.9v25.8c0,2.5-2,4.4-4.4,4.4Z"/>
  <path class="st3" d="M107.7,137.1c1.5,4,5,6.6,8.9,7.3-1,4.9,1.3,10.1,6,12.4,5.6,2.9,12.5.6,15.3-5l-4.7-2.4c-1.5,3-5.2,4.2-8.2,2.7-1.1-.5-1.9-1.3-2.4-2.3h0s-1.8-2.3-1-5.5c.7-2.8-1.7-4.3-2.3-4.6-.5-.3-1.1-.5-1.8-.5-2.1-.3-4-1.8-4.8-3.9-1.2-3.2.4-6.7,3.6-7.9l-1.9-4.9c-5.9,2.2-8.9,8.8-6.7,14.7Z"/>
</svg>