<?xml version="1.0" encoding="UTF-8"?>
<svg id="Layer_1" xmlns="http://www.w3.org/2000/svg" version="1.1" viewBox="0 0 200 200">
  <!-- Generator: Adobe Illustrator 30.1.0, SVG Export Plug-In . SVG Version: 2.1.1 Build 136)  -->
  <defs>
    <style>
      .st0 {
        fill: #e5bb88;
      }

      .st1 {
        fill: #e1e8ed;
      }

      .st2 {
        fill: #da2f47;
      }

      .st3 {
        fill: #d1dbe0;
      }

      .st4 {
        fill: #ffd67b;
      }
    </style>
  </defs>
  <path class="st0" d="M194,25.2h0c.5,4.9-3.1,9.2-8,9.6l-100.9,6.9c-2.7.2-5-1.8-5.3-4.5h0c-.3-2.7,1.6-5.1,4.3-5.5l100.2-14.2c4.9-.7,9.3,2.8,9.9,7.7Z"/>
  <path class="st4" d="M91.4,90.9c-1.7,0-3.1-1.4-3.1-3.1s-.4-1.8-1.3-2.8c-1.2-1.4-2.8-3.3-2.8-6.9s1.6-5.5,2.8-6.9c.9-1.1,1.3-1.5,1.3-2.8s-.4-1.8-1.3-2.8c-1.2-1.4-2.8-3.3-2.8-6.9s1.6-5.5,2.8-6.9c.9-1.1,1.3-1.5,1.3-2.8s-.4-1.8-1.3-2.8c-1.2-1.4-2.8-3.3-2.8-6.9s1.6-5.5,2.8-6.9c.9-1.1,1.3-1.5,1.3-2.8s1.4-3.1,3.1-3.1,3.1,1.4,3.1,3.1c0,3.6-1.6,5.5-2.8,6.9-.9,1.1-1.3,1.5-1.3,2.8s.4,1.8,1.3,2.8c1.2,1.4,2.8,3.3,2.8,6.9s-1.6,5.5-2.8,6.9c-.9,1.1-1.3,1.5-1.3,2.8s.4,1.8,1.3,2.8c1.2,1.4,2.8,3.3,2.8,6.9s-1.6,5.5-2.8,6.9c-.9,1.1-1.3,1.5-1.3,2.8s.4,1.8,1.3,2.8c1.2,1.4,2.8,3.3,2.8,6.9s-1.4,3.1-3.1,3.1Z"/>
  <path class="st0" d="M194.2,57h0c-.3,4.9-4.6,8.6-9.5,8.1l-100.7-9.6c-2.7-.3-4.7-2.6-4.5-5.3h0c.2-2.7,2.4-4.8,5.1-4.7l101.1,2.3c4.9.1,8.8,4.3,8.5,9.2Z"/>
  <path class="st4" d="M101.4,90.9c-1.7,0-3.1-1.4-3.1-3.1s-.4-1.8-1.3-2.8c-1.2-1.4-2.8-3.3-2.8-6.9s1.6-5.5,2.8-6.9c.9-1.1,1.3-1.5,1.3-2.8s-.4-1.8-1.3-2.8c-1.2-1.4-2.8-3.3-2.8-6.9s1.6-5.5,2.8-6.9c.9-1.1,1.3-1.5,1.3-2.8s-.4-1.8-1.3-2.8c-1.2-1.4-2.8-3.3-2.8-6.9s1.6-5.5,2.8-6.9c.9-1.1,1.3-1.5,1.3-2.8s1.4-3.1,3.1-3.1,3.1,1.4,3.1,3.1c0,3.6-1.6,5.5-2.8,6.9-.9,1.1-1.3,1.5-1.3,2.8s.4,1.8,1.3,2.8c1.2,1.4,2.8,3.3,2.8,6.9s-1.6,5.5-2.8,6.9c-.9,1.1-1.3,1.5-1.3,2.8s.4,1.8,1.3,2.8c1.2,1.4,2.8,3.3,2.8,6.9s-1.6,5.5-2.8,6.9c-.9,1.1-1.3,1.5-1.3,2.8s.4,1.8,1.3,2.8c1.2,1.4,2.8,3.3,2.8,6.9s-1.4,3.1-3.1,3.1Z"/>
  <path class="st3" d="M57.4,160.6h72.7v15.3c0,3.7-3,6.7-6.7,6.7h-59.3c-3.7,0-6.7-3-6.7-6.7v-15.3h0Z"/>
  <path class="st1" d="M172.4,80.3c5.5,0,9.9,4.8,9.3,10.3-5.1,44,0,78.2-87.9,78.2S10.9,134.7,5.8,90.6c-.6-5.5,3.8-10.3,9.3-10.3h157.3Z"/>
  <path class="st2" d="M8.4,115.4h170.6c.7-5.5,1.2-11.2,1.8-17.2H6.6c.6,6,1.1,11.7,1.8,17.2Z"/>
</svg>