<?xml version="1.0" encoding="UTF-8"?>
<svg id="Layer_1" xmlns="http://www.w3.org/2000/svg" version="1.1" viewBox="0 0 200 200">
  <!-- Generator: Adobe Illustrator 30.1.0, SVG Export Plug-In . SVG Version: 2.1.1 Build 136)  -->
  <defs>
    <style>
      .st0 {
        fill: #ffcf00;
      }

      .st1 {
        fill: #ffe473;
      }
    </style>
  </defs>
  <path class="st1" d="M163.3,156.6l-10.7-3c-4.9-1.3-9.6,2.6-9.2,7.6l1,11.1c.6,6.5-7.1,10.4-12,6.1l-8.4-7.3c-3.8-3.3-9.8-1.8-11.6,2.9l-3.9,10.4c-2.3,6.1-10.9,6.3-13.5.3l-4.4-10.2c-2-4.7-8-5.9-11.7-2.4l-8,7.7c-4.7,4.5-12.6,1-12.3-5.6l.5-11.1c.2-5.1-4.7-8.8-9.5-7.2l-10.6,3.4c-6.2,2-11.7-4.6-8.6-10.3l5.3-9.8c2.4-4.5-.4-9.9-5.4-10.6l-11-1.5c-6.5-.9-8.6-9.2-3.3-13.1l9-6.5c4.1-3,4-9.1-.3-11.9l-9.3-6.1c-5.5-3.6-3.7-12,2.7-13.2l10.9-2c5-.9,7.5-6.5,4.9-10.9l-5.7-9.5c-3.4-5.6,1.8-12.5,8.1-10.7l10.7,3c4.9,1.3,9.6-2.6,9.1-7.6l-1-11.1c-.6-6.5,7.1-10.4,12-6.1l8.4,7.3c3.8,3.3,9.8,1.8,11.6-2.9l3.9-10.4c2.3-6.1,10.9-6.3,13.5-.3l4.4,10.2c2,4.7,8,5.9,11.7,2.4l8-7.7c4.7-4.5,12.6-1,12.3,5.6l-.5,11.1c-.2,5.1,4.7,8.8,9.5,7.2l10.6-3.4c6.2-2,11.7,4.6,8.6,10.3l-5.3,9.8c-2.4,4.5.4,9.9,5.4,10.6l11,1.5c6.5.9,8.6,9.2,3.3,13.1l-9,6.5c-4.1,3-4,9.1.3,11.9l9.3,6.1c5.5,3.6,3.7,12-2.7,13.2l-10.9,2c-5,.9-7.5,6.5-4.9,10.9l5.7,9.5c3.4,5.6-1.8,12.5-8.1,10.7Z"/>
  <circle class="st0" cx="100" cy="100" r="59.1"/>
  <path class="st1" d="M61.1,104.9c-3.8,0-6.9-3.1-6.9-6.9,0-24.7,20.1-44.7,44.7-44.7s6.9,3.1,6.9,6.9-3.1,6.9-6.9,6.9c-17.1,0-31,13.9-31,31s-3.1,6.9-6.9,6.9Z"/>
</svg>