<?xml version="1.0" encoding="UTF-8"?>
<svg id="Layer_1" xmlns="http://www.w3.org/2000/svg" version="1.1" viewBox="0 0 200 200">
  <!-- Generator: Adobe Illustrator 30.1.0, SVG Export Plug-In . SVG Version: 2.1.1 Build 136)  -->
  <defs>
    <style>
      .st0 {
        fill: #e5bb88;
      }

      .st1 {
        fill: #f4f3f2;
      }

      .st2 {
        fill: #fadcb2;
      }

      .st3 {
        fill: #efca9c;
      }

      .st4 {
        fill: #77b255;
      }

      .st5 {
        fill: #af6a3a;
      }

      .st6 {
        fill: #e54c4c;
      }
    </style>
  </defs>
  <path class="st3" d="M67.4,56.1C24.7,69.9.1,119.3,12.5,166.6c2.1,7.8,9.4,12.3,16.5,10,7-2.3,11.1-10.4,9.1-18.2l129.2-41.6c-12.4-47.2-57.1-74.4-99.8-60.7Z"/>
  <path class="st1" d="M39.4,112l-3.8,7.6c-1.4,2.9-4.7,3.9-7.3,2.4l-6.9-4.2c-2.6-1.6-3.6-5.2-2.1-8.1l3.8-7.6c1.4-2.9,4.7-3.9,7.3-2.4l6.9,4.2c2.6,1.6,3.6,5.2,2.1,8.1Z"/>
  <path class="st1" d="M42.5,147.3l-3.8,7.6c-1.4,2.9-4.7,3.9-7.3,2.4l-6.9-4.2c-2.6-1.6-3.6-5.2-2.1-8.1l3.8-7.6c1.4-2.9,4.7-3.9,7.3-2.4l6.9,4.2c2.6,1.6,3.6,5.2,2.1,8.1Z"/>
  <path class="st1" d="M114.1,49.9l-3.8,7.6c-1.4,2.9-4.7,3.9-7.3,2.4l-6.9-4.2c-2.6-1.6-3.6-5.2-2.1-8.1l3.8-7.6c1.4-2.9,4.7-3.9,7.3-2.4l6.9,4.2c2.6,1.6,3.6,5.2,2.1,8.1Z"/>
  <path class="st6" d="M62.8,127.2c-3.2-12-14.5-18.9-25.3-15.4-10.8,3.5-17.1,16-13.9,28,3.2,12,14.5,18.9,25.3,15.4s17.1-16,13.9-28Z"/>
  <path class="st6" d="M111.1,54.9c-3.2-12-14.5-18.9-25.3-15.4-10.8,3.5-17.1,16-13.9,28,3.2,12,14.5,18.9,25.3,15.4,10.8-3.5,17.1-16,13.9-28Z"/>
  <path class="st4" d="M89.9,64.1c-3.6-13.8-16.7-21.8-29.3-17.8s-19.7,18.5-16.1,32.4c3.6,13.8,16.7,21.8,29.3,17.8,12.5-4,19.7-18.5,16.1-32.4Z"/>
  <path class="st4" d="M71.5,97.2c-3.6-13.8-16.7-21.8-29.3-17.8-12.5,4-19.7,18.5-16.1,32.4,3.6,13.8,16.7,21.8,29.3,17.8s19.7-18.5,16.1-32.4Z"/>
  <path class="st4" d="M141.4,55.9c-3.6-13.8-16.7-21.8-29.3-17.8-12.5,4-19.7,18.5-16.1,32.4,3.6,13.8,16.7,21.8,29.3,17.8,12.5-4,19.7-18.5,16.1-32.4Z"/>
  <path class="st5" d="M51.5,95.6l-7.6,2.4c-2.9.9-5.8-.9-6.7-4.1l-2.2-8.4c-.8-3.2.8-6.5,3.7-7.4l7.6-2.4c2.9-.9,5.8.9,6.7,4.1l2.2,8.4c.8,3.2-.8,6.5-3.7,7.4Z"/>
  <path class="st5" d="M99.6,55l-3.8,7.6c-1.4,2.9-4.7,3.9-7.3,2.4l-6.9-4.2c-2.6-1.6-3.6-5.2-2.1-8.1l3.8-7.6c1.4-2.9,4.7-3.9,7.3-2.4l6.9,4.2c2.6,1.6,3.6,5.2,2.1,8.1Z"/>
  <path class="st5" d="M48.2,158.4l-3.8,7.6c-1.4,2.9-4.7,3.9-7.3,2.4l-6.9-4.2c-2.6-1.6-3.6-5.2-2.1-8.1l3.8-7.6c1.4-2.9,4.7-3.9,7.3-2.4l6.9,4.2c2.6,1.6,3.6,5.2,2.1,8.1Z"/>
  <path class="st2" d="M93.9,47.6c-43.3,13.3-68.4,63.1-55.9,110.8,2.1,7.8-2,16-9.1,18.2l155.8-50.1c6.4-2.1,10.1-9.5,8.2-16.6h0c-12.4-47-56.5-75.3-99.1-62.3Z"/>
  <path class="st0" d="M136.6,96.4c-.7-2.5-3.1-4-5.4-3.3s-3.6,3.4-3,6,3.1,4,5.4,3.3,3.6-3.4,3-6Z"/>
  <path class="st0" d="M175.9,100c-.7-2.5-3.1-4-5.4-3.3s-3.6,3.4-3,6,3.1,4,5.4,3.3,3.6-3.4,3-6Z"/>
  <path class="st0" d="M103.3,123.4c-.7-2.5-3.1-4-5.4-3.3s-3.6,3.4-3,6c.7,2.5,3.1,4,5.4,3.3s3.6-3.4,3-6Z"/>
  <path class="st0" d="M114.7,73.9c-1.3-4.8-5.8-7.6-10.2-6.2-4.3,1.4-6.8,6.4-5.6,11.2s5.8,7.6,10.2,6.2,6.8-6.4,5.6-11.2Z"/>
  <path class="st0" d="M74.4,98.5c-1-3.7-4.5-5.9-7.9-4.8s-5.3,5-4.3,8.7,4.5,5.9,7.9,4.8,5.3-5,4.3-8.7Z"/>
</svg>